var notes = [
    {
        "name": "A5",
        "midi": 81,
        "time": 2.7197916666666666,
        "velocity": 0.047244094488188976,
        "duration": 0.20000000000000018
    },
    {
        "name": "C6",
        "midi": 84,
        "time": 2.7604166666666665,
        "velocity": 0.047244094488188976,
        "duration": 0.20000000000000018
    },
    {
        "name": "F#5",
        "midi": 78,
        "time": 2.9,
        "velocity": 0.023622047244094488,
        "duration": 0.11979166666666696
    },
    {
        "name": "A#5",
        "midi": 82,
        "time": 2.919791666666667,
        "velocity": 0.047244094488188976,
        "duration": 0.5197916666666673
    },
    {
        "name": "C6",
        "midi": 84,
        "time": 3,
        "velocity": 0.03937007874015748,
        "duration": 0.11979166666666696
    },
    {
        "name": "A5",
        "midi": 81,
        "time": 3.060416666666667,
        "velocity": 0.023622047244094488,
        "duration": 0.15937500000000027
    },
    {
        "name": "E5",
        "midi": 76,
        "time": 3.2,
        "velocity": 0.03937007874015748,
        "duration": 0.11979166666666696
    },
    {
        "name": "B5",
        "midi": 83,
        "time": 3.260416666666667,
        "velocity": 0.031496062992125984,
        "duration": 0.11979166666666696
    },
    {
        "name": "F5",
        "midi": 77,
        "time": 3.280208333333334,
        "velocity": 0.047244094488188976,
        "duration": 0.11979166666666696
    },
    {
        "name": "B5",
        "midi": 83,
        "time": 3.400000000000001,
        "velocity": 0.05511811023622047,
        "duration": 0.11979166666666652
    },
    {
        "name": "C6",
        "midi": 84,
        "time": 3.480208333333334,
        "velocity": 0.05511811023622047,
        "duration": 0.13958333333333384
    },
    {
        "name": "C#3",
        "midi": 49,
        "time": 3.5197916666666673,
        "velocity": 0.03937007874015748,
        "duration": 0.21979166666666705
    },
    {
        "name": "A#4",
        "midi": 70,
        "time": 3.580208333333334,
        "velocity": 0.047244094488188976,
        "duration": 0.11979166666666696
    },
    {
        "name": "C#4",
        "midi": 61,
        "time": 3.600000000000001,
        "velocity": 0.047244094488188976,
        "duration": 0.3197916666666667
    },
    {
        "name": "C6",
        "midi": 84,
        "time": 3.6604166666666678,
        "velocity": 0.06299212598425197,
        "duration": 0.4791666666666665
    },
    {
        "name": "C#3",
        "midi": 49,
        "time": 3.8604166666666675,
        "velocity": 0.031496062992125984,
        "duration": 0.11979166666666696
    },
    {
        "name": "C#2",
        "midi": 37,
        "time": 4.460416666666668,
        "velocity": 0.07086614173228346,
        "duration": 0.9197916666666668
    },
    {
        "name": "D#4",
        "midi": 63,
        "time": 4.860416666666668,
        "velocity": 0.08661417322834646,
        "duration": 0.4395833333333332
    },
    {
        "name": "C4",
        "midi": 60,
        "time": 10.760416666666668,
        "velocity": 0.07874015748031496,
        "duration": 0.3395833333333318
    },
    {
        "name": "B3",
        "midi": 59,
        "time": 10.780208333333334,
        "velocity": 0.09448818897637795,
        "duration": 0.2802083333333325
    },
    {
        "name": "F#5",
        "midi": 78,
        "time": 10.860416666666667,
        "velocity": 0.031496062992125984,
        "duration": 0.1395833333333325
    },
    {
        "name": "C#4",
        "midi": 61,
        "time": 10.980208333333334,
        "velocity": 0.07874015748031496,
        "duration": 0.1999999999999993
    },
    {
        "name": "D4",
        "midi": 62,
        "time": 11.080208333333333,
        "velocity": 0.07874015748031496,
        "duration": 0.1999999999999993
    },
    {
        "name": "C#4",
        "midi": 61,
        "time": 11.2,
        "velocity": 0.07874015748031496,
        "duration": 0.16041666666666643
    },
    {
        "name": "C4",
        "midi": 60,
        "time": 11.239583333333332,
        "velocity": 0.047244094488188976,
        "duration": 0.18020833333333286
    },
    {
        "name": "B3",
        "midi": 59,
        "time": 11.299999999999999,
        "velocity": 0.10236220472440945,
        "duration": 0.3604166666666657
    },
    {
        "name": "A#3",
        "midi": 58,
        "time": 11.439583333333331,
        "velocity": 0.03937007874015748,
        "duration": 0.1999999999999993
    },
    {
        "name": "D#5",
        "midi": 75,
        "time": 11.619791666666664,
        "velocity": 0.1732283464566929,
        "duration": 0.26041666666666785
    },
    {
        "name": "C5",
        "midi": 72,
        "time": 11.63958333333333,
        "velocity": 0.07086614173228346,
        "duration": 0.20000000000000107
    },
    {
        "name": "G3",
        "midi": 55,
        "time": 11.860416666666666,
        "velocity": 0.13385826771653545,
        "duration": 0.8593749999999982
    },
    {
        "name": "F#3",
        "midi": 54,
        "time": 11.899999999999999,
        "velocity": 0.11811023622047244,
        "duration": 0.4999999999999982
    },
    {
        "name": "G#3",
        "midi": 56,
        "time": 12.060416666666665,
        "velocity": 0.03937007874015748,
        "duration": 0.11979166666666607
    },
    {
        "name": "G#3",
        "midi": 56,
        "time": 12.219791666666664,
        "velocity": 0.05511811023622047,
        "duration": 0.140625
    },
    {
        "name": "G#3",
        "midi": 56,
        "time": 12.83958333333333,
        "velocity": 0.1889763779527559,
        "duration": 0.29999999999999893
    },
    {
        "name": "B3",
        "midi": 59,
        "time": 13.08020833333333,
        "velocity": 0.11023622047244094,
        "duration": 0.5593749999999993
    },
    {
        "name": "A#3",
        "midi": 58,
        "time": 13.299999999999995,
        "velocity": 0.07086614173228346,
        "duration": 0.18020833333333286
    },
    {
        "name": "C#4",
        "midi": 61,
        "time": 13.639583333333329,
        "velocity": 0.18110236220472442,
        "duration": 0.8604166666666657
    },
    {
        "name": "F3",
        "midi": 53,
        "time": 13.739583333333329,
        "velocity": 0.031496062992125984,
        "duration": 0.18020833333333286
    },
    {
        "name": "D#5",
        "midi": 75,
        "time": 14.480208333333328,
        "velocity": 0.15748031496062992,
        "duration": 0.1999999999999993
    },
    {
        "name": "C5",
        "midi": 72,
        "time": 14.499999999999995,
        "velocity": 0.10236220472440945,
        "duration": 0.18020833333333286
    },
    {
        "name": "F4",
        "midi": 65,
        "time": 14.699999999999994,
        "velocity": 0.2125984251968504,
        "duration": 0.21979166666666572
    },
    {
        "name": "F#4",
        "midi": 66,
        "time": 14.839583333333326,
        "velocity": 0.25196850393700787,
        "duration": 0.22083333333333321
    },
    {
        "name": "G4",
        "midi": 67,
        "time": 14.939583333333326,
        "velocity": 0.2283464566929134,
        "duration": 0.22083333333333321
    },
    {
        "name": "F#4",
        "midi": 66,
        "time": 15.080208333333326,
        "velocity": 0.14960629921259844,
        "duration": 0.11979166666666607
    },
    {
        "name": "G4",
        "midi": 67,
        "time": 15.180208333333326,
        "velocity": 0.2047244094488189,
        "duration": 0.4395833333333332
    },
    {
        "name": "F4",
        "midi": 65,
        "time": 15.219791666666659,
        "velocity": 0.15748031496062992,
        "duration": 0.18020833333333286
    },
    {
        "name": "G#4",
        "midi": 68,
        "time": 17.039583333333326,
        "velocity": 0.15748031496062992,
        "duration": 0.140625
    },
    {
        "name": "A#4",
        "midi": 70,
        "time": 17.180208333333326,
        "velocity": 0.14960629921259844,
        "duration": 0.31979166666666714
    },
    {
        "name": "A#5",
        "midi": 82,
        "time": 17.180208333333326,
        "velocity": 0.12598425196850394,
        "duration": 0.1593750000000007
    },
    {
        "name": "A#5",
        "midi": 82,
        "time": 17.380208333333325,
        "velocity": 0.07874015748031496,
        "duration": 0.11979166666666785
    },
    {
        "name": "A#4",
        "midi": 70,
        "time": 17.539583333333326,
        "velocity": 0.09448818897637795,
        "duration": 0.12083333333333357
    },
    {
        "name": "A#4",
        "midi": 70,
        "time": 17.699999999999992,
        "velocity": 0.13385826771653545,
        "duration": 0.1999999999999993
    },
    {
        "name": "G#4",
        "midi": 68,
        "time": 17.919791666666658,
        "velocity": 0.10236220472440945,
        "duration": 0.11979166666666785
    },
    {
        "name": "F#4",
        "midi": 66,
        "time": 18.09999999999999,
        "velocity": 0.2283464566929134,
        "duration": 0.51979166666667
    },
    {
        "name": "F#5",
        "midi": 78,
        "time": 18.180208333333326,
        "velocity": 0.07874015748031496,
        "duration": 0.11979166666666785
    },
    {
        "name": "F#5",
        "midi": 78,
        "time": 18.31979166666666,
        "velocity": 0.07086614173228346,
        "duration": 0.11979166666666785
    },
    {
        "name": "C#6",
        "midi": 85,
        "time": 18.480208333333326,
        "velocity": 0.05511811023622047,
        "duration": 0.11979166666666785
    },
    {
        "name": "D6",
        "midi": 86,
        "time": 18.56041666666666,
        "velocity": 0.1732283464566929,
        "duration": 0.1197916666666643
    },
    {
        "name": "F#4",
        "midi": 66,
        "time": 18.639583333333327,
        "velocity": 0.23622047244094488,
        "duration": 0.22083333333333144
    },
    {
        "name": "F4",
        "midi": 65,
        "time": 18.81979166666666,
        "velocity": 0.12598425196850394,
        "duration": 0.21979166666666572
    },
    {
        "name": "A3",
        "midi": 57,
        "time": 19.180208333333326,
        "velocity": 0.11811023622047244,
        "duration": 0.1593750000000007
    },
    {
        "name": "A#3",
        "midi": 58,
        "time": 19.439583333333328,
        "velocity": 0.13385826771653545,
        "duration": 0.46041666666666714
    },
    {
        "name": "C#4",
        "midi": 61,
        "time": 19.999999999999996,
        "velocity": 0.07874015748031496,
        "duration": 0.18020833333333286
    },
    {
        "name": "C4",
        "midi": 60,
        "time": 20.13958333333333,
        "velocity": 0.14960629921259844,
        "duration": 0.5802083333333314
    },
    {
        "name": "C#4",
        "midi": 61,
        "time": 20.699999999999996,
        "velocity": 0.14173228346456693,
        "duration": 0.16041666666666643
    },
    {
        "name": "C4",
        "midi": 60,
        "time": 20.799999999999997,
        "velocity": 0.07874015748031496,
        "duration": 0.1197916666666643
    },
    {
        "name": "C#4",
        "midi": 61,
        "time": 20.96041666666666,
        "velocity": 0.07086614173228346,
        "duration": 0.1593750000000007
    },
    {
        "name": "C4",
        "midi": 60,
        "time": 21.11979166666666,
        "velocity": 0.07086614173228346,
        "duration": 0.1197916666666643
    },
    {
        "name": "C#4",
        "midi": 61,
        "time": 21.180208333333326,
        "velocity": 0.08661417322834646,
        "duration": 0.1197916666666643
    },
    {
        "name": "C#4",
        "midi": 61,
        "time": 21.319791666666656,
        "velocity": 0.07086614173228346,
        "duration": 0.11979166666666785
    },
    {
        "name": "D4",
        "midi": 62,
        "time": 23.699999999999992,
        "velocity": 0.07874015748031496,
        "duration": 0.11979166666666785
    },
    {
        "name": "C#4",
        "midi": 61,
        "time": 23.780208333333327,
        "velocity": 0.11023622047244094,
        "duration": 0.3000000000000007
    },
    {
        "name": "B2",
        "midi": 47,
        "time": 23.839583333333326,
        "velocity": 0.06299212598425197,
        "duration": 0.8802083333333357
    },
    {
        "name": "D#5",
        "midi": 75,
        "time": 24.18020833333333,
        "velocity": 0.08661417322834646,
        "duration": 0.18020833333333286
    },
    {
        "name": "C#4",
        "midi": 61,
        "time": 24.38020833333333,
        "velocity": 0.16535433070866143,
        "duration": 0.359375
    },
    {
        "name": "G4",
        "midi": 67,
        "time": 24.91979166666666,
        "velocity": 0.13385826771653545,
        "duration": 0.140625
    },
    {
        "name": "C#4",
        "midi": 61,
        "time": 25.03958333333333,
        "velocity": 0.031496062992125984,
        "duration": 0.12083333333333002
    },
    {
        "name": "A#3",
        "midi": 58,
        "time": 25.06041666666666,
        "velocity": 0.03937007874015748,
        "duration": 0.15937499999999716
    },
    {
        "name": "B4",
        "midi": 71,
        "time": 25.080208333333328,
        "velocity": 0.11023622047244094,
        "duration": 0.1197916666666643
    },
    {
        "name": "A#5",
        "midi": 82,
        "time": 25.139583333333327,
        "velocity": 0.05511811023622047,
        "duration": 0.12083333333333002
    },
    {
        "name": "A#4",
        "midi": 70,
        "time": 25.139583333333327,
        "velocity": 0.09448818897637795,
        "duration": 0.12083333333333002
    },
    {
        "name": "B4",
        "midi": 71,
        "time": 25.21979166666666,
        "velocity": 0.14960629921259844,
        "duration": 0.2604166666666643
    },
    {
        "name": "A#5",
        "midi": 82,
        "time": 25.280208333333324,
        "velocity": 0.07086614173228346,
        "duration": 0.11979166666666785
    },
    {
        "name": "A#4",
        "midi": 70,
        "time": 25.29999999999999,
        "velocity": 0.08661417322834646,
        "duration": 0.11979166666666785
    },
    {
        "name": "A#5",
        "midi": 82,
        "time": 25.439583333333324,
        "velocity": 0.09448818897637795,
        "duration": 0.12083333333333357
    },
    {
        "name": "A#4",
        "midi": 70,
        "time": 25.439583333333324,
        "velocity": 0.13385826771653545,
        "duration": 0.12083333333333357
    },
    {
        "name": "A4",
        "midi": 69,
        "time": 25.59999999999999,
        "velocity": 0.047244094488188976,
        "duration": 0.11979166666666785
    },
    {
        "name": "A#4",
        "midi": 70,
        "time": 25.680208333333326,
        "velocity": 0.07874015748031496,
        "duration": 0.1197916666666643
    },
    {
        "name": "A4",
        "midi": 69,
        "time": 25.760416666666657,
        "velocity": 0.05511811023622047,
        "duration": 0.11979166666666785
    },
    {
        "name": "A#4",
        "midi": 70,
        "time": 25.919791666666658,
        "velocity": 0.07874015748031496,
        "duration": 0.1999999999999993
    },
    {
        "name": "A4",
        "midi": 69,
        "time": 26.199999999999992,
        "velocity": 0.1889763779527559,
        "duration": 0.2802083333333343
    },
    {
        "name": "A6",
        "midi": 93,
        "time": 26.339583333333326,
        "velocity": 0.08661417322834646,
        "duration": 0.12083333333333357
    },
    {
        "name": "G#2",
        "midi": 44,
        "time": 26.36041666666666,
        "velocity": 0.07874015748031496,
        "duration": 0.5791666666666657
    },
    {
        "name": "A4",
        "midi": 69,
        "time": 26.499999999999993,
        "velocity": 0.14960629921259844,
        "duration": 0.11979166666666785
    },
    {
        "name": "D#6",
        "midi": 87,
        "time": 26.51979166666666,
        "velocity": 0.08661417322834646,
        "duration": 0.16041666666666643
    },
    {
        "name": "G#4",
        "midi": 68,
        "time": 26.51979166666666,
        "velocity": 0.1732283464566929,
        "duration": 0.16041666666666643
    },
    {
        "name": "F#4",
        "midi": 66,
        "time": 26.66041666666666,
        "velocity": 0.1889763779527559,
        "duration": 0.21979166666666572
    },
    {
        "name": "G4",
        "midi": 67,
        "time": 26.89999999999999,
        "velocity": 0.1732283464566929,
        "duration": 0.1197916666666643
    },
    {
        "name": "F#2",
        "midi": 42,
        "time": 26.919791666666658,
        "velocity": 0.05511811023622047,
        "duration": 0.3406249999999922
    },
    {
        "name": "F#3",
        "midi": 54,
        "time": 26.939583333333324,
        "velocity": 0.06299212598425197,
        "duration": 0.22083333333332789
    },
    {
        "name": "F#4",
        "midi": 66,
        "time": 26.980208333333323,
        "velocity": 0.2125984251968504,
        "duration": 0.1197916666666643
    },
    {
        "name": "G4",
        "midi": 67,
        "time": 27.060416666666654,
        "velocity": 0.16535433070866143,
        "duration": 0.1791666666666636
    },
    {
        "name": "F#4",
        "midi": 66,
        "time": 27.160416666666652,
        "velocity": 0.1968503937007874,
        "duration": 0.1197916666666643
    },
    {
        "name": "G4",
        "midi": 67,
        "time": 27.26041666666665,
        "velocity": 0.16535433070866143,
        "duration": 0.1197916666666643
    },
    {
        "name": "F#4",
        "midi": 66,
        "time": 27.31979166666665,
        "velocity": 0.2125984251968504,
        "duration": 0.28020833333333073
    },
    {
        "name": "G4",
        "midi": 67,
        "time": 27.560416666666647,
        "velocity": 0.14173228346456693,
        "duration": 0.11979166666666785
    },
    {
        "name": "E5",
        "midi": 76,
        "time": 27.980208333333316,
        "velocity": 0.15748031496062992,
        "duration": 0.13958333333333428
    },
    {
        "name": "E4",
        "midi": 64,
        "time": 27.980208333333316,
        "velocity": 0.2047244094488189,
        "duration": 0.11979166666666785
    },
    {
        "name": "F5",
        "midi": 77,
        "time": 28.080208333333317,
        "velocity": 0.1889763779527559,
        "duration": 0.2593749999999986
    },
    {
        "name": "F4",
        "midi": 65,
        "time": 28.099999999999984,
        "velocity": 0.2125984251968504,
        "duration": 0.16041666666666643
    },
    {
        "name": "E4",
        "midi": 64,
        "time": 28.339583333333316,
        "velocity": 0.14960629921259844,
        "duration": 0.12083333333333357
    },
    {
        "name": "G#5",
        "midi": 80,
        "time": 30.139583333333317,
        "velocity": 0.10236220472440945,
        "duration": 0.12083333333333357
    },
    {
        "name": "C#4",
        "midi": 61,
        "time": 30.139583333333317,
        "velocity": 0.1968503937007874,
        "duration": 0.12083333333333357
    },
    {
        "name": "B2",
        "midi": 47,
        "time": 30.21979166666665,
        "velocity": 0.06299212598425197,
        "duration": 0.419791666666665
    },
    {
        "name": "A#5",
        "midi": 82,
        "time": 30.339583333333316,
        "velocity": 0.07086614173228346,
        "duration": 0.12083333333333357
    },
    {
        "name": "D#5",
        "midi": 75,
        "time": 30.339583333333316,
        "velocity": 0.08661417322834646,
        "duration": 0.12083333333333357
    },
    {
        "name": "D#4",
        "midi": 63,
        "time": 30.339583333333316,
        "velocity": 0.23622047244094488,
        "duration": 0.12083333333333357
    },
    {
        "name": "D#4",
        "midi": 63,
        "time": 30.499999999999982,
        "velocity": 0.25196850393700787,
        "duration": 0.21979166666666927
    },
    {
        "name": "F#4",
        "midi": 66,
        "time": 30.86041666666665,
        "velocity": 0.2204724409448819,
        "duration": 0.11979166666666785
    },
    {
        "name": "F4",
        "midi": 65,
        "time": 31.13958333333332,
        "velocity": 0.2992125984251969,
        "duration": 0.26041666666666785
    },
    {
        "name": "C6",
        "midi": 84,
        "time": 31.28020833333332,
        "velocity": 0.06299212598425197,
        "duration": 0.11979166666666785
    },
    {
        "name": "F#4",
        "midi": 66,
        "time": 31.38020833333332,
        "velocity": 0.23622047244094488,
        "duration": 0.21979166666666572
    },
    {
        "name": "G#6",
        "midi": 92,
        "time": 31.460416666666653,
        "velocity": 0.05511811023622047,
        "duration": 0.11979166666666785
    },
    {
        "name": "F#5",
        "midi": 78,
        "time": 31.460416666666653,
        "velocity": 0.08661417322834646,
        "duration": 0.11979166666666785
    },
    {
        "name": "F#4",
        "midi": 66,
        "time": 31.619791666666654,
        "velocity": 0.2755905511811024,
        "duration": 0.2802083333333343
    },
    {
        "name": "F#5",
        "midi": 78,
        "time": 31.619791666666654,
        "velocity": 0.07086614173228346,
        "duration": 0.11979166666666785
    },
    {
        "name": "F#5",
        "midi": 78,
        "time": 31.78020833333332,
        "velocity": 0.08661417322834646,
        "duration": 0.11979166666666785
    },
    {
        "name": "F#4",
        "midi": 66,
        "time": 31.93958333333332,
        "velocity": 0.29133858267716534,
        "duration": 0.220833333333335
    },
    {
        "name": "F#4",
        "midi": 66,
        "time": 32.19999999999999,
        "velocity": 0.30708661417322836,
        "duration": 0.30000000000000426
    },
    {
        "name": "F#5",
        "midi": 78,
        "time": 32.33958333333332,
        "velocity": 0.10236220472440945,
        "duration": 0.140625
    },
    {
        "name": "F#4",
        "midi": 66,
        "time": 32.51979166666666,
        "velocity": 0.3228346456692913,
        "duration": 0.1197916666666643
    },
    {
        "name": "F#4",
        "midi": 66,
        "time": 32.680208333333326,
        "velocity": 0.2677165354330709,
        "duration": 0.2593749999999986
    },
    {
        "name": "D4",
        "midi": 62,
        "time": 33.21979166666666,
        "velocity": 0.13385826771653545,
        "duration": 0.1197916666666643
    },
    {
        "name": "C4",
        "midi": 60,
        "time": 33.33958333333332,
        "velocity": 0.14173228346456693,
        "duration": 0.12083333333333002
    },
    {
        "name": "C#4",
        "midi": 61,
        "time": 33.419791666666654,
        "velocity": 0.2440944881889764,
        "duration": 0.2802083333333343
    },
    {
        "name": "C#5",
        "midi": 73,
        "time": 33.519791666666656,
        "velocity": 0.08661417322834646,
        "duration": 0.140625
    },
    {
        "name": "D4",
        "midi": 62,
        "time": 33.660416666666656,
        "velocity": 0.2440944881889764,
        "duration": 0.1197916666666643
    },
    {
        "name": "D4",
        "midi": 62,
        "time": 33.81979166666665,
        "velocity": 0.1732283464566929,
        "duration": 0.1197916666666643
    },
    {
        "name": "C#4",
        "midi": 61,
        "time": 33.899999999999984,
        "velocity": 0.10236220472440945,
        "duration": 0.1197916666666643
    },
    {
        "name": "B3",
        "midi": 59,
        "time": 34.399999999999984,
        "velocity": 0.08661417322834646,
        "duration": 0.16041666666666998
    },
    {
        "name": "A#3",
        "midi": 58,
        "time": 34.61979166666666,
        "velocity": 0.11023622047244094,
        "duration": 0.34062500000000284
    },
    {
        "name": "B3",
        "midi": 59,
        "time": 37.699999999999996,
        "velocity": 0.18110236220472442,
        "duration": 0.21979166666667282
    },
    {
        "name": "C4",
        "midi": 60,
        "time": 37.8,
        "velocity": 0.14960629921259844,
        "duration": 0.16041666666666998
    },
    {
        "name": "C#4",
        "midi": 61,
        "time": 37.83958333333333,
        "velocity": 0.16535433070866143,
        "duration": 0.24062500000000142
    },
    {
        "name": "D4",
        "midi": 62,
        "time": 37.9,
        "velocity": 0.2204724409448819,
        "duration": 0.4000000000000057
    },
    {
        "name": "C#4",
        "midi": 61,
        "time": 38.1,
        "velocity": 0.14960629921259844,
        "duration": 0.16041666666666998
    },
    {
        "name": "A#3",
        "midi": 58,
        "time": 38.41979166666667,
        "velocity": 0.2125984251968504,
        "duration": 0.48020833333333
    },
    {
        "name": "F3",
        "midi": 53,
        "time": 39.1,
        "velocity": 0.09448818897637795,
        "duration": 0.43958333333333854
    },
    {
        "name": "F#3",
        "midi": 54,
        "time": 39.300000000000004,
        "velocity": 0.11811023622047244,
        "duration": 0.2802083333333343
    },
    {
        "name": "F#2",
        "midi": 42,
        "time": 39.7,
        "velocity": 0.031496062992125984,
        "duration": 0.1197916666666643
    },
    {
        "name": "A6",
        "midi": 93,
        "time": 39.739583333333336,
        "velocity": 0.12598425196850394,
        "duration": 0.16041666666666288
    },
    {
        "name": "F#3",
        "midi": 54,
        "time": 40.260416666666664,
        "velocity": 0.05511811023622047,
        "duration": 0.1197916666666714
    },
    {
        "name": "G#3",
        "midi": 56,
        "time": 40.280208333333334,
        "velocity": 0.2047244094488189,
        "duration": 0.18020833333333997
    },
    {
        "name": "C6",
        "midi": 84,
        "time": 40.31979166666667,
        "velocity": 0.05511811023622047,
        "duration": 0.1197916666666714
    },
    {
        "name": "G#5",
        "midi": 80,
        "time": 40.31979166666667,
        "velocity": 0.08661417322834646,
        "duration": 0.1197916666666714
    },
    {
        "name": "A3",
        "midi": 57,
        "time": 40.400000000000006,
        "velocity": 0.14173228346456693,
        "duration": 0.1395833333333414
    },
    {
        "name": "B3",
        "midi": 59,
        "time": 40.480208333333344,
        "velocity": 0.09448818897637795,
        "duration": 0.1395833333333414
    },
    {
        "name": "A#3",
        "midi": 58,
        "time": 40.56041666666668,
        "velocity": 0.2125984251968504,
        "duration": 0.4593750000000014
    },
    {
        "name": "C#4",
        "midi": 61,
        "time": 41.019791666666684,
        "velocity": 0.31496062992125984,
        "duration": 0.7604166666666785
    },
    {
        "name": "F2",
        "midi": 41,
        "time": 41.119791666666686,
        "velocity": 0.047244094488188976,
        "duration": 0.20000000000000284
    },
    {
        "name": "G#4",
        "midi": 68,
        "time": 41.21979166666669,
        "velocity": 0.08661417322834646,
        "duration": 0.16041666666666998
    },
    {
        "name": "G#5",
        "midi": 80,
        "time": 41.31979166666669,
        "velocity": 0.15748031496062992,
        "duration": 0.2604166666666714
    },
    {
        "name": "C#5",
        "midi": 73,
        "time": 41.38020833333336,
        "velocity": 0.11811023622047244,
        "duration": 0.3395833333333371
    },
    {
        "name": "C#4",
        "midi": 61,
        "time": 41.9197916666667,
        "velocity": 0.2755905511811024,
        "duration": 0.2604166666666714
    },
    {
        "name": "C#5",
        "midi": 73,
        "time": 41.980208333333366,
        "velocity": 0.2047244094488189,
        "duration": 0.18020833333333286
    },
    {
        "name": "G#5",
        "midi": 80,
        "time": 42.0604166666667,
        "velocity": 0.10236220472440945,
        "duration": 0.1197916666666714
    },
    {
        "name": "D#2",
        "midi": 39,
        "time": 42.18020833333337,
        "velocity": 0.09448818897637795,
        "duration": 0.65937499999999
    },
    {
        "name": "C6",
        "midi": 84,
        "time": 42.2604166666667,
        "velocity": 0.14960629921259844,
        "duration": 0.1197916666666643
    },
    {
        "name": "F4",
        "midi": 65,
        "time": 42.2604166666667,
        "velocity": 0.2677165354330709,
        "duration": 0.1197916666666643
    },
    {
        "name": "D6",
        "midi": 86,
        "time": 42.50000000000003,
        "velocity": 0.2125984251968504,
        "duration": 0.1197916666666643
    },
    {
        "name": "D6",
        "midi": 86,
        "time": 42.66041666666669,
        "velocity": 0.2440944881889764,
        "duration": 0.1197916666666643
    },
    {
        "name": "F#4",
        "midi": 66,
        "time": 42.73958333333336,
        "velocity": 0.2125984251968504,
        "duration": 0.12083333333333712
    },
    {
        "name": "D6",
        "midi": 86,
        "time": 42.81979166666669,
        "velocity": 0.2047244094488189,
        "duration": 0.1197916666666714
    },
    {
        "name": "A#2",
        "midi": 46,
        "time": 42.81979166666669,
        "velocity": 0.06299212598425197,
        "duration": 0.1197916666666714
    },
    {
        "name": "F#5",
        "midi": 78,
        "time": 42.90000000000003,
        "velocity": 0.06299212598425197,
        "duration": 0.1197916666666643
    },
    {
        "name": "F#4",
        "midi": 66,
        "time": 42.90000000000003,
        "velocity": 0.2204724409448819,
        "duration": 0.1197916666666643
    },
    {
        "name": "F#4",
        "midi": 66,
        "time": 43.06041666666669,
        "velocity": 0.2204724409448819,
        "duration": 0.1197916666666643
    },
    {
        "name": "D#2",
        "midi": 39,
        "time": 43.21979166666669,
        "velocity": 0.10236220472440945,
        "duration": 0.6197916666666572
    },
    {
        "name": "F#4",
        "midi": 66,
        "time": 43.30000000000002,
        "velocity": 0.25196850393700787,
        "duration": 0.2802083333333272
    },
    {
        "name": "F#5",
        "midi": 78,
        "time": 43.38020833333335,
        "velocity": 0.09448818897637795,
        "duration": 0.1197916666666643
    },
    {
        "name": "A#2",
        "midi": 46,
        "time": 43.580208333333346,
        "velocity": 0.07874015748031496,
        "duration": 0.15937499999999716
    },
    {
        "name": "E4",
        "midi": 64,
        "time": 44.28020833333334,
        "velocity": 0.41732283464566927,
        "duration": 0.18020833333333286
    },
    {
        "name": "D#4",
        "midi": 63,
        "time": 44.36041666666667,
        "velocity": 0.2283464566929134,
        "duration": 0.1197916666666714
    },
    {
        "name": "A4",
        "midi": 69,
        "time": 44.500000000000014,
        "velocity": 0.3543307086614173,
        "duration": 0.1197916666666643
    },
    {
        "name": "B5",
        "midi": 83,
        "time": 44.90000000000001,
        "velocity": 0.2992125984251969,
        "duration": 0.1197916666666643
    },
    {
        "name": "B4",
        "midi": 71,
        "time": 44.90000000000001,
        "velocity": 0.12598425196850394,
        "duration": 0.1197916666666643
    },
    {
        "name": "D#2",
        "midi": 39,
        "time": 45.480208333333344,
        "velocity": 0.1889763779527559,
        "duration": 0.5395833333333329
    },
    {
        "name": "F#5",
        "midi": 78,
        "time": 45.580208333333346,
        "velocity": 0.25984251968503935,
        "duration": 0.1197916666666643
    },
    {
        "name": "F#4",
        "midi": 66,
        "time": 45.580208333333346,
        "velocity": 0.1732283464566929,
        "duration": 0.1197916666666643
    },
    {
        "name": "F#5",
        "midi": 78,
        "time": 45.73958333333334,
        "velocity": 0.2204724409448819,
        "duration": 0.12083333333333002
    },
    {
        "name": "F#5",
        "midi": 78,
        "time": 45.88020833333334,
        "velocity": 0.2204724409448819,
        "duration": 0.1197916666666643
    },
    {
        "name": "F#4",
        "midi": 66,
        "time": 45.88020833333334,
        "velocity": 0.2677165354330709,
        "duration": 0.1197916666666643
    },
    {
        "name": "F#5",
        "midi": 78,
        "time": 46.03958333333335,
        "velocity": 0.1732283464566929,
        "duration": 0.12083333333333002
    },
    {
        "name": "F#4",
        "midi": 66,
        "time": 46.03958333333335,
        "velocity": 0.33858267716535434,
        "duration": 0.12083333333333002
    },
    {
        "name": "F4",
        "midi": 65,
        "time": 46.23958333333334,
        "velocity": 0.25984251968503935,
        "duration": 0.12083333333333002
    },
    {
        "name": "A3",
        "midi": 57,
        "time": 46.43958333333334,
        "velocity": 0.1968503937007874,
        "duration": 0.20000000000000284
    },
    {
        "name": "A#3",
        "midi": 58,
        "time": 46.60000000000001,
        "velocity": 0.31496062992125984,
        "duration": 0.18020833333333286
    },
    {
        "name": "A#3",
        "midi": 58,
        "time": 46.960416666666674,
        "velocity": 0.2125984251968504,
        "duration": 0.21979166666666572
    },
    {
        "name": "F5",
        "midi": 77,
        "time": 46.960416666666674,
        "velocity": 0.11023622047244094,
        "duration": 0.1197916666666643
    },
    {
        "name": "A#3",
        "midi": 58,
        "time": 47.21979166666667,
        "velocity": 0.18110236220472442,
        "duration": 0.140625
    },
    {
        "name": "B3",
        "midi": 59,
        "time": 47.300000000000004,
        "velocity": 0.18110236220472442,
        "duration": 0.13958333333333428
    },
    {
        "name": "C#4",
        "midi": 61,
        "time": 47.460416666666674,
        "velocity": 0.25196850393700787,
        "duration": 0.1197916666666714
    },
    {
        "name": "G#2",
        "midi": 44,
        "time": 47.51979166666668,
        "velocity": 0.15748031496062992,
        "duration": 0.5406250000000057
    },
    {
        "name": "C4",
        "midi": 60,
        "time": 47.560416666666676,
        "velocity": 0.28346456692913385,
        "duration": 0.6395833333333414
    },
    {
        "name": "C5",
        "midi": 72,
        "time": 47.96041666666668,
        "velocity": 0.11023622047244094,
        "duration": 0.13958333333333428
    },
    {
        "name": "C4",
        "midi": 60,
        "time": 48.43958333333335,
        "velocity": 0.2677165354330709,
        "duration": 0.20000000000000284
    },
    {
        "name": "C#4",
        "midi": 61,
        "time": 48.619791666666686,
        "velocity": 0.1732283464566929,
        "duration": 0.2802083333333343
    },
    {
        "name": "C#2",
        "midi": 37,
        "time": 48.780208333333356,
        "velocity": 0.10236220472440945,
        "duration": 0.1197916666666643
    },
    {
        "name": "D4",
        "midi": 62,
        "time": 49.260416666666686,
        "velocity": 0.33070866141732286,
        "duration": 0.1197916666666643
    },
    {
        "name": "A#3",
        "midi": 58,
        "time": 50.80000000000002,
        "velocity": 0.31496062992125984,
        "duration": 0.13958333333333428
    },
    {
        "name": "B3",
        "midi": 59,
        "time": 50.91979166666668,
        "velocity": 0.33070866141732286,
        "duration": 0.1197916666666714
    },
    {
        "name": "C#4",
        "midi": 61,
        "time": 51.039583333333354,
        "velocity": 0.2440944881889764,
        "duration": 0.3604166666666728
    },
    {
        "name": "C#5",
        "midi": 73,
        "time": 51.06041666666669,
        "velocity": 0.1968503937007874,
        "duration": 0.15937500000000426
    },
    {
        "name": "B2",
        "midi": 47,
        "time": 51.16041666666669,
        "velocity": 0.08661417322834646,
        "duration": 0.43958333333333854
    },
    {
        "name": "C#4",
        "midi": 61,
        "time": 51.4197916666667,
        "velocity": 0.29133858267716534,
        "duration": 0.44062499999999716
    },
    {
        "name": "G#5",
        "midi": 80,
        "time": 51.5604166666667,
        "velocity": 0.08661417322834646,
        "duration": 0.1197916666666643
    },
    {
        "name": "A#2",
        "midi": 46,
        "time": 51.880208333333364,
        "velocity": 0.11023622047244094,
        "duration": 0.29999999999999716
    },
    {
        "name": "A5",
        "midi": 81,
        "time": 51.960416666666696,
        "velocity": 0.2677165354330709,
        "duration": 0.17916666666666714
    },
    {
        "name": "A4",
        "midi": 69,
        "time": 52.00000000000003,
        "velocity": 0.13385826771653545,
        "duration": 0.1197916666666643
    },
    {
        "name": "A#4",
        "midi": 70,
        "time": 52.11979166666669,
        "velocity": 0.2677165354330709,
        "duration": 0.20000000000000284
    },
    {
        "name": "A#5",
        "midi": 82,
        "time": 52.13958333333336,
        "velocity": 0.14960629921259844,
        "duration": 0.12083333333333002
    },
    {
        "name": "A#2",
        "midi": 46,
        "time": 52.219791666666694,
        "velocity": 0.08661417322834646,
        "duration": 0.41979166666666146
    },
    {
        "name": "G#6",
        "midi": 92,
        "time": 52.319791666666696,
        "velocity": 0.08661417322834646,
        "duration": 0.16041666666666288
    },
    {
        "name": "A#4",
        "midi": 70,
        "time": 52.40000000000003,
        "velocity": 0.2440944881889764,
        "duration": 0.1197916666666643
    },
    {
        "name": "B4",
        "midi": 71,
        "time": 52.96041666666669,
        "velocity": 0.2047244094488189,
        "duration": 0.1197916666666643
    },
    {
        "name": "G#2",
        "midi": 44,
        "time": 53.36041666666669,
        "velocity": 0.14173228346456693,
        "duration": 0.6593749999999972
    },
    {
        "name": "F#4",
        "midi": 66,
        "time": 53.619791666666686,
        "velocity": 0.10236220472440945,
        "duration": 0.1197916666666643
    },
    {
        "name": "F#4",
        "midi": 66,
        "time": 53.93958333333335,
        "velocity": 0.41732283464566927,
        "duration": 0.3604166666666657
    },
    {
        "name": "F4",
        "midi": 65,
        "time": 54.28020833333335,
        "velocity": 0.10236220472440945,
        "duration": 0.1197916666666714
    },
    {
        "name": "F#4",
        "midi": 66,
        "time": 54.38020833333335,
        "velocity": 0.2204724409448819,
        "duration": 0.1197916666666714
    },
    {
        "name": "F#3",
        "midi": 54,
        "time": 54.38020833333335,
        "velocity": 0.11811023622047244,
        "duration": 0.1197916666666714
    },
    {
        "name": "G#4",
        "midi": 68,
        "time": 54.48020833333335,
        "velocity": 0.23622047244094488,
        "duration": 0.30000000000000426
    },
    {
        "name": "D4",
        "midi": 62,
        "time": 54.91979166666669,
        "velocity": 0.2047244094488189,
        "duration": 0.1197916666666643
    },
    {
        "name": "C#4",
        "midi": 61,
        "time": 55.039583333333354,
        "velocity": 0.18110236220472442,
        "duration": 0.24062500000000142
    },
    {
        "name": "C6",
        "midi": 84,
        "time": 55.40000000000002,
        "velocity": 0.11811023622047244,
        "duration": 0.1197916666666643
    },
    {
        "name": "F4",
        "midi": 65,
        "time": 55.40000000000002,
        "velocity": 0.29133858267716534,
        "duration": 0.1197916666666643
    },
    {
        "name": "C#4",
        "midi": 61,
        "time": 57.73958333333335,
        "velocity": 0.33070866141732286,
        "duration": 0.2604166666666714
    },
    {
        "name": "D5",
        "midi": 74,
        "time": 57.98020833333335,
        "velocity": 0.2204724409448819,
        "duration": 0.1197916666666714
    },
    {
        "name": "D#5",
        "midi": 75,
        "time": 58.039583333333354,
        "velocity": 0.1732283464566929,
        "duration": 0.18020833333333286
    },
    {
        "name": "D#4",
        "midi": 63,
        "time": 58.10000000000002,
        "velocity": 0.3700787401574803,
        "duration": 0.46041666666666003
    },
    {
        "name": "D#5",
        "midi": 75,
        "time": 58.260416666666686,
        "velocity": 0.10236220472440945,
        "duration": 0.1197916666666643
    },
    {
        "name": "D#5",
        "midi": 75,
        "time": 58.46041666666668,
        "velocity": 0.1732283464566929,
        "duration": 0.17916666666666714
    },
    {
        "name": "F4",
        "midi": 65,
        "time": 58.71979166666668,
        "velocity": 0.3464566929133858,
        "duration": 0.18020833333333286
    },
    {
        "name": "E4",
        "midi": 64,
        "time": 58.980208333333344,
        "velocity": 0.3228346456692913,
        "duration": 0.1197916666666714
    },
    {
        "name": "E5",
        "midi": 76,
        "time": 59.000000000000014,
        "velocity": 0.08661417322834646,
        "duration": 0.1197916666666714
    },
    {
        "name": "A#2",
        "midi": 46,
        "time": 59.080208333333346,
        "velocity": 0.12598425196850394,
        "duration": 1.1802083333333542
    },
    {
        "name": "F#4",
        "midi": 66,
        "time": 59.139583333333356,
        "velocity": 0.25196850393700787,
        "duration": 0.16041666666666288
    },
    {
        "name": "F#6",
        "midi": 90,
        "time": 59.260416666666686,
        "velocity": 0.14173228346456693,
        "duration": 0.2593749999999986
    },
    {
        "name": "F#5",
        "midi": 78,
        "time": 59.33958333333335,
        "velocity": 0.11811023622047244,
        "duration": 0.12083333333333002
    },
    {
        "name": "F#4",
        "midi": 66,
        "time": 59.33958333333335,
        "velocity": 0.2440944881889764,
        "duration": 0.12083333333333002
    },
    {
        "name": "F#5",
        "midi": 78,
        "time": 59.500000000000014,
        "velocity": 0.11023622047244094,
        "duration": 0.1197916666666714
    },
    {
        "name": "F#4",
        "midi": 66,
        "time": 59.500000000000014,
        "velocity": 0.3228346456692913,
        "duration": 0.1197916666666714
    },
    {
        "name": "F#6",
        "midi": 90,
        "time": 59.600000000000016,
        "velocity": 0.11023622047244094,
        "duration": 0.1197916666666714
    },
    {
        "name": "F#5",
        "midi": 78,
        "time": 59.680208333333354,
        "velocity": 0.10236220472440945,
        "duration": 0.1197916666666643
    },
    {
        "name": "F#4",
        "midi": 66,
        "time": 59.680208333333354,
        "velocity": 0.33858267716535434,
        "duration": 0.1197916666666643
    },
    {
        "name": "F#4",
        "midi": 66,
        "time": 59.81979166666669,
        "velocity": 0.28346456692913385,
        "duration": 0.30000000000000426
    },
    {
        "name": "F#5",
        "midi": 78,
        "time": 59.83958333333336,
        "velocity": 0.13385826771653545,
        "duration": 0.12083333333333002
    },
    {
        "name": "F#5",
        "midi": 78,
        "time": 59.98020833333336,
        "velocity": 0.16535433070866143,
        "duration": 0.2593750000000057
    },
    {
        "name": "F#4",
        "midi": 66,
        "time": 60.13958333333336,
        "velocity": 0.33858267716535434,
        "duration": 0.24062500000000142
    },
    {
        "name": "F#5",
        "midi": 78,
        "time": 60.30000000000003,
        "velocity": 0.14960629921259844,
        "duration": 0.16041666666666998
    },
    {
        "name": "A#2",
        "midi": 46,
        "time": 60.43958333333337,
        "velocity": 0.08661417322834646,
        "duration": 0.4208333333333343
    },
    {
        "name": "A5",
        "midi": 81,
        "time": 60.500000000000036,
        "velocity": 0.2204724409448819,
        "duration": 0.18020833333333286
    },
    {
        "name": "A4",
        "midi": 69,
        "time": 60.500000000000036,
        "velocity": 0.30708661417322836,
        "duration": 0.18020833333333286
    },
    {
        "name": "F#4",
        "midi": 66,
        "time": 60.7197916666667,
        "velocity": 0.25984251968503935,
        "duration": 0.24062500000000142
    },
    {
        "name": "F4",
        "midi": 65,
        "time": 60.839583333333366,
        "velocity": 0.23622047244094488,
        "duration": 0.12083333333333712
    },
    {
        "name": "F#4",
        "midi": 66,
        "time": 61.28020833333337,
        "velocity": 0.2440944881889764,
        "duration": 0.1197916666666643
    },
    {
        "name": "C#4",
        "midi": 61,
        "time": 61.58020833333337,
        "velocity": 0.1968503937007874,
        "duration": 0.13958333333333428
    },
    {
        "name": "C4",
        "midi": 60,
        "time": 61.88020833333337,
        "velocity": 0.1889763779527559,
        "duration": 0.1197916666666643
    },
    {
        "name": "C#4",
        "midi": 61,
        "time": 61.9604166666667,
        "velocity": 0.15748031496062992,
        "duration": 0.1197916666666643
    },
    {
        "name": "C#4",
        "midi": 61,
        "time": 62.1604166666667,
        "velocity": 0.2047244094488189,
        "duration": 0.27916666666666856
    },
    {
        "name": "D4",
        "midi": 62,
        "time": 62.2604166666667,
        "velocity": 0.25196850393700787,
        "duration": 0.27916666666666856
    },
    {
        "name": "C#4",
        "midi": 61,
        "time": 62.4604166666667,
        "velocity": 0.1968503937007874,
        "duration": 0.1197916666666643
    },
    {
        "name": "B3",
        "midi": 59,
        "time": 62.78020833333337,
        "velocity": 0.25196850393700787,
        "duration": 0.13958333333333428
    },
    {
        "name": "A#3",
        "midi": 58,
        "time": 62.8604166666667,
        "velocity": 0.25984251968503935,
        "duration": 0.17916666666666714
    },
    {
        "name": "B3",
        "midi": 59,
        "time": 62.9604166666667,
        "velocity": 0.2047244094488189,
        "duration": 0.21979166666666572
    },
    {
        "name": "A#3",
        "midi": 58,
        "time": 63.13958333333337,
        "velocity": 0.25196850393700787,
        "duration": 0.32083333333333286
    },
    {
        "name": "F#3",
        "midi": 54,
        "time": 63.58020833333337,
        "velocity": 0.2283464566929134,
        "duration": 0.5802083333333385
    },
    {
        "name": "A#5",
        "midi": 82,
        "time": 67.06041666666671,
        "velocity": 0.29133858267716534,
        "duration": 0.11979166666665719
    },
    {
        "name": "B4",
        "midi": 71,
        "time": 67.08020833333337,
        "velocity": 0.28346456692913385,
        "duration": 0.19999999999998863
    },
    {
        "name": "B5",
        "midi": 83,
        "time": 67.18020833333337,
        "velocity": 0.4409448818897638,
        "duration": 0.2593750000000057
    },
    {
        "name": "B4",
        "midi": 71,
        "time": 67.3197916666667,
        "velocity": 0.12598425196850394,
        "duration": 0.1197916666666714
    },
    {
        "name": "B5",
        "midi": 83,
        "time": 67.4604166666667,
        "velocity": 0.2283464566929134,
        "duration": 0.1197916666666714
    },
    {
        "name": "B4",
        "midi": 71,
        "time": 67.4604166666667,
        "velocity": 0.13385826771653545,
        "duration": 0.1197916666666714
    },
    {
        "name": "B5",
        "midi": 83,
        "time": 67.60000000000004,
        "velocity": 0.2755905511811024,
        "duration": 0.1197916666666714
    },
    {
        "name": "A#4",
        "midi": 70,
        "time": 67.80000000000004,
        "velocity": 0.18110236220472442,
        "duration": 0.1197916666666714
    },
    {
        "name": "B4",
        "midi": 71,
        "time": 67.88020833333337,
        "velocity": 0.33070866141732286,
        "duration": 0.2593749999999915
    },
    {
        "name": "B5",
        "midi": 83,
        "time": 68.00000000000004,
        "velocity": 0.12598425196850394,
        "duration": 0.11979166666665719
    },
    {
        "name": "A#4",
        "midi": 70,
        "time": 68.10000000000004,
        "velocity": 0.36220472440944884,
        "duration": 0.2197916666666515
    },
    {
        "name": "F#2",
        "midi": 42,
        "time": 68.23958333333336,
        "velocity": 0.08661417322834646,
        "duration": 0.2802083333333485
    },
    {
        "name": "B5",
        "midi": 83,
        "time": 68.30000000000003,
        "velocity": 0.1732283464566929,
        "duration": 0.1197916666666714
    },
    {
        "name": "A#4",
        "midi": 70,
        "time": 68.3604166666667,
        "velocity": 0.2125984251968504,
        "duration": 0.1197916666666714
    },
    {
        "name": "B5",
        "midi": 83,
        "time": 68.43958333333336,
        "velocity": 0.18110236220472442,
        "duration": 0.12083333333335133
    },
    {
        "name": "B4",
        "midi": 71,
        "time": 68.43958333333336,
        "velocity": 0.16535433070866143,
        "duration": 0.12083333333335133
    },
    {
        "name": "B5",
        "midi": 83,
        "time": 68.60000000000005,
        "velocity": 0.16535433070866143,
        "duration": 0.1197916666666714
    },
    {
        "name": "B4",
        "midi": 71,
        "time": 68.73958333333339,
        "velocity": 0.2283464566929134,
        "duration": 0.12083333333333712
    },
    {
        "name": "B4",
        "midi": 71,
        "time": 69.01979166666672,
        "velocity": 0.33858267716535434,
        "duration": 0.1197916666666714
    },
    {
        "name": "A#4",
        "midi": 70,
        "time": 69.23958333333339,
        "velocity": 0.4015748031496063,
        "duration": 0.140625
    },
    {
        "name": "B4",
        "midi": 71,
        "time": 69.36041666666672,
        "velocity": 0.31496062992125984,
        "duration": 0.20000000000000284
    },
    {
        "name": "B5",
        "midi": 83,
        "time": 69.43958333333339,
        "velocity": 0.2204724409448819,
        "duration": 0.12083333333333712
    },
    {
        "name": "B4",
        "midi": 71,
        "time": 69.58020833333339,
        "velocity": 0.41732283464566927,
        "duration": 0.3593750000000142
    },
    {
        "name": "B5",
        "midi": 83,
        "time": 69.58020833333339,
        "velocity": 0.1889763779527559,
        "duration": 0.1197916666666714
    },
    {
        "name": "B5",
        "midi": 83,
        "time": 69.7395833333334,
        "velocity": 0.16535433070866143,
        "duration": 0.140625
    },
    {
        "name": "C#5",
        "midi": 73,
        "time": 70.0802083333334,
        "velocity": 0.3464566929133858,
        "duration": 0.1197916666666714
    },
    {
        "name": "C#5",
        "midi": 73,
        "time": 70.21979166666674,
        "velocity": 0.29133858267716534,
        "duration": 0.18020833333332575
    },
    {
        "name": "A#3",
        "midi": 58,
        "time": 70.30000000000007,
        "velocity": 0.11811023622047244,
        "duration": 0.16041666666666288
    },
    {
        "name": "G#6",
        "midi": 92,
        "time": 70.46041666666673,
        "velocity": 0.1732283464566929,
        "duration": 0.1197916666666714
    },
    {
        "name": "C#5",
        "midi": 73,
        "time": 70.46041666666673,
        "velocity": 0.25984251968503935,
        "duration": 0.1197916666666714
    },
    {
        "name": "C#5",
        "midi": 73,
        "time": 70.83958333333341,
        "velocity": 0.25196850393700787,
        "duration": 0.20000000000000284
    },
    {
        "name": "C#5",
        "midi": 73,
        "time": 71.11979166666674,
        "velocity": 0.25196850393700787,
        "duration": 0.18020833333333997
    },
    {
        "name": "G#6",
        "midi": 92,
        "time": 71.11979166666674,
        "velocity": 0.1732283464566929,
        "duration": 0.1197916666666714
    },
    {
        "name": "G#6",
        "midi": 92,
        "time": 71.28020833333342,
        "velocity": 0.2047244094488189,
        "duration": 0.2197916666666515
    },
    {
        "name": "C#5",
        "midi": 73,
        "time": 71.31979166666675,
        "velocity": 0.3228346456692913,
        "duration": 0.16041666666666288
    },
    {
        "name": "C#6",
        "midi": 85,
        "time": 71.53958333333341,
        "velocity": 0.11811023622047244,
        "duration": 0.12083333333333712
    },
    {
        "name": "C#5",
        "midi": 73,
        "time": 71.53958333333341,
        "velocity": 0.2440944881889764,
        "duration": 0.12083333333333712
    },
    {
        "name": "C#5",
        "midi": 73,
        "time": 71.70000000000009,
        "velocity": 0.2125984251968504,
        "duration": 0.1197916666666714
    },
    {
        "name": "C#5",
        "midi": 73,
        "time": 72.01979166666676,
        "velocity": 0.28346456692913385,
        "duration": 0.140625
    },
    {
        "name": "C#5",
        "midi": 73,
        "time": 72.2000000000001,
        "velocity": 0.23622047244094488,
        "duration": 0.1197916666666714
    },
    {
        "name": "F#2",
        "midi": 42,
        "time": 72.28020833333343,
        "velocity": 0.2125984251968504,
        "duration": 0.859375
    },
    {
        "name": "G6",
        "midi": 91,
        "time": 73.28020833333343,
        "velocity": 0.1889763779527559,
        "duration": 0.1197916666666714
    },
    {
        "name": "C6",
        "midi": 84,
        "time": 73.43958333333345,
        "velocity": 0.11811023622047244,
        "duration": 0.140625
    },
    {
        "name": "G6",
        "midi": 91,
        "time": 73.43958333333345,
        "velocity": 0.10236220472440945,
        "duration": 0.12083333333333712
    },
    {
        "name": "C5",
        "midi": 72,
        "time": 73.48020833333345,
        "velocity": 0.2047244094488189,
        "duration": 0.19999999999998863
    },
    {
        "name": "B5",
        "midi": 83,
        "time": 73.78020833333343,
        "velocity": 0.1889763779527559,
        "duration": 0.15937499999999716
    },
    {
        "name": "F2",
        "midi": 41,
        "time": 74.31979166666676,
        "velocity": 0.13385826771653545,
        "duration": 0.4000000000000199
    },
    {
        "name": "G5",
        "midi": 79,
        "time": 74.36041666666677,
        "velocity": 0.23622047244094488,
        "duration": 0.13958333333333428
    },
    {
        "name": "G4",
        "midi": 67,
        "time": 74.36041666666677,
        "velocity": 0.16535433070866143,
        "duration": 0.1197916666666714
    },
    {
        "name": "G#5",
        "midi": 80,
        "time": 74.56041666666677,
        "velocity": 0.25196850393700787,
        "duration": 0.1197916666666714
    },
    {
        "name": "A5",
        "midi": 81,
        "time": 74.78020833333345,
        "velocity": 0.2755905511811024,
        "duration": 0.1197916666666714
    },
    {
        "name": "G#5",
        "midi": 80,
        "time": 74.86041666666678,
        "velocity": 0.2047244094488189,
        "duration": 0.11979166666668561
    },
    {
        "name": "A5",
        "midi": 81,
        "time": 74.93958333333346,
        "velocity": 0.2283464566929134,
        "duration": 0.12083333333335133
    },
    {
        "name": "G#5",
        "midi": 80,
        "time": 75.0197916666668,
        "velocity": 0.25196850393700787,
        "duration": 0.1604166666666771
    },
    {
        "name": "A#4",
        "midi": 70,
        "time": 75.51979166666682,
        "velocity": 0.5196850393700787,
        "duration": 0.29999999999999716
    },
    {
        "name": "A#4",
        "midi": 70,
        "time": 75.83958333333348,
        "velocity": 0.5354330708661418,
        "duration": 0.140625
    },
    {
        "name": "B4",
        "midi": 71,
        "time": 75.96041666666682,
        "velocity": 0.4251968503937008,
        "duration": 0.5
    },
    {
        "name": "B5",
        "midi": 83,
        "time": 75.96041666666682,
        "velocity": 0.2204724409448819,
        "duration": 0.13958333333333428
    },
    {
        "name": "A#4",
        "midi": 70,
        "time": 76.06041666666681,
        "velocity": 0.33858267716535434,
        "duration": 0.1197916666666714
    },
    {
        "name": "B5",
        "midi": 83,
        "time": 76.16041666666682,
        "velocity": 0.1968503937007874,
        "duration": 0.20000000000000284
    },
    {
        "name": "D#2",
        "midi": 39,
        "time": 76.30000000000015,
        "velocity": 0.1732283464566929,
        "duration": 0.41979166666665435
    },
    {
        "name": "A#4",
        "midi": 70,
        "time": 76.43958333333349,
        "velocity": 0.4881889763779528,
        "duration": 0.12083333333332291
    },
    {
        "name": "B4",
        "midi": 71,
        "time": 76.56041666666681,
        "velocity": 0.31496062992125984,
        "duration": 0.3791666666666629
    },
    {
        "name": "B5",
        "midi": 83,
        "time": 76.56041666666681,
        "velocity": 0.15748031496062992,
        "duration": 0.13958333333333428
    },
    {
        "name": "C6",
        "midi": 84,
        "time": 76.70000000000014,
        "velocity": 0.2755905511811024,
        "duration": 0.6395833333333201
    },
    {
        "name": "D#2",
        "midi": 39,
        "time": 76.91979166666681,
        "velocity": 0.11811023622047244,
        "duration": 0.19999999999998863
    },
    {
        "name": "B4",
        "midi": 71,
        "time": 76.9604166666668,
        "velocity": 0.25196850393700787,
        "duration": 0.41979166666666856
    },
    {
        "name": "D#2",
        "midi": 39,
        "time": 77.13958333333346,
        "velocity": 0.10236220472440945,
        "duration": 0.12083333333333712
    },
    {
        "name": "B5",
        "midi": 83,
        "time": 77.56041666666681,
        "velocity": 0.30708661417322836,
        "duration": 0.15937499999999716
    },
    {
        "name": "B5",
        "midi": 83,
        "time": 77.91979166666681,
        "velocity": 0.2440944881889764,
        "duration": 0.140625
    },
    {
        "name": "B5",
        "midi": 83,
        "time": 78.08020833333347,
        "velocity": 0.2755905511811024,
        "duration": 0.1197916666666714
    },
    {
        "name": "C6",
        "midi": 84,
        "time": 78.31979166666682,
        "velocity": 0.23622047244094488,
        "duration": 0.11979166666665719
    },
    {
        "name": "B5",
        "midi": 83,
        "time": 78.41979166666681,
        "velocity": 0.3700787401574803,
        "duration": 0.41979166666666856
    },
    {
        "name": "F4",
        "midi": 65,
        "time": 79.43958333333347,
        "velocity": 0.18110236220472442,
        "duration": 0.12083333333333712
    },
    {
        "name": "D3",
        "midi": 50,
        "time": 79.58020833333347,
        "velocity": 0.18110236220472442,
        "duration": 0.5197916666666771
    },
    {
        "name": "B4",
        "midi": 71,
        "time": 79.73958333333347,
        "velocity": 0.29133858267716534,
        "duration": 0.12083333333333712
    },
    {
        "name": "C#6",
        "midi": 85,
        "time": 79.98020833333348,
        "velocity": 0.14960629921259844,
        "duration": 0.1197916666666714
    },
    {
        "name": "C#5",
        "midi": 73,
        "time": 79.98020833333348,
        "velocity": 0.3700787401574803,
        "duration": 0.1197916666666714
    },
    {
        "name": "C#5",
        "midi": 73,
        "time": 80.28020833333349,
        "velocity": 0.4330708661417323,
        "duration": 0.1197916666666714
    },
    {
        "name": "D#2",
        "midi": 39,
        "time": 80.6802083333335,
        "velocity": 0.1732283464566929,
        "duration": 0.2802083333333485
    },
    {
        "name": "A#4",
        "midi": 70,
        "time": 80.86041666666684,
        "velocity": 0.33858267716535434,
        "duration": 0.2593750000000199
    },
    {
        "name": "D#3",
        "midi": 51,
        "time": 80.91979166666684,
        "velocity": 0.11023622047244094,
        "duration": 0.1604166666666771
    },
    {
        "name": "D#2",
        "midi": 39,
        "time": 81.00000000000018,
        "velocity": 0.1732283464566929,
        "duration": 1.18020833333334
    },
    {
        "name": "A#4",
        "midi": 70,
        "time": 81.18020833333352,
        "velocity": 0.28346456692913385,
        "duration": 0.4593749999999943
    },
    {
        "name": "A#5",
        "midi": 82,
        "time": 81.40000000000019,
        "velocity": 0.14960629921259844,
        "duration": 0.21979166666666572
    },
    {
        "name": "G#4",
        "midi": 68,
        "time": 81.66041666666685,
        "velocity": 0.2283464566929134,
        "duration": 0.1197916666666714
    },
    {
        "name": "A4",
        "midi": 69,
        "time": 82.21979166666686,
        "velocity": 0.1968503937007874,
        "duration": 0.19999999999998863
    },
    {
        "name": "E6",
        "midi": 88,
        "time": 82.21979166666686,
        "velocity": 0.1732283464566929,
        "duration": 0.18020833333332575
    },
    {
        "name": "F2",
        "midi": 41,
        "time": 82.23958333333353,
        "velocity": 0.13385826771653545,
        "duration": 0.44062499999998295
    },
    {
        "name": "G#4",
        "midi": 68,
        "time": 82.43958333333352,
        "velocity": 0.2440944881889764,
        "duration": 0.24062499999999432
    },
    {
        "name": "F#5",
        "midi": 78,
        "time": 82.70000000000017,
        "velocity": 0.1889763779527559,
        "duration": 0.20000000000001705
    },
    {
        "name": "F#4",
        "midi": 66,
        "time": 82.70000000000017,
        "velocity": 0.15748031496062992,
        "duration": 0.1604166666666771
    },
    {
        "name": "F#2",
        "midi": 42,
        "time": 82.73958333333351,
        "velocity": 0.13385826771653545,
        "duration": 0.48020833333335133
    },
    {
        "name": "F#5",
        "midi": 78,
        "time": 82.91979166666685,
        "velocity": 0.2125984251968504,
        "duration": 0.2604166666666714
    },
    {
        "name": "F#5",
        "midi": 78,
        "time": 83.21979166666686,
        "velocity": 0.15748031496062992,
        "duration": 0.3604166666666657
    },
    {
        "name": "F#4",
        "midi": 66,
        "time": 83.51979166666686,
        "velocity": 0.2125984251968504,
        "duration": 0.1197916666666714
    },
    {
        "name": "E4",
        "midi": 64,
        "time": 83.78020833333353,
        "velocity": 0.44881889763779526,
        "duration": 0.11979166666665719
    },
    {
        "name": "F4",
        "midi": 65,
        "time": 83.88020833333353,
        "velocity": 0.15748031496062992,
        "duration": 0.11979166666665719
    },
    {
        "name": "F5",
        "midi": 77,
        "time": 83.91979166666685,
        "velocity": 0.12598425196850394,
        "duration": 0.1197916666666714
    },
    {
        "name": "D#4",
        "midi": 63,
        "time": 84.08020833333353,
        "velocity": 0.1968503937007874,
        "duration": 0.1197916666666714
    },
    {
        "name": "C#4",
        "midi": 61,
        "time": 84.51979166666686,
        "velocity": 0.12598425196850394,
        "duration": 0.140625
    },
    {
        "name": "D4",
        "midi": 62,
        "time": 84.8000000000002,
        "velocity": 0.1968503937007874,
        "duration": 0.2802083333333343
    },
    {
        "name": "C#4",
        "midi": 61,
        "time": 84.86041666666686,
        "velocity": 0.16535433070866143,
        "duration": 0.1197916666666714
    },
    {
        "name": "A3",
        "midi": 57,
        "time": 85.68020833333352,
        "velocity": 0.10236220472440945,
        "duration": 0.1197916666666714
    },
    {
        "name": "B5",
        "midi": 83,
        "time": 85.96041666666686,
        "velocity": 0.11811023622047244,
        "duration": 0.11979166666665719
    },
    {
        "name": "E4",
        "midi": 64,
        "time": 85.96041666666686,
        "velocity": 0.16535433070866143,
        "duration": 0.11979166666665719
    },
    {
        "name": "D#4",
        "midi": 63,
        "time": 86.06041666666685,
        "velocity": 0.10236220472440945,
        "duration": 0.13958333333333428
    },
    {
        "name": "D2",
        "midi": 38,
        "time": 86.30000000000018,
        "velocity": 0.12598425196850394,
        "duration": 0.4000000000000057
    },
    {
        "name": "F#4",
        "midi": 66,
        "time": 86.56041666666685,
        "velocity": 0.14173228346456693,
        "duration": 0.1197916666666714
    },
    {
        "name": "F#5",
        "midi": 78,
        "time": 86.68020833333352,
        "velocity": 0.1968503937007874,
        "duration": 0.13958333333332007
    },
    {
        "name": "F#6",
        "midi": 90,
        "time": 86.68020833333352,
        "velocity": 0.08661417322834646,
        "duration": 0.11979166666665719
    },
    {
        "name": "F#4",
        "midi": 66,
        "time": 86.76041666666686,
        "velocity": 0.1889763779527559,
        "duration": 0.3395833333333087
    },
    {
        "name": "D#4",
        "midi": 63,
        "time": 86.78020833333352,
        "velocity": 0.11811023622047244,
        "duration": 0.15937499999998295
    },
    {
        "name": "D#2",
        "midi": 39,
        "time": 86.83958333333351,
        "velocity": 0.25196850393700787,
        "duration": 1.2208333333333314
    },
    {
        "name": "F#6",
        "midi": 90,
        "time": 86.86041666666684,
        "velocity": 0.11023622047244094,
        "duration": 0.29999999999999716
    },
    {
        "name": "D4",
        "midi": 62,
        "time": 87.60000000000016,
        "velocity": 0.23622047244094488,
        "duration": 0.1197916666666714
    },
    {
        "name": "C#6",
        "midi": 85,
        "time": 88.53958333333351,
        "velocity": 0.09448818897637795,
        "duration": 0.140625
    },
    {
        "name": "C5",
        "midi": 72,
        "time": 89.16041666666685,
        "velocity": 0.15748031496062992,
        "duration": 0.15937499999999716
    },
    {
        "name": "C#5",
        "midi": 73,
        "time": 89.96041666666684,
        "velocity": 0.1968503937007874,
        "duration": 0.2395833333333286
    },
    {
        "name": "G#6",
        "midi": 92,
        "time": 90.10000000000018,
        "velocity": 0.16535433070866143,
        "duration": 0.11979166666665719
    },
    {
        "name": "G#6",
        "midi": 92,
        "time": 90.2395833333335,
        "velocity": 0.1732283464566929,
        "duration": 0.4208333333333343
    },
    {
        "name": "C#5",
        "midi": 73,
        "time": 90.41979166666684,
        "velocity": 0.12598425196850394,
        "duration": 0.1197916666666714
    },
    {
        "name": "C#5",
        "midi": 73,
        "time": 90.6395833333335,
        "velocity": 0.12598425196850394,
        "duration": 0.140625
    },
    {
        "name": "G#6",
        "midi": 92,
        "time": 90.80000000000017,
        "velocity": 0.1889763779527559,
        "duration": 0.2802083333333343
    },
    {
        "name": "C#5",
        "midi": 73,
        "time": 90.83958333333351,
        "velocity": 0.14960629921259844,
        "duration": 0.12083333333333712
    },
    {
        "name": "C#5",
        "midi": 73,
        "time": 90.98020833333351,
        "velocity": 0.13385826771653545,
        "duration": 0.11979166666665719
    },
    {
        "name": "C#5",
        "midi": 73,
        "time": 91.46041666666683,
        "velocity": 0.1968503937007874,
        "duration": 0.1197916666666714
    },
    {
        "name": "C#5",
        "midi": 73,
        "time": 91.6395833333335,
        "velocity": 0.13385826771653545,
        "duration": 0.12083333333333712
    },
    {
        "name": "G#6",
        "midi": 92,
        "time": 91.88020833333351,
        "velocity": 0.1889763779527559,
        "duration": 0.1197916666666714
    },
    {
        "name": "C#5",
        "midi": 73,
        "time": 92.31979166666684,
        "velocity": 0.2047244094488189,
        "duration": 0.1197916666666714
    },
    {
        "name": "C#5",
        "midi": 73,
        "time": 92.48020833333352,
        "velocity": 0.2204724409448819,
        "duration": 0.13958333333333428
    },
    {
        "name": "C#5",
        "midi": 73,
        "time": 92.66041666666686,
        "velocity": 0.2440944881889764,
        "duration": 0.1197916666666714
    },
    {
        "name": "C#5",
        "midi": 73,
        "time": 92.81979166666687,
        "velocity": 0.2283464566929134,
        "duration": 0.1197916666666714
    },
    {
        "name": "C#5",
        "midi": 73,
        "time": 93.00000000000021,
        "velocity": 0.25196850393700787,
        "duration": 0.1197916666666714
    },
    {
        "name": "C#5",
        "midi": 73,
        "time": 93.31979166666689,
        "velocity": 0.2677165354330709,
        "duration": 0.1197916666666714
    },
    {
        "name": "C#5",
        "midi": 73,
        "time": 93.50000000000023,
        "velocity": 0.2204724409448819,
        "duration": 0.1197916666666714
    },
    {
        "name": "C#5",
        "midi": 73,
        "time": 93.6604166666669,
        "velocity": 0.2047244094488189,
        "duration": 0.1197916666666714
    },
    {
        "name": "C#5",
        "midi": 73,
        "time": 93.83958333333358,
        "velocity": 0.2204724409448819,
        "duration": 0.12083333333333712
    },
    {
        "name": "C#5",
        "midi": 73,
        "time": 94.01979166666692,
        "velocity": 0.18110236220472442,
        "duration": 0.1197916666666714
    },
    {
        "name": "C#5",
        "midi": 73,
        "time": 94.1802083333336,
        "velocity": 0.23622047244094488,
        "duration": 0.20000000000000284
    },
    {
        "name": "D5",
        "midi": 74,
        "time": 94.8802083333336,
        "velocity": 0.2755905511811024,
        "duration": 0.18020833333333997
    },
    {
        "name": "D6",
        "midi": 86,
        "time": 94.91979166666694,
        "velocity": 0.1732283464566929,
        "duration": 0.140625
    },
    {
        "name": "D#5",
        "midi": 75,
        "time": 95.06041666666694,
        "velocity": 0.2992125984251969,
        "duration": 0.2593750000000057
    },
    {
        "name": "D#5",
        "midi": 75,
        "time": 96.21979166666695,
        "velocity": 0.2283464566929134,
        "duration": 0.7999999999999972
    },
    {
        "name": "F#4",
        "midi": 66,
        "time": 97.40000000000028,
        "velocity": 0.3779527559055118,
        "duration": 0.18020833333332575
    },
    {
        "name": "F#5",
        "midi": 78,
        "time": 97.48020833333361,
        "velocity": 0.3228346456692913,
        "duration": 0.2395833333333286
    },
    {
        "name": "F#2",
        "midi": 42,
        "time": 97.60000000000026,
        "velocity": 0.16535433070866143,
        "duration": 0.4802083333333371
    },
    {
        "name": "F#4",
        "midi": 66,
        "time": 98.26041666666694,
        "velocity": 0.2283464566929134,
        "duration": 0.20000000000000284
    },
    {
        "name": "C#5",
        "midi": 73,
        "time": 98.80000000000028,
        "velocity": 0.23622047244094488,
        "duration": 0.31979166666667425
    },
    {
        "name": "G#6",
        "midi": 92,
        "time": 98.80000000000028,
        "velocity": 0.14173228346456693,
        "duration": 0.11979166666665719
    },
    {
        "name": "D6",
        "midi": 86,
        "time": 98.90000000000028,
        "velocity": 0.2204724409448819,
        "duration": 0.18020833333333997
    },
    {
        "name": "G#6",
        "midi": 92,
        "time": 99.03958333333361,
        "velocity": 0.2047244094488189,
        "duration": 0.12083333333335133
    },
    {
        "name": "F#3",
        "midi": 54,
        "time": 99.68020833333362,
        "velocity": 0.16535433070866143,
        "duration": 0.5593749999999886
    },
    {
        "name": "F4",
        "midi": 65,
        "time": 99.68020833333362,
        "velocity": 0.13385826771653545,
        "duration": 0.1197916666666714
    },
    {
        "name": "A#3",
        "midi": 58,
        "time": 99.71979166666696,
        "velocity": 0.11023622047244094,
        "duration": 0.19999999999998863
    },
    {
        "name": "G4",
        "midi": 67,
        "time": 99.81979166666696,
        "velocity": 0.2755905511811024,
        "duration": 0.2604166666666572
    },
    {
        "name": "A#2",
        "midi": 46,
        "time": 100.16041666666695,
        "velocity": 0.2204724409448819,
        "duration": 0.5791666666666515
    },
    {
        "name": "F4",
        "midi": 65,
        "time": 100.16041666666695,
        "velocity": 0.28346456692913385,
        "duration": 0.21979166666666572
    },
    {
        "name": "F6",
        "midi": 89,
        "time": 100.21979166666695,
        "velocity": 0.10236220472440945,
        "duration": 0.140625
    },
    {
        "name": "F#3",
        "midi": 54,
        "time": 100.68020833333361,
        "velocity": 0.14960629921259844,
        "duration": 0.5197916666666487
    },
    {
        "name": "D#4",
        "midi": 63,
        "time": 100.70000000000027,
        "velocity": 0.2677165354330709,
        "duration": 0.3395833333333229
    },
    {
        "name": "B2",
        "midi": 47,
        "time": 100.71979166666694,
        "velocity": 0.16535433070866143,
        "duration": 0.7999999999999972
    },
    {
        "name": "F#3",
        "midi": 54,
        "time": 101.2395833333336,
        "velocity": 0.08661417322834646,
        "duration": 0.12083333333333712
    },
    {
        "name": "D#5",
        "midi": 75,
        "time": 101.5395833333336,
        "velocity": 0.33858267716535434,
        "duration": 0.12083333333333712
    },
    {
        "name": "D#4",
        "midi": 63,
        "time": 101.71979166666694,
        "velocity": 0.11811023622047244,
        "duration": 0.1197916666666714
    },
    {
        "name": "F#3",
        "midi": 54,
        "time": 101.80000000000027,
        "velocity": 0.10236220472440945,
        "duration": 0.2604166666666714
    },
    {
        "name": "B5",
        "midi": 83,
        "time": 101.86041666666694,
        "velocity": 0.4094488188976378,
        "duration": 0.31979166666667425
    },
    {
        "name": "B4",
        "midi": 71,
        "time": 101.8802083333336,
        "velocity": 0.14173228346456693,
        "duration": 0.1197916666666714
    },
    {
        "name": "F#3",
        "midi": 54,
        "time": 102.11979166666694,
        "velocity": 0.11023622047244094,
        "duration": 0.20000000000000284
    },
    {
        "name": "D#4",
        "midi": 63,
        "time": 102.31979166666694,
        "velocity": 0.2677165354330709,
        "duration": 0.5604166666666544
    },
    {
        "name": "D#5",
        "midi": 75,
        "time": 102.40000000000028,
        "velocity": 0.2125984251968504,
        "duration": 0.21979166666666572
    },
    {
        "name": "B2",
        "midi": 47,
        "time": 102.40000000000028,
        "velocity": 0.10236220472440945,
        "duration": 0.20000000000000284
    },
    {
        "name": "A#2",
        "midi": 46,
        "time": 102.71979166666694,
        "velocity": 0.14173228346456693,
        "duration": 0.6604166666666629
    },
    {
        "name": "D#2",
        "midi": 39,
        "time": 103.16041666666693,
        "velocity": 0.1889763779527559,
        "duration": 0.4593749999999943
    },
    {
        "name": "G5",
        "midi": 79,
        "time": 103.60000000000026,
        "velocity": 0.25196850393700787,
        "duration": 0.11979166666665719
    },
    {
        "name": "G#2",
        "midi": 44,
        "time": 103.71979166666692,
        "velocity": 0.10236220472440945,
        "duration": 0.8604166666666515
    },
    {
        "name": "G#5",
        "midi": 80,
        "time": 103.71979166666692,
        "velocity": 0.28346456692913385,
        "duration": 0.140625
    },
    {
        "name": "A5",
        "midi": 81,
        "time": 103.86041666666692,
        "velocity": 0.29133858267716534,
        "duration": 0.27916666666666856
    },
    {
        "name": "A4",
        "midi": 69,
        "time": 103.88020833333358,
        "velocity": 0.2283464566929134,
        "duration": 0.21979166666666572
    },
    {
        "name": "A#5",
        "midi": 82,
        "time": 104.10000000000025,
        "velocity": 0.29133858267716534,
        "duration": 0.29999999999999716
    },
    {
        "name": "A#4",
        "midi": 70,
        "time": 104.16041666666692,
        "velocity": 0.11811023622047244,
        "duration": 0.1197916666666714
    },
    {
        "name": "A#4",
        "midi": 70,
        "time": 104.30000000000025,
        "velocity": 0.16535433070866143,
        "duration": 0.11979166666665719
    },
    {
        "name": "A#4",
        "midi": 70,
        "time": 104.60000000000024,
        "velocity": 0.2755905511811024,
        "duration": 0.11979166666665719
    },
    {
        "name": "A#5",
        "midi": 82,
        "time": 104.6197916666669,
        "velocity": 0.11811023622047244,
        "duration": 0.11979166666665719
    },
    {
        "name": "B4",
        "midi": 71,
        "time": 104.7197916666669,
        "velocity": 0.2755905511811024,
        "duration": 0.19999999999998863
    },
    {
        "name": "B5",
        "midi": 83,
        "time": 104.7197916666669,
        "velocity": 0.14173228346456693,
        "duration": 0.11979166666665719
    },
    {
        "name": "A#2",
        "midi": 46,
        "time": 105.00000000000021,
        "velocity": 0.14173228346456693,
        "duration": 0.4000000000000057
    },
    {
        "name": "A#4",
        "midi": 70,
        "time": 105.11979166666688,
        "velocity": 0.14960629921259844,
        "duration": 0.1197916666666714
    },
    {
        "name": "B5",
        "midi": 83,
        "time": 105.18020833333355,
        "velocity": 0.13385826771653545,
        "duration": 0.13958333333333428
    },
    {
        "name": "G#4",
        "midi": 68,
        "time": 105.48020833333355,
        "velocity": 0.25984251968503935,
        "duration": 0.3999999999999915
    },
    {
        "name": "G#5",
        "midi": 80,
        "time": 105.50000000000021,
        "velocity": 0.2992125984251969,
        "duration": 0.3802083333333286
    },
    {
        "name": "F#4",
        "midi": 66,
        "time": 105.9000000000002,
        "velocity": 0.25984251968503935,
        "duration": 0.2802083333333343
    },
    {
        "name": "D#4",
        "midi": 63,
        "time": 105.91979166666687,
        "velocity": 0.11023622047244094,
        "duration": 0.18020833333333997
    },
    {
        "name": "F#5",
        "midi": 78,
        "time": 106.06041666666687,
        "velocity": 0.1889763779527559,
        "duration": 0.13958333333333428
    },
    {
        "name": "F4",
        "midi": 65,
        "time": 106.38020833333354,
        "velocity": 0.25984251968503935,
        "duration": 0.1197916666666714
    },
    {
        "name": "F#4",
        "midi": 66,
        "time": 106.71979166666688,
        "velocity": 0.1968503937007874,
        "duration": 0.11979166666665719
    },
    {
        "name": "F#5",
        "midi": 78,
        "time": 106.73958333333354,
        "velocity": 0.14960629921259844,
        "duration": 0.12083333333332291
    },
    {
        "name": "F#4",
        "midi": 66,
        "time": 106.86041666666686,
        "velocity": 0.1889763779527559,
        "duration": 0.30000000000001137
    },
    {
        "name": "F#5",
        "midi": 78,
        "time": 106.88020833333353,
        "velocity": 0.18110236220472442,
        "duration": 0.1197916666666714
    },
    {
        "name": "F#5",
        "midi": 78,
        "time": 107.03958333333354,
        "velocity": 0.1732283464566929,
        "duration": 0.12083333333333712
    },
    {
        "name": "F#5",
        "midi": 78,
        "time": 107.20000000000022,
        "velocity": 0.1889763779527559,
        "duration": 0.1197916666666714
    },
    {
        "name": "F#5",
        "midi": 78,
        "time": 107.38020833333356,
        "velocity": 0.14173228346456693,
        "duration": 0.1197916666666714
    },
    {
        "name": "F#4",
        "midi": 66,
        "time": 107.38020833333356,
        "velocity": 0.29133858267716534,
        "duration": 0.1197916666666714
    },
    {
        "name": "F#5",
        "midi": 78,
        "time": 107.5604166666669,
        "velocity": 0.11023622047244094,
        "duration": 0.1197916666666714
    },
    {
        "name": "F#4",
        "midi": 66,
        "time": 107.5604166666669,
        "velocity": 0.31496062992125984,
        "duration": 0.1197916666666714
    },
    {
        "name": "F#4",
        "midi": 66,
        "time": 107.71979166666691,
        "velocity": 0.2677165354330709,
        "duration": 0.31979166666666003
    },
    {
        "name": "D4",
        "midi": 62,
        "time": 108.08020833333357,
        "velocity": 0.1732283464566929,
        "duration": 0.15937499999999716
    },
    {
        "name": "E4",
        "midi": 64,
        "time": 108.30000000000024,
        "velocity": 0.25196850393700787,
        "duration": 0.1197916666666714
    },
    {
        "name": "F4",
        "midi": 65,
        "time": 108.41979166666691,
        "velocity": 0.29133858267716534,
        "duration": 0.140625
    },
    {
        "name": "A#3",
        "midi": 58,
        "time": 108.83958333333358,
        "velocity": 0.1732283464566929,
        "duration": 0.12083333333333712
    },
    {
        "name": "D4",
        "midi": 62,
        "time": 109.43958333333359,
        "velocity": 0.13385826771653545,
        "duration": 0.140625
    },
    {
        "name": "A#5",
        "midi": 82,
        "time": 111.58020833333359,
        "velocity": 0.08661417322834646,
        "duration": 0.3395833333333371
    },
    {
        "name": "A#5",
        "midi": 82,
        "time": 112.58020833333359,
        "velocity": 0.07874015748031496,
        "duration": 0.20000000000000284
    },
    {
        "name": "G#5",
        "midi": 80,
        "time": 112.76041666666693,
        "velocity": 0.06299212598425197,
        "duration": 0.15937499999999716
    },
    {
        "name": "G5",
        "midi": 79,
        "time": 112.90000000000026,
        "velocity": 0.09448818897637795,
        "duration": 0.11979166666665719
    },
    {
        "name": "F5",
        "midi": 77,
        "time": 113.80000000000025,
        "velocity": 0.06299212598425197,
        "duration": 0.1197916666666714
    },
    {
        "name": "B3",
        "midi": 59,
        "time": 115.06041666666692,
        "velocity": 0.28346456692913385,
        "duration": 0.2593750000000057
    },
    {
        "name": "C5",
        "midi": 72,
        "time": 115.28020833333359,
        "velocity": 0.14960629921259844,
        "duration": 0.1197916666666714
    },
    {
        "name": "C4",
        "midi": 60,
        "time": 115.28020833333359,
        "velocity": 0.13385826771653545,
        "duration": 0.1197916666666714
    },
    {
        "name": "C#4",
        "midi": 61,
        "time": 115.3395833333336,
        "velocity": 0.2047244094488189,
        "duration": 0.3604166666666657
    },
    {
        "name": "C#5",
        "midi": 73,
        "time": 115.36041666666692,
        "velocity": 0.11023622047244094,
        "duration": 0.2593750000000057
    },
    {
        "name": "G#5",
        "midi": 80,
        "time": 115.36041666666692,
        "velocity": 0.07874015748031496,
        "duration": 0.2395833333333428
    },
    {
        "name": "C#4",
        "midi": 61,
        "time": 115.71979166666692,
        "velocity": 0.1889763779527559,
        "duration": 0.24062499999999432
    },
    {
        "name": "G#5",
        "midi": 80,
        "time": 115.86041666666692,
        "velocity": 0.14960629921259844,
        "duration": 0.11979166666665719
    },
    {
        "name": "C#4",
        "midi": 61,
        "time": 116.06041666666691,
        "velocity": 0.2440944881889764,
        "duration": 0.27916666666666856
    },
    {
        "name": "C6",
        "midi": 84,
        "time": 116.41979166666691,
        "velocity": 0.16535433070866143,
        "duration": 0.11979166666665719
    },
    {
        "name": "F4",
        "midi": 65,
        "time": 116.41979166666691,
        "velocity": 0.15748031496062992,
        "duration": 0.11979166666665719
    },
    {
        "name": "A#2",
        "midi": 46,
        "time": 116.43958333333357,
        "velocity": 0.14173228346456693,
        "duration": 1.2208333333333456
    },
    {
        "name": "F#6",
        "midi": 90,
        "time": 116.53958333333357,
        "velocity": 0.14960629921259844,
        "duration": 0.5604166666666686
    },
    {
        "name": "F#4",
        "midi": 66,
        "time": 116.53958333333357,
        "velocity": 0.2992125984251969,
        "duration": 0.5604166666666686
    },
    {
        "name": "F#4",
        "midi": 66,
        "time": 117.13958333333358,
        "velocity": 0.29133858267716534,
        "duration": 0.140625
    },
    {
        "name": "C#6",
        "midi": 85,
        "time": 117.1604166666669,
        "velocity": 0.10236220472440945,
        "duration": 0.1197916666666714
    },
    {
        "name": "F#4",
        "midi": 66,
        "time": 117.31979166666692,
        "velocity": 0.33070866141732286,
        "duration": 0.41979166666666856
    },
    {
        "name": "F#6",
        "midi": 90,
        "time": 117.58020833333359,
        "velocity": 0.11023622047244094,
        "duration": 0.13958333333333428
    },
    {
        "name": "G#5",
        "midi": 80,
        "time": 117.81979166666692,
        "velocity": 0.15748031496062992,
        "duration": 0.1197916666666714
    },
    {
        "name": "A4",
        "midi": 69,
        "time": 117.90000000000025,
        "velocity": 0.2440944881889764,
        "duration": 0.20000000000000284
    },
    {
        "name": "G#2",
        "midi": 44,
        "time": 118.00000000000026,
        "velocity": 0.1732283464566929,
        "duration": 0.5604166666666544
    },
    {
        "name": "A5",
        "midi": 81,
        "time": 118.41979166666691,
        "velocity": 0.18110236220472442,
        "duration": 0.1197916666666714
    },
    {
        "name": "A4",
        "midi": 69,
        "time": 118.41979166666691,
        "velocity": 0.2677165354330709,
        "duration": 0.1197916666666714
    },
    {
        "name": "A#5",
        "midi": 82,
        "time": 118.53958333333358,
        "velocity": 0.1968503937007874,
        "duration": 0.2604166666666572
    },
    {
        "name": "A#4",
        "midi": 70,
        "time": 118.53958333333358,
        "velocity": 0.29133858267716534,
        "duration": 0.24062499999999432
    },
    {
        "name": "C5",
        "midi": 72,
        "time": 118.88020833333357,
        "velocity": 0.16535433070866143,
        "duration": 0.1197916666666714
    },
    {
        "name": "B4",
        "midi": 71,
        "time": 119.00000000000024,
        "velocity": 0.1968503937007874,
        "duration": 0.3999999999999915
    },
    {
        "name": "B5",
        "midi": 83,
        "time": 119.0197916666669,
        "velocity": 0.2125984251968504,
        "duration": 0.41979166666666856
    },
    {
        "name": "C#5",
        "midi": 73,
        "time": 119.56041666666691,
        "velocity": 0.1968503937007874,
        "duration": 0.17916666666667425
    },
    {
        "name": "C#6",
        "midi": 85,
        "time": 119.56041666666691,
        "velocity": 0.16535433070866143,
        "duration": 0.1197916666666714
    },
    {
        "name": "E2",
        "midi": 40,
        "time": 119.71979166666692,
        "velocity": 0.14960629921259844,
        "duration": 0.6999999999999886
    },
    {
        "name": "C#5",
        "midi": 73,
        "time": 119.76041666666691,
        "velocity": 0.4645669291338583,
        "duration": 0.5197916666666629
    },
    {
        "name": "C#5",
        "midi": 73,
        "time": 120.30000000000024,
        "velocity": 0.44881889763779526,
        "duration": 0.7395833333333428
    },
    {
        "name": "C#5",
        "midi": 73,
        "time": 121.08020833333359,
        "velocity": 0.3464566929133858,
        "duration": 0.13958333333333428
    },
    {
        "name": "C#5",
        "midi": 73,
        "time": 121.26041666666693,
        "velocity": 0.2992125984251969,
        "duration": 0.13958333333333428
    },
    {
        "name": "C#5",
        "midi": 73,
        "time": 121.4395833333336,
        "velocity": 0.49606299212598426,
        "duration": 0.3802083333333286
    },
    {
        "name": "B4",
        "midi": 71,
        "time": 121.90000000000026,
        "velocity": 0.31496062992125984,
        "duration": 0.13958333333333428
    },
    {
        "name": "C#5",
        "midi": 73,
        "time": 122.0395833333336,
        "velocity": 0.3700787401574803,
        "duration": 0.12083333333333712
    },
    {
        "name": "E5",
        "midi": 76,
        "time": 122.20000000000027,
        "velocity": 0.2677165354330709,
        "duration": 0.1197916666666714
    },
    {
        "name": "F#5",
        "midi": 78,
        "time": 122.31979166666694,
        "velocity": 0.2992125984251969,
        "duration": 0.18020833333333997
    },
    {
        "name": "F#5",
        "midi": 78,
        "time": 122.53958333333362,
        "velocity": 0.30708661417322836,
        "duration": 0.29999999999999716
    },
    {
        "name": "B5",
        "midi": 83,
        "time": 123.68020833333362,
        "velocity": 0.33070866141732286,
        "duration": 0.1197916666666714
    },
    {
        "name": "F#4",
        "midi": 66,
        "time": 123.81979166666696,
        "velocity": 0.15748031496062992,
        "duration": 0.11979166666665719
    },
    {
        "name": "D#2",
        "midi": 39,
        "time": 123.91979166666695,
        "velocity": 0.15748031496062992,
        "duration": 0.28020833333332007
    },
    {
        "name": "F#4",
        "midi": 66,
        "time": 124.03958333333361,
        "velocity": 0.11811023622047244,
        "duration": 0.140625
    },
    {
        "name": "G#5",
        "midi": 80,
        "time": 124.26041666666694,
        "velocity": 0.1968503937007874,
        "duration": 0.2395833333333286
    },
    {
        "name": "G#4",
        "midi": 68,
        "time": 124.33958333333361,
        "velocity": 0.13385826771653545,
        "duration": 0.140625
    },
    {
        "name": "A5",
        "midi": 81,
        "time": 124.50000000000027,
        "velocity": 0.1968503937007874,
        "duration": 0.1197916666666714
    },
    {
        "name": "A4",
        "midi": 69,
        "time": 124.50000000000027,
        "velocity": 0.1889763779527559,
        "duration": 0.1197916666666714
    },
    {
        "name": "A5",
        "midi": 81,
        "time": 124.76041666666694,
        "velocity": 0.1968503937007874,
        "duration": 0.11979166666665719
    },
    {
        "name": "A4",
        "midi": 69,
        "time": 124.7802083333336,
        "velocity": 0.25196850393700787,
        "duration": 0.11979166666665719
    },
    {
        "name": "A#4",
        "midi": 70,
        "time": 124.9395833333336,
        "velocity": 0.2047244094488189,
        "duration": 0.3802083333333286
    },
    {
        "name": "A#5",
        "midi": 82,
        "time": 125.16041666666693,
        "velocity": 0.16535433070866143,
        "duration": 0.20000000000000284
    },
    {
        "name": "A#5",
        "midi": 82,
        "time": 125.3802083333336,
        "velocity": 0.33858267716535434,
        "duration": 0.9000000000000199
    },
    {
        "name": "A#4",
        "midi": 70,
        "time": 125.41979166666694,
        "velocity": 0.1732283464566929,
        "duration": 0.1197916666666714
    },
    {
        "name": "A#4",
        "midi": 70,
        "time": 125.61979166666694,
        "velocity": 0.14173228346456693,
        "duration": 0.21979166666666572
    },
    {
        "name": "A#4",
        "midi": 70,
        "time": 126.01979166666695,
        "velocity": 0.13385826771653545,
        "duration": 0.1197916666666714
    },
    {
        "name": "A#4",
        "midi": 70,
        "time": 126.30000000000028,
        "velocity": 0.18110236220472442,
        "duration": 0.29999999999999716
    },
    {
        "name": "A#5",
        "midi": 82,
        "time": 126.36041666666695,
        "velocity": 0.29133858267716534,
        "duration": 0.2395833333333286
    },
    {
        "name": "A#5",
        "midi": 82,
        "time": 126.68020833333361,
        "velocity": 0.2125984251968504,
        "duration": 0.1197916666666714
    },
    {
        "name": "A#5",
        "midi": 82,
        "time": 126.81979166666694,
        "velocity": 0.23622047244094488,
        "duration": 0.11979166666665719
    },
    {
        "name": "B5",
        "midi": 83,
        "time": 126.91979166666694,
        "velocity": 0.2204724409448819,
        "duration": 0.11979166666665719
    },
    {
        "name": "B5",
        "midi": 83,
        "time": 127.0802083333336,
        "velocity": 0.29133858267716534,
        "duration": 0.2802083333333343
    },
    {
        "name": "B5",
        "midi": 83,
        "time": 127.41979166666694,
        "velocity": 0.1732283464566929,
        "duration": 0.1197916666666714
    },
    {
        "name": "C#5",
        "midi": 73,
        "time": 128.06041666666695,
        "velocity": 0.2204724409448819,
        "duration": 0.11979166666665719
    },
    {
        "name": "D#5",
        "midi": 75,
        "time": 128.20000000000027,
        "velocity": 0.3228346456692913,
        "duration": 0.18020833333332575
    },
    {
        "name": "E5",
        "midi": 76,
        "time": 128.36041666666694,
        "velocity": 0.4015748031496063,
        "duration": 0.11979166666665719
    },
    {
        "name": "A5",
        "midi": 81,
        "time": 128.70000000000027,
        "velocity": 0.29133858267716534,
        "duration": 0.11979166666665719
    },
    {
        "name": "A4",
        "midi": 69,
        "time": 128.70000000000027,
        "velocity": 0.25196850393700787,
        "duration": 0.11979166666665719
    },
    {
        "name": "A#5",
        "midi": 82,
        "time": 128.80000000000027,
        "velocity": 0.1968503937007874,
        "duration": 0.18020833333332575
    },
    {
        "name": "A#4",
        "midi": 70,
        "time": 128.80000000000027,
        "velocity": 0.1968503937007874,
        "duration": 0.11979166666665719
    },
    {
        "name": "G#5",
        "midi": 80,
        "time": 129.03958333333358,
        "velocity": 0.33858267716535434,
        "duration": 1
    },
    {
        "name": "G#4",
        "midi": 68,
        "time": 129.13958333333358,
        "velocity": 0.2283464566929134,
        "duration": 0.18020833333332575
    },
    {
        "name": "G#4",
        "midi": 68,
        "time": 129.3604166666669,
        "velocity": 0.2283464566929134,
        "duration": 0.17916666666667425
    },
    {
        "name": "G#4",
        "midi": 68,
        "time": 129.56041666666692,
        "velocity": 0.3228346456692913,
        "duration": 0.8197916666666458
    },
    {
        "name": "G#5",
        "midi": 80,
        "time": 130.10000000000025,
        "velocity": 0.2047244094488189,
        "duration": 0.19999999999998863
    },
    {
        "name": "A#5",
        "midi": 82,
        "time": 130.4197916666669,
        "velocity": 0.2283464566929134,
        "duration": 0.18020833333332575
    },
    {
        "name": "A#4",
        "midi": 70,
        "time": 130.4197916666669,
        "velocity": 0.3858267716535433,
        "duration": 0.18020833333332575
    },
    {
        "name": "F#4",
        "midi": 66,
        "time": 130.73958333333354,
        "velocity": 0.1968503937007874,
        "duration": 0.12083333333333712
    },
    {
        "name": "D4",
        "midi": 62,
        "time": 133.81979166666687,
        "velocity": 0.25196850393700787,
        "duration": 0.2197916666666515
    },
    {
        "name": "D#5",
        "midi": 75,
        "time": 134.0000000000002,
        "velocity": 0.2283464566929134,
        "duration": 0.11979166666665719
    },
    {
        "name": "D2",
        "midi": 38,
        "time": 134.06041666666687,
        "velocity": 0.14960629921259844,
        "duration": 0.7999999999999545
    },
    {
        "name": "A2",
        "midi": 45,
        "time": 134.13958333333352,
        "velocity": 0.12598425196850394,
        "duration": 1.4208333333332916
    },
    {
        "name": "F#3",
        "midi": 54,
        "time": 134.13958333333352,
        "velocity": 0.07874015748031496,
        "duration": 0.24062499999999432
    },
    {
        "name": "F#5",
        "midi": 78,
        "time": 134.2000000000002,
        "velocity": 0.25196850393700787,
        "duration": 1.0197916666666345
    },
    {
        "name": "F#4",
        "midi": 66,
        "time": 134.4395833333335,
        "velocity": 0.10236220472440945,
        "duration": 0.12083333333333712
    },
    {
        "name": "D3",
        "midi": 50,
        "time": 134.60000000000016,
        "velocity": 0.07874015748031496,
        "duration": 0.2604166666666572
    },
    {
        "name": "F#4",
        "midi": 66,
        "time": 134.6395833333335,
        "velocity": 0.14960629921259844,
        "duration": 0.18020833333332575
    },
    {
        "name": "F#3",
        "midi": 54,
        "time": 135.00000000000014,
        "velocity": 0.11811023622047244,
        "duration": 0.5604166666666686
    },
    {
        "name": "F#5",
        "midi": 78,
        "time": 135.23958333333348,
        "velocity": 0.2125984251968504,
        "duration": 1.0208333333333144
    },
    {
        "name": "F#4",
        "midi": 66,
        "time": 135.30000000000015,
        "velocity": 0.11811023622047244,
        "duration": 0.18020833333332575
    },
    {
        "name": "F#5",
        "midi": 78,
        "time": 136.30000000000013,
        "velocity": 0.2125984251968504,
        "duration": 0.13958333333332007
    },
    {
        "name": "F#5",
        "midi": 78,
        "time": 136.56041666666678,
        "velocity": 0.15748031496062992,
        "duration": 0.2593750000000057
    },
    {
        "name": "F#3",
        "midi": 54,
        "time": 137.23958333333346,
        "velocity": 0.11023622047244094,
        "duration": 0.12083333333333712
    },
    {
        "name": "C#5",
        "midi": 73,
        "time": 141.68020833333347,
        "velocity": 0.15748031496062992,
        "duration": 0.11979166666665719
    },
    {
        "name": "G#6",
        "midi": 92,
        "time": 144.3197916666668,
        "velocity": 0.1889763779527559,
        "duration": 0.18020833333332575
    },
    {
        "name": "C#5",
        "midi": 73,
        "time": 145.26041666666677,
        "velocity": 0.13385826771653545,
        "duration": 0.11979166666665719
    },
    {
        "name": "C#5",
        "midi": 73,
        "time": 145.73958333333343,
        "velocity": 0.1889763779527559,
        "duration": 0.12083333333333712
    },
    {
        "name": "C#5",
        "midi": 73,
        "time": 148.71979166666677,
        "velocity": 0.2125984251968504,
        "duration": 0.11979166666665719
    },
    {
        "name": "C#5",
        "midi": 73,
        "time": 149.58020833333342,
        "velocity": 0.30708661417322836,
        "duration": 0.11979166666665719
    },
    {
        "name": "C#5",
        "midi": 73,
        "time": 150.10000000000008,
        "velocity": 0.29133858267716534,
        "duration": 0.11979166666665719
    },
    {
        "name": "C#5",
        "midi": 73,
        "time": 150.61979166666674,
        "velocity": 0.2047244094488189,
        "duration": 0.11979166666665719
    },
    {
        "name": "C#5",
        "midi": 73,
        "time": 150.81979166666673,
        "velocity": 0.2677165354330709,
        "duration": 0.11979166666665719
    },
    {
        "name": "C#5",
        "midi": 73,
        "time": 151.2395833333334,
        "velocity": 0.2283464566929134,
        "duration": 0.12083333333333712
    },
    {
        "name": "C#5",
        "midi": 73,
        "time": 151.4802083333334,
        "velocity": 0.3228346456692913,
        "duration": 0.3395833333333371
    }
];