var  notes =  [
    {
        "name": "A4",
        "midi": 69,
        "time": 1.333332,
        "velocity": 0.6929133858267716,
        "duration": 0.5076383812499998
    },
    {
        "name": "F4",
        "midi": 66,
        "time": 1.8333315,
        "velocity": 0.6141732283464567,
        "duration": 0.15624984374999995
    },
    {
        "name": "D4",
        "midi": 62,
        "time": 1.999998,
        "velocity": 0.6850393700787402,
        "duration": 0.6798604312500001
    },
    {
        "name": "F4",
        "midi": 66,
        "time": 2.666664,
        "velocity": 0.7401574803149606,
        "duration": 0.6326382562499999
    },
    {
        "name": "A4",
        "midi": 69,
        "time": 3.3333299999999997,
        "velocity": 0.8346456692913385,
        "duration": 0.6666659999999998
    },
    {
        "name": "D5",
        "midi": 74,
        "time": 3.9999959999999994,
        "velocity": 0.8661417322834646,
        "duration": 1.3333320000000004
    },
    {
        "name": "F5",
        "midi": 78,
        "time": 5.333328,
        "velocity": 0.8740157480314961,
        "duration": 0.5076383812500005
    },
    {
        "name": "E5",
        "midi": 76,
        "time": 5.8333275,
        "velocity": 0.84251968503937,
        "duration": 0.1562498437500004
    },
    {
        "name": "D5",
        "midi": 74,
        "time": 5.999994000000001,
        "velocity": 0.7007874015748031,
        "duration": 0.6798604312499998
    },
    {
        "name": "F4",
        "midi": 66,
        "time": 6.666660000000001,
        "velocity": 0.5669291338582677,
        "duration": 0.6326382562499999
    },
    {
        "name": "G4",
        "midi": 68,
        "time": 7.333326000000001,
        "velocity": 0.7716535433070866,
        "duration": 0.6666660000000002
    },
    {
        "name": "A4",
        "midi": 69,
        "time": 7.9999920000000015,
        "velocity": 0.8188976377952756,
        "duration": 1.3333319999999995
    },
    {
        "name": "A4",
        "midi": 69,
        "time": 9.333324000000001,
        "velocity": 0.8582677165354331,
        "duration": 0.33333299999999966
    },
    {
        "name": "A4",
        "midi": 69,
        "time": 9.666657,
        "velocity": 0.7480314960629921,
        "duration": 0.33333299999999966
    },
    {
        "name": "F5",
        "midi": 78,
        "time": 9.99999,
        "velocity": 0.952755905511811,
        "duration": 1.0180545375000012
    },
    {
        "name": "E5",
        "midi": 76,
        "time": 10.999989000000001,
        "velocity": 0.8976377952755905,
        "duration": 0.315277462500001
    },
    {
        "name": "D5",
        "midi": 74,
        "time": 11.333322000000003,
        "velocity": 0.7165354330708661,
        "duration": 0.6666659999999993
    },
    {
        "name": "C5",
        "midi": 73,
        "time": 11.999988000000002,
        "velocity": 0.7559055118110236,
        "duration": 1.3333320000000004
    },
    {
        "name": "B4",
        "midi": 71,
        "time": 13.333320000000002,
        "velocity": 0.6929133858267716,
        "duration": 0.33888855000000007
    },
    {
        "name": "C5",
        "midi": 73,
        "time": 13.666653000000002,
        "velocity": 0.7322834645669292,
        "duration": 0.315277462500001
    },
    {
        "name": "D5",
        "midi": 74,
        "time": 13.999986000000003,
        "velocity": 0.8031496062992126,
        "duration": 0.6666659999999993
    },
    {
        "name": "D5",
        "midi": 74,
        "time": 14.666652000000003,
        "velocity": 0.7874015748031497,
        "duration": 0.6666659999999993
    },
    {
        "name": "A4",
        "midi": 69,
        "time": 15.333318000000002,
        "velocity": 0.6929133858267716,
        "duration": 0.6666659999999993
    },
    {
        "name": "F4",
        "midi": 66,
        "time": 15.999984000000001,
        "velocity": 0.6850393700787402,
        "duration": 0.6666659999999993
    },
    {
        "name": "D4",
        "midi": 62,
        "time": 16.66665,
        "velocity": 0.6456692913385826,
        "duration": 0.6666659999999993
    },
    {
        "name": "A4",
        "midi": 69,
        "time": 17.333316,
        "velocity": 0.9291338582677166,
        "duration": 0.5076383812500005
    },
    {
        "name": "F4",
        "midi": 66,
        "time": 17.8333155,
        "velocity": 0.889763779527559,
        "duration": 0.1562498437500004
    },
    {
        "name": "D4",
        "midi": 62,
        "time": 17.999982000000003,
        "velocity": 0.7086614173228346,
        "duration": 0.679860431249999
    },
    {
        "name": "F4",
        "midi": 66,
        "time": 18.666648000000002,
        "velocity": 0.7795275590551181,
        "duration": 0.6326382562500008
    },
    {
        "name": "A4",
        "midi": 69,
        "time": 19.333314,
        "velocity": 0.8582677165354331,
        "duration": 0.6666659999999993
    },
    {
        "name": "D5",
        "midi": 74,
        "time": 19.99998,
        "velocity": 0.8503937007874016,
        "duration": 1.3333319999999986
    },
    {
        "name": "F5",
        "midi": 78,
        "time": 21.333312,
        "velocity": 0.8267716535433071,
        "duration": 0.5076383812500005
    },
    {
        "name": "E5",
        "midi": 76,
        "time": 21.8333115,
        "velocity": 0.8110236220472441,
        "duration": 0.1562498437500004
    },
    {
        "name": "D5",
        "midi": 74,
        "time": 21.999978000000002,
        "velocity": 0.7165354330708661,
        "duration": 0.679860431249999
    },
    {
        "name": "F4",
        "midi": 66,
        "time": 22.666644,
        "velocity": 0.5433070866141733,
        "duration": 0.6326382562500008
    },
    {
        "name": "G4",
        "midi": 68,
        "time": 23.33331,
        "velocity": 0.8267716535433071,
        "duration": 0.6666659999999993
    },
    {
        "name": "A4",
        "midi": 69,
        "time": 23.999976,
        "velocity": 0.8110236220472441,
        "duration": 1.3333319999999986
    },
    {
        "name": "A4",
        "midi": 69,
        "time": 25.333308,
        "velocity": 0.8346456692913385,
        "duration": 0.33333299999999966
    },
    {
        "name": "A4",
        "midi": 69,
        "time": 25.666641,
        "velocity": 0.7559055118110236,
        "duration": 0.33333299999999966
    },
    {
        "name": "F5",
        "midi": 78,
        "time": 25.999973999999998,
        "velocity": 0.9606299212598425,
        "duration": 1.0180545374999994
    },
    {
        "name": "E5",
        "midi": 76,
        "time": 26.999972999999997,
        "velocity": 0.9212598425196851,
        "duration": 0.3152774624999992
    },
    {
        "name": "D5",
        "midi": 74,
        "time": 27.333305999999997,
        "velocity": 0.7244094488188977,
        "duration": 0.6666659999999993
    },
    {
        "name": "C5",
        "midi": 73,
        "time": 27.999971999999996,
        "velocity": 0.6850393700787402,
        "duration": 1.3333319999999986
    },
    {
        "name": "B4",
        "midi": 71,
        "time": 29.333303999999995,
        "velocity": 0.7165354330708661,
        "duration": 0.33888855000000007
    },
    {
        "name": "C5",
        "midi": 73,
        "time": 29.666636999999994,
        "velocity": 0.7637795275590551,
        "duration": 0.3152774624999992
    },
    {
        "name": "D5",
        "midi": 74,
        "time": 29.999969999999994,
        "velocity": 0.8031496062992126,
        "duration": 0.6666659999999993
    },
    {
        "name": "D5",
        "midi": 74,
        "time": 30.666635999999993,
        "velocity": 0.8031496062992126,
        "duration": 0.6666659999999993
    },
    {
        "name": "A4",
        "midi": 69,
        "time": 31.333301999999993,
        "velocity": 0.6456692913385826,
        "duration": 0.6666659999999993
    },
    {
        "name": "F4",
        "midi": 66,
        "time": 31.999967999999992,
        "velocity": 0.7007874015748031,
        "duration": 0.6666660000000029
    },
    {
        "name": "D4",
        "midi": 62,
        "time": 32.666633999999995,
        "velocity": 0.6692913385826772,
        "duration": 0.6666659999999993
    },
    {
        "name": "F5",
        "midi": 78,
        "time": 33.333299999999994,
        "velocity": 0.6692913385826772,
        "duration": 0.3333330000000032
    },
    {
        "name": "F5",
        "midi": 78,
        "time": 33.666633,
        "velocity": 0.49606299212598426,
        "duration": 0.3333330000000032
    },
    {
        "name": "F5",
        "midi": 78,
        "time": 33.999966,
        "velocity": 0.5039370078740157,
        "duration": 0.679860431249999
    },
    {
        "name": "G5",
        "midi": 79,
        "time": 34.666632,
        "velocity": 0.5354330708661418,
        "duration": 0.6326382562499973
    },
    {
        "name": "A5",
        "midi": 81,
        "time": 35.333298,
        "velocity": 0.4881889763779528,
        "duration": 0.6666659999999993
    },
    {
        "name": "A5",
        "midi": 81,
        "time": 35.999964,
        "velocity": 0.4881889763779528,
        "duration": 1.3333319999999986
    },
    {
        "name": "G5",
        "midi": 79,
        "time": 37.333296,
        "velocity": 0.41732283464566927,
        "duration": 0.33888855000000007
    },
    {
        "name": "F5",
        "midi": 78,
        "time": 37.666629,
        "velocity": 0.3543307086614173,
        "duration": 0.3152774624999992
    },
    {
        "name": "E5",
        "midi": 76,
        "time": 37.999962,
        "velocity": 0.4566929133858268,
        "duration": 0.679860431249999
    },
    {
        "name": "F5",
        "midi": 78,
        "time": 38.666627999999996,
        "velocity": 0.4645669291338583,
        "duration": 0.6326382562499973
    },
    {
        "name": "G5",
        "midi": 79,
        "time": 39.333293999999995,
        "velocity": 0.5118110236220472,
        "duration": 0.6666659999999993
    },
    {
        "name": "G5",
        "midi": 79,
        "time": 39.999959999999994,
        "velocity": 0.49606299212598426,
        "duration": 1.3333319999999986
    },
    {
        "name": "G5",
        "midi": 79,
        "time": 41.33329199999999,
        "velocity": 0.48031496062992124,
        "duration": 0.6666659999999993
    },
    {
        "name": "F5",
        "midi": 78,
        "time": 41.99995799999999,
        "velocity": 0.4881889763779528,
        "duration": 1.0180545374999994
    },
    {
        "name": "E5",
        "midi": 76,
        "time": 42.999956999999995,
        "velocity": 0.4645669291338583,
        "duration": 0.3152774624999992
    },
    {
        "name": "D5",
        "midi": 74,
        "time": 43.33328999999999,
        "velocity": 0.47244094488188976,
        "duration": 0.6666659999999993
    },
    {
        "name": "C5",
        "midi": 73,
        "time": 43.99995599999999,
        "velocity": 0.4566929133858268,
        "duration": 1.3333319999999986
    },
    {
        "name": "B4",
        "midi": 71,
        "time": 45.33328799999999,
        "velocity": 0.5590551181102362,
        "duration": 0.507638381250004
    },
    {
        "name": "C5",
        "midi": 73,
        "time": 45.83328749999999,
        "velocity": 0.6062992125984252,
        "duration": 0.15624984375000395
    },
    {
        "name": "D5",
        "midi": 74,
        "time": 45.999953999999995,
        "velocity": 0.6299212598425197,
        "duration": 0.679860431249999
    },
    {
        "name": "F4",
        "midi": 66,
        "time": 46.666619999999995,
        "velocity": 0.5039370078740157,
        "duration": 0.6326382562499973
    },
    {
        "name": "G4",
        "midi": 68,
        "time": 47.333285999999994,
        "velocity": 0.6535433070866141,
        "duration": 0.6666659999999993
    },
    {
        "name": "A4",
        "midi": 69,
        "time": 47.99995199999999,
        "velocity": 0.7322834645669292,
        "duration": 1.3333319999999986
    },
    {
        "name": "A4",
        "midi": 69,
        "time": 49.33328399999999,
        "velocity": 0.8188976377952756,
        "duration": 0.6666659999999993
    },
    {
        "name": "D5",
        "midi": 74,
        "time": 49.99994999999999,
        "velocity": 0.8661417322834646,
        "duration": 0.6666659999999993
    },
    {
        "name": "D5",
        "midi": 74,
        "time": 50.66661599999999,
        "velocity": 0.7952755905511811,
        "duration": 0.6666659999999993
    },
    {
        "name": "D5",
        "midi": 74,
        "time": 51.33328199999999,
        "velocity": 0.7637795275590551,
        "duration": 0.33888855000000007
    },
    {
        "name": "C5",
        "midi": 73,
        "time": 51.66661499999999,
        "velocity": 0.7165354330708661,
        "duration": 0.3152774624999992
    },
    {
        "name": "B4",
        "midi": 71,
        "time": 51.99994799999999,
        "velocity": 0.6929133858267716,
        "duration": 0.6666659999999993
    },
    {
        "name": "B4",
        "midi": 71,
        "time": 52.66661399999999,
        "velocity": 0.7401574803149606,
        "duration": 0.6666659999999993
    },
    {
        "name": "B4",
        "midi": 71,
        "time": 53.33327999999999,
        "velocity": 0.7874015748031497,
        "duration": 0.6666659999999993
    },
    {
        "name": "E5",
        "midi": 76,
        "time": 53.99994599999999,
        "velocity": 0.84251968503937,
        "duration": 0.6666659999999993
    },
    {
        "name": "G5",
        "midi": 79,
        "time": 54.666611999999986,
        "velocity": 0.937007874015748,
        "duration": 0.3333330000000032
    },
    {
        "name": "F5",
        "midi": 78,
        "time": 54.99994499999999,
        "velocity": 0.9291338582677166,
        "duration": 0.3333330000000032
    },
    {
        "name": "E5",
        "midi": 76,
        "time": 55.33327799999999,
        "velocity": 0.889763779527559,
        "duration": 0.3333330000000032
    },
    {
        "name": "D5",
        "midi": 74,
        "time": 55.666610999999996,
        "velocity": 0.8346456692913385,
        "duration": 0.3333330000000032
    },
    {
        "name": "D5",
        "midi": 74,
        "time": 55.999944,
        "velocity": 0.7716535433070866,
        "duration": 0.679860431249999
    },
    {
        "name": "C5",
        "midi": 73,
        "time": 56.66661,
        "velocity": 0.7559055118110236,
        "duration": 0.6326382562499973
    },
    {
        "name": "A4",
        "midi": 69,
        "time": 57.333276,
        "velocity": 0.7559055118110236,
        "duration": 0.3333330000000032
    },
    {
        "name": "A4",
        "midi": 69,
        "time": 57.666609,
        "velocity": 0.7480314960629921,
        "duration": 0.3333330000000032
    },
    {
        "name": "D5",
        "midi": 74,
        "time": 57.999942000000004,
        "velocity": 0.8976377952755905,
        "duration": 0.9999990000000025
    },
    {
        "name": "E5",
        "midi": 76,
        "time": 58.99994100000001,
        "velocity": 1,
        "duration": 0.3333330000000032
    },
    {
        "name": "F5",
        "midi": 78,
        "time": 59.33327400000001,
        "velocity": 0.9763779527559056,
        "duration": 0.3333330000000032
    },
    {
        "name": "G5",
        "midi": 79,
        "time": 59.66660700000001,
        "velocity": 0.984251968503937,
        "duration": 0.3333330000000032
    },
    {
        "name": "A5",
        "midi": 81,
        "time": 59.99994000000002,
        "velocity": 0.7952755905511811,
        "duration": 1.3333319999999986
    },
    {
        "name": "D5",
        "midi": 74,
        "time": 61.333272000000015,
        "velocity": 0.6377952755905512,
        "duration": 0.33888855000000007
    },
    {
        "name": "E5",
        "midi": 76,
        "time": 61.66660500000002,
        "velocity": 0.6299212598425197,
        "duration": 0.3152774624999992
    },
    {
        "name": "F5",
        "midi": 78,
        "time": 61.999938000000014,
        "velocity": 0.8188976377952756,
        "duration": 1.0180545374999994
    },
    {
        "name": "G5",
        "midi": 79,
        "time": 62.99993700000002,
        "velocity": 0.8661417322834646,
        "duration": 0.3152774624999992
    },
    {
        "name": "E5",
        "midi": 76,
        "time": 63.33327000000001,
        "velocity": 0.7322834645669292,
        "duration": 0.6666659999999993
    },
    {
        "name": "D5",
        "midi": 74,
        "time": 63.99993600000001,
        "velocity": 0.7401574803149606,
        "duration": 1.999997999999998
    }
];


minimalNotes1 = [];
minimalNotes2 = [];
minimalNotes3 = [];
minimalNotes4 = [];
minimalNotes5 = [];
minimalNotes6 = [];
minimalNotes7 = [];
minimalNotes8 = [];
minimalNotes9 = [];
minimalNotes10 = [];
minimalNotes11 = [];
minimalNotes12 = [];
minimalNotes13 = [];
minimalNotes14 = [];
minimalNotes15 = [];
minimalNotes16 = [];
minimalNotes17 = [];
minimalNotes18 = [];
minimalNotes19 = [];
minimalNotes20 = [];
minimalNotes21 = [];

minimalNotesFinal = [];


minimalNotes1 = notes.filter(function (el){
    return el.name == "C3";

});

var minimalNotes1Final = minimalNotes1.map(function(el){
    var addKey = Object.assign({}, el);
    addKey.lane = 0;
    return addKey;
});

//////////////////////////////////////////////////////////

minimalNotes2 = notes.filter(function (el){

    return el.name == "D3"
});

var minimalNotes2Final = minimalNotes2.map(function(el){
    var addKey = Object.assign({}, el);
    addKey.lane = 1;
    return addKey;
});


///////////////////////////////////////////

minimalNotes3 = notes.filter(function (el) {
    return el.name == "E3"

});
var minimalNotes3Final = minimalNotes3.map(function(el){
    var addKey = Object.assign({}, el);
    addKey.lane = 2;
    return addKey;
});

////////////////////////////////////////////////

minimalNotes4 = notes.filter(function (el) {
    return el.name == "F3"

});
var minimalNotes4Final = minimalNotes4.map(function(el){
    var addKey = Object.assign({}, el);
    addKey.lane = 3;
    return addKey;
});

///////////////////////

minimalNotes5 = notes.filter(function (el) {
    return el.name == "G3"

});
var minimalNotes5Final = minimalNotes5.map(function(el){
    var addKey = Object.assign({}, el);
    addKey.lane = 4;
    return addKey;
});

////////////////////

minimalNotes6 = notes.filter(function (el) {
    return el.name == "A3"

});
var minimalNotes6Final = minimalNotes6.map(function(el){
    var addKey = Object.assign({}, el);
    addKey.lane = 5;
    return addKey;
});

///////////////////////////

minimalNotes7 = notes.filter(function (el) {
    return el.name == "B3"

});
var minimalNotes7Final = minimalNotes7.map(function(el){
    var addKey = Object.assign({}, el);
    addKey.lane = 6;
    return addKey;
});


//////////////////////////////
minimalNotes8 = notes.filter(function (el) {
    return el.name == "C4"

});
var minimalNotes8Final = minimalNotes8.map(function(el){
    var addKey = Object.assign({}, el);
    addKey.lane = 7;
    return addKey;
});

/////////////////////////
minimalNotes9 = notes.filter(function (el) {
    return el.name == "D4"

});
var minimalNotes9Final = minimalNotes9.map(function(el){
    var addKey = Object.assign({}, el);
    addKey.lane = 8;
    return addKey;
});

///////////////
minimalNotes10 = notes.filter(function (el) {
    return el.name == "E4"

});
var minimalNotes10Final = minimalNotes10.map(function(el){
    var addKey = Object.assign({}, el);
    addKey.lane = 9;
    return addKey;
});

///////////////
minimalNotes11 = notes.filter(function (el) {
    return el.name == "F4"

});
var minimalNotes11Final = minimalNotes11.map(function(el){
    var addKey = Object.assign({}, el);
    addKey.lane = 10;
    return addKey;
});

////////////////////////
minimalNotes12 = notes.filter(function (el) {
    return el.name == "G4"

});
var minimalNotes12Final = minimalNotes12.map(function(el){
    var addKey = Object.assign({}, el);
    addKey.lane = 11;
    return addKey;
});
//////////////////////
minimalNotes13 = notes.filter(function (el) {
    return el.name == "A4"

});
var minimalNotes13Final = minimalNotes13.map(function(el){
    var addKey = Object.assign({}, el);
    addKey.lane = 12;
    return addKey;
});
/////
minimalNotes14 = notes.filter(function (el) {
    return el.name == "B4"

});
var minimalNotes14Final = minimalNotes14.map(function(el){
    var addKey = Object.assign({}, el);
    addKey.lane = 13;
    return addKey;
});
////
minimalNotes15 = notes.filter(function (el) {
    return el.name == "C5"

});
var minimalNotes15Final = minimalNotes15.map(function(el){
    var addKey = Object.assign({}, el);
    addKey.lane = 14;
    return addKey;
});
///
minimalNotes16 = notes.filter(function (el) {
    return el.name == "D5"

});
var minimalNotes16Final = minimalNotes16.map(function(el){
    var addKey = Object.assign({}, el);
    addKey.lane = 15;
    return addKey;
});
///
minimalNotes17 = notes.filter(function (el) {
    return el.name == "E5"

});

var minimalNotes17Final = minimalNotes17.map(function(el){
    var addKey = Object.assign({}, el);
    addKey.lane = 16;
    return addKey;
});
///

minimalNotes18 = notes.filter(function (el) {
    return el.name == "F5"

});
var minimalNotes18Final = minimalNotes18.map(function(el){
    var addKey = Object.assign({}, el);
    addKey.lane = 17;
    return addKey;
});
///

minimalNotes19 = notes.filter(function (el) {
    return el.name == "G5"

});
var minimalNotes19Final = minimalNotes19.map(function(el){
    var addKey = Object.assign({}, el);
    addKey.lane = 18;
    return addKey;
});
///

minimalNotes20 = notes.filter(function (el) {
    return el.name == "A5"

});
var minimalNotes20Final = minimalNotes20.map(function(el){
    var addKey = Object.assign({}, el);
    addKey.lane = 19;
    return addKey;
});

///
minimalNotes21 = notes.filter(function (el) {
    return el.name == "B5"

});
var minimalNotes21Final = minimalNotes21.map(function(el){
    var addKey = Object.assign({}, el);
    addKey.lane = 20;
    return addKey;
});
///





minimalNotesFinal = minimalNotes1Final.concat(minimalNotes2Final, minimalNotes3Final, minimalNotes4Final, minimalNotes5Final,minimalNotes6Final, minimalNotes7Final, minimalNotes8Final,
    minimalNotes9Final,minimalNotes10Final, minimalNotes11Final, minimalNotes12Final, minimalNotes13Final, minimalNotes14Final,minimalNotes15Final,
    minimalNotes16Final, minimalNotes17Final,minimalNotes18Final,minimalNotes19Final,minimalNotes20Final,minimalNotes21Final);

console.log(minimalNotesFinal);

