/*var violinNotes =
{
    "header": {
    "PPQ": 960,
        "timeSignature": [
        3,
        4
    ],
        "bpm": 90.00009000009,
        "name": "The Star-Spangled Banner"
},
    "startTime": 0,
    "duration": 65.99993400000001,
    "tracks":[
    {
        "startTime": 0,
        "duration": 0,
        "length": 0,
        "id": 0,
        "name": "The Star-Spangled Banner"
    },
    {
        "startTime": 1.333332,
        "duration": 65.99993400000001,
        "length": 101,
        "id": 1,
        "name": "Violin",
        "instrumentNumber": 40,
        "instrument": "violin",
        "instrumentFamily": "strings",
        "channelNumber": 1,
        "isPercussion": false,
        "notes": [

        */ var  notes =  [
            {
                "name": "A4",
                "midi": 69,
                "time": 1.333332,
                "velocity": 0.6929133858267716,
                "duration": 0.5076383812499998
            },
            {
                "name": "F#4",
                "midi": 66,
                "time": 1.8333315,
                "velocity": 0.6141732283464567,
                "duration": 0.15624984374999995
            },
            {
                "name": "D4",
                "midi": 62,
                "time": 1.999998,
                "velocity": 0.6850393700787402,
                "duration": 0.6798604312500001
            },
            {
                "name": "F#4",
                "midi": 66,
                "time": 2.666664,
                "velocity": 0.7401574803149606,
                "duration": 0.6326382562499999
            },
            {
                "name": "A4",
                "midi": 69,
                "time": 3.3333299999999997,
                "velocity": 0.8346456692913385,
                "duration": 0.6666659999999998
            },
            {
                "name": "D5",
                "midi": 74,
                "time": 3.9999959999999994,
                "velocity": 0.8661417322834646,
                "duration": 1.3333320000000004
            },
            {
                "name": "F#5",
                "midi": 78,
                "time": 5.333328,
                "velocity": 0.8740157480314961,
                "duration": 0.5076383812500005
            },
            {
                "name": "E5",
                "midi": 76,
                "time": 5.8333275,
                "velocity": 0.84251968503937,
                "duration": 0.1562498437500004
            },
            {
                "name": "D5",
                "midi": 74,
                "time": 5.999994000000001,
                "velocity": 0.7007874015748031,
                "duration": 0.6798604312499998
            },
            {
                "name": "F#4",
                "midi": 66,
                "time": 6.666660000000001,
                "velocity": 0.5669291338582677,
                "duration": 0.6326382562499999
            },
            {
                "name": "G#4",
                "midi": 68,
                "time": 7.333326000000001,
                "velocity": 0.7716535433070866,
                "duration": 0.6666660000000002
            },
            {
                "name": "A4",
                "midi": 69,
                "time": 7.9999920000000015,
                "velocity": 0.8188976377952756,
                "duration": 1.3333319999999995
            },
            {
                "name": "A4",
                "midi": 69,
                "time": 9.333324000000001,
                "velocity": 0.8582677165354331,
                "duration": 0.33333299999999966
            },
            {
                "name": "A4",
                "midi": 69,
                "time": 9.666657,
                "velocity": 0.7480314960629921,
                "duration": 0.33333299999999966
            },
            {
                "name": "F#5",
                "midi": 78,
                "time": 9.99999,
                "velocity": 0.952755905511811,
                "duration": 1.0180545375000012
            },
            {
                "name": "E5",
                "midi": 76,
                "time": 10.999989000000001,
                "velocity": 0.8976377952755905,
                "duration": 0.315277462500001
            },
            {
                "name": "D5",
                "midi": 74,
                "time": 11.333322000000003,
                "velocity": 0.7165354330708661,
                "duration": 0.6666659999999993
            },
            {
                "name": "C#5",
                "midi": 73,
                "time": 11.999988000000002,
                "velocity": 0.7559055118110236,
                "duration": 1.3333320000000004
            },
            {
                "name": "B4",
                "midi": 71,
                "time": 13.333320000000002,
                "velocity": 0.6929133858267716,
                "duration": 0.33888855000000007
            },
            {
                "name": "C#5",
                "midi": 73,
                "time": 13.666653000000002,
                "velocity": 0.7322834645669292,
                "duration": 0.315277462500001
            },
            {
                "name": "D5",
                "midi": 74,
                "time": 13.999986000000003,
                "velocity": 0.8031496062992126,
                "duration": 0.6666659999999993
            },
            {
                "name": "D5",
                "midi": 74,
                "time": 14.666652000000003,
                "velocity": 0.7874015748031497,
                "duration": 0.6666659999999993
            },
            {
                "name": "A4",
                "midi": 69,
                "time": 15.333318000000002,
                "velocity": 0.6929133858267716,
                "duration": 0.6666659999999993
            },
            {
                "name": "F#4",
                "midi": 66,
                "time": 15.999984000000001,
                "velocity": 0.6850393700787402,
                "duration": 0.6666659999999993
            },
            {
                "name": "D4",
                "midi": 62,
                "time": 16.66665,
                "velocity": 0.6456692913385826,
                "duration": 0.6666659999999993
            },
            {
                "name": "A4",
                "midi": 69,
                "time": 17.333316,
                "velocity": 0.9291338582677166,
                "duration": 0.5076383812500005
            },
            {
                "name": "F#4",
                "midi": 66,
                "time": 17.8333155,
                "velocity": 0.889763779527559,
                "duration": 0.1562498437500004
            },
            {
                "name": "D4",
                "midi": 62,
                "time": 17.999982000000003,
                "velocity": 0.7086614173228346,
                "duration": 0.679860431249999
            },
            {
                "name": "F#4",
                "midi": 66,
                "time": 18.666648000000002,
                "velocity": 0.7795275590551181,
                "duration": 0.6326382562500008
            },
            {
                "name": "A4",
                "midi": 69,
                "time": 19.333314,
                "velocity": 0.8582677165354331,
                "duration": 0.6666659999999993
            },
            {
                "name": "D5",
                "midi": 74,
                "time": 19.99998,
                "velocity": 0.8503937007874016,
                "duration": 1.3333319999999986
            },
            {
                "name": "F#5",
                "midi": 78,
                "time": 21.333312,
                "velocity": 0.8267716535433071,
                "duration": 0.5076383812500005
            },
            {
                "name": "E5",
                "midi": 76,
                "time": 21.8333115,
                "velocity": 0.8110236220472441,
                "duration": 0.1562498437500004
            },
            {
                "name": "D5",
                "midi": 74,
                "time": 21.999978000000002,
                "velocity": 0.7165354330708661,
                "duration": 0.679860431249999
            },
            {
                "name": "F#4",
                "midi": 66,
                "time": 22.666644,
                "velocity": 0.5433070866141733,
                "duration": 0.6326382562500008
            },
            {
                "name": "G#4",
                "midi": 68,
                "time": 23.33331,
                "velocity": 0.8267716535433071,
                "duration": 0.6666659999999993
            },
            {
                "name": "A4",
                "midi": 69,
                "time": 23.999976,
                "velocity": 0.8110236220472441,
                "duration": 1.3333319999999986
            },
            {
                "name": "A4",
                "midi": 69,
                "time": 25.333308,
                "velocity": 0.8346456692913385,
                "duration": 0.33333299999999966
            },
            {
                "name": "A4",
                "midi": 69,
                "time": 25.666641,
                "velocity": 0.7559055118110236,
                "duration": 0.33333299999999966
            },
            {
                "name": "F#5",
                "midi": 78,
                "time": 25.999973999999998,
                "velocity": 0.9606299212598425,
                "duration": 1.0180545374999994
            },
            {
                "name": "E5",
                "midi": 76,
                "time": 26.999972999999997,
                "velocity": 0.9212598425196851,
                "duration": 0.3152774624999992
            },
            {
                "name": "D5",
                "midi": 74,
                "time": 27.333305999999997,
                "velocity": 0.7244094488188977,
                "duration": 0.6666659999999993
            },
            {
                "name": "C#5",
                "midi": 73,
                "time": 27.999971999999996,
                "velocity": 0.6850393700787402,
                "duration": 1.3333319999999986
            },
            {
                "name": "B4",
                "midi": 71,
                "time": 29.333303999999995,
                "velocity": 0.7165354330708661,
                "duration": 0.33888855000000007
            },
            {
                "name": "C#5",
                "midi": 73,
                "time": 29.666636999999994,
                "velocity": 0.7637795275590551,
                "duration": 0.3152774624999992
            },
            {
                "name": "D5",
                "midi": 74,
                "time": 29.999969999999994,
                "velocity": 0.8031496062992126,
                "duration": 0.6666659999999993
            },
            {
                "name": "D5",
                "midi": 74,
                "time": 30.666635999999993,
                "velocity": 0.8031496062992126,
                "duration": 0.6666659999999993
            },
            {
                "name": "A4",
                "midi": 69,
                "time": 31.333301999999993,
                "velocity": 0.6456692913385826,
                "duration": 0.6666659999999993
            },
            {
                "name": "F#4",
                "midi": 66,
                "time": 31.999967999999992,
                "velocity": 0.7007874015748031,
                "duration": 0.6666660000000029
            },
            {
                "name": "D4",
                "midi": 62,
                "time": 32.666633999999995,
                "velocity": 0.6692913385826772,
                "duration": 0.6666659999999993
            },
            {
                "name": "F#5",
                "midi": 78,
                "time": 33.333299999999994,
                "velocity": 0.6692913385826772,
                "duration": 0.3333330000000032
            },
            {
                "name": "F#5",
                "midi": 78,
                "time": 33.666633,
                "velocity": 0.49606299212598426,
                "duration": 0.3333330000000032
            },
            {
                "name": "F#5",
                "midi": 78,
                "time": 33.999966,
                "velocity": 0.5039370078740157,
                "duration": 0.679860431249999
            },
            {
                "name": "G5",
                "midi": 79,
                "time": 34.666632,
                "velocity": 0.5354330708661418,
                "duration": 0.6326382562499973
            },
            {
                "name": "A5",
                "midi": 81,
                "time": 35.333298,
                "velocity": 0.4881889763779528,
                "duration": 0.6666659999999993
            },
            {
                "name": "A5",
                "midi": 81,
                "time": 35.999964,
                "velocity": 0.4881889763779528,
                "duration": 1.3333319999999986
            },
            {
                "name": "G5",
                "midi": 79,
                "time": 37.333296,
                "velocity": 0.41732283464566927,
                "duration": 0.33888855000000007
            },
            {
                "name": "F#5",
                "midi": 78,
                "time": 37.666629,
                "velocity": 0.3543307086614173,
                "duration": 0.3152774624999992
            },
            {
                "name": "E5",
                "midi": 76,
                "time": 37.999962,
                "velocity": 0.4566929133858268,
                "duration": 0.679860431249999
            },
            {
                "name": "F#5",
                "midi": 78,
                "time": 38.666627999999996,
                "velocity": 0.4645669291338583,
                "duration": 0.6326382562499973
            },
            {
                "name": "G5",
                "midi": 79,
                "time": 39.333293999999995,
                "velocity": 0.5118110236220472,
                "duration": 0.6666659999999993
            },
            {
                "name": "G5",
                "midi": 79,
                "time": 39.999959999999994,
                "velocity": 0.49606299212598426,
                "duration": 1.3333319999999986
            },
            {
                "name": "G5",
                "midi": 79,
                "time": 41.33329199999999,
                "velocity": 0.48031496062992124,
                "duration": 0.6666659999999993
            },
            {
                "name": "F#5",
                "midi": 78,
                "time": 41.99995799999999,
                "velocity": 0.4881889763779528,
                "duration": 1.0180545374999994
            },
            {
                "name": "E5",
                "midi": 76,
                "time": 42.999956999999995,
                "velocity": 0.4645669291338583,
                "duration": 0.3152774624999992
            },
            {
                "name": "D5",
                "midi": 74,
                "time": 43.33328999999999,
                "velocity": 0.47244094488188976,
                "duration": 0.6666659999999993
            },
            {
                "name": "C#5",
                "midi": 73,
                "time": 43.99995599999999,
                "velocity": 0.4566929133858268,
                "duration": 1.3333319999999986
            },
            {
                "name": "B4",
                "midi": 71,
                "time": 45.33328799999999,
                "velocity": 0.5590551181102362,
                "duration": 0.507638381250004
            },
            {
                "name": "C#5",
                "midi": 73,
                "time": 45.83328749999999,
                "velocity": 0.6062992125984252,
                "duration": 0.15624984375000395
            },
            {
                "name": "D5",
                "midi": 74,
                "time": 45.999953999999995,
                "velocity": 0.6299212598425197,
                "duration": 0.679860431249999
            },
            {
                "name": "F#4",
                "midi": 66,
                "time": 46.666619999999995,
                "velocity": 0.5039370078740157,
                "duration": 0.6326382562499973
            },
            {
                "name": "G#4",
                "midi": 68,
                "time": 47.333285999999994,
                "velocity": 0.6535433070866141,
                "duration": 0.6666659999999993
            },
            {
                "name": "A4",
                "midi": 69,
                "time": 47.99995199999999,
                "velocity": 0.7322834645669292,
                "duration": 1.3333319999999986
            },
            {
                "name": "A4",
                "midi": 69,
                "time": 49.33328399999999,
                "velocity": 0.8188976377952756,
                "duration": 0.6666659999999993
            },
            {
                "name": "D5",
                "midi": 74,
                "time": 49.99994999999999,
                "velocity": 0.8661417322834646,
                "duration": 0.6666659999999993
            },
            {
                "name": "D5",
                "midi": 74,
                "time": 50.66661599999999,
                "velocity": 0.7952755905511811,
                "duration": 0.6666659999999993
            },
            {
                "name": "D5",
                "midi": 74,
                "time": 51.33328199999999,
                "velocity": 0.7637795275590551,
                "duration": 0.33888855000000007
            },
            {
                "name": "C#5",
                "midi": 73,
                "time": 51.66661499999999,
                "velocity": 0.7165354330708661,
                "duration": 0.3152774624999992
            },
            {
                "name": "B4",
                "midi": 71,
                "time": 51.99994799999999,
                "velocity": 0.6929133858267716,
                "duration": 0.6666659999999993
            },
            {
                "name": "B4",
                "midi": 71,
                "time": 52.66661399999999,
                "velocity": 0.7401574803149606,
                "duration": 0.6666659999999993
            },
            {
                "name": "B4",
                "midi": 71,
                "time": 53.33327999999999,
                "velocity": 0.7874015748031497,
                "duration": 0.6666659999999993
            },
            {
                "name": "E5",
                "midi": 76,
                "time": 53.99994599999999,
                "velocity": 0.84251968503937,
                "duration": 0.6666659999999993
            },
            {
                "name": "G5",
                "midi": 79,
                "time": 54.666611999999986,
                "velocity": 0.937007874015748,
                "duration": 0.3333330000000032
            },
            {
                "name": "F#5",
                "midi": 78,
                "time": 54.99994499999999,
                "velocity": 0.9291338582677166,
                "duration": 0.3333330000000032
            },
            {
                "name": "E5",
                "midi": 76,
                "time": 55.33327799999999,
                "velocity": 0.889763779527559,
                "duration": 0.3333330000000032
            },
            {
                "name": "D5",
                "midi": 74,
                "time": 55.666610999999996,
                "velocity": 0.8346456692913385,
                "duration": 0.3333330000000032
            },
            {
                "name": "D5",
                "midi": 74,
                "time": 55.999944,
                "velocity": 0.7716535433070866,
                "duration": 0.679860431249999
            },
            {
                "name": "C#5",
                "midi": 73,
                "time": 56.66661,
                "velocity": 0.7559055118110236,
                "duration": 0.6326382562499973
            },
            {
                "name": "A4",
                "midi": 69,
                "time": 57.333276,
                "velocity": 0.7559055118110236,
                "duration": 0.3333330000000032
            },
            {
                "name": "A4",
                "midi": 69,
                "time": 57.666609,
                "velocity": 0.7480314960629921,
                "duration": 0.3333330000000032
            },
            {
                "name": "D5",
                "midi": 74,
                "time": 57.999942000000004,
                "velocity": 0.8976377952755905,
                "duration": 0.9999990000000025
            },
            {
                "name": "E5",
                "midi": 76,
                "time": 58.99994100000001,
                "velocity": 1,
                "duration": 0.3333330000000032
            },
            {
                "name": "F#5",
                "midi": 78,
                "time": 59.33327400000001,
                "velocity": 0.9763779527559056,
                "duration": 0.3333330000000032
            },
            {
                "name": "G5",
                "midi": 79,
                "time": 59.66660700000001,
                "velocity": 0.984251968503937,
                "duration": 0.3333330000000032
            },
            {
                "name": "A5",
                "midi": 81,
                "time": 59.99994000000002,
                "velocity": 0.7952755905511811,
                "duration": 1.3333319999999986
            },
            {
                "name": "D5",
                "midi": 74,
                "time": 61.333272000000015,
                "velocity": 0.6377952755905512,
                "duration": 0.33888855000000007
            },
            {
                "name": "E5",
                "midi": 76,
                "time": 61.66660500000002,
                "velocity": 0.6299212598425197,
                "duration": 0.3152774624999992
            },
            {
                "name": "F#5",
                "midi": 78,
                "time": 61.999938000000014,
                "velocity": 0.8188976377952756,
                "duration": 1.0180545374999994
            },
            {
                "name": "G5",
                "midi": 79,
                "time": 62.99993700000002,
                "velocity": 0.8661417322834646,
                "duration": 0.3152774624999992
            },
            {
                "name": "E5",
                "midi": 76,
                "time": 63.33327000000001,
                "velocity": 0.7322834645669292,
                "duration": 0.6666659999999993
            },
            {
                "name": "D5",
                "midi": 74,
                "time": 63.99993600000001,
                "velocity": 0.7401574803149606,
                "duration": 1.999997999999998
            }
        ]/*,
        "controlChanges": {
            "7": [
                {
                    "number": 7,
                    "time": 1.333332,
                    "value": 0.7874015748031497
                }
            ],
            "10": [
                {
                    "number": 10,
                    "time": 1.333332,
                    "value": 0.25196850393700787
                }
            ],
            "64": [
                {
                    "number": 64,
                    "time": 1.333332,
                    "value": 0
                }
            ],
            "91": [
                {
                    "number": 91,
                    "time": 1.333332,
                    "value": 0.3779527559055118
                }
            ],
            "121": [
                {
                    "number": 121,
                    "time": 1.333332,
                    "value": 0
                }
            ]
        }
    },
    {
        "startTime": 1.999998,
        "duration": 65.333268,
        "length": 262,
        "id": 2,
        "name": "Piano",
        "instrumentNumber": 0,
        "instrument": "acoustic grand piano",
        "instrumentFamily": "piano",
        "channelNumber": 0,
        "isPercussion": false,
        "notes": [
            {
                "name": "D3",
                "midi": 50,
                "time": 1.999998,
                "velocity": 0.6771653543307087,
                "duration": 0.666666
            },
            {
                "name": "A3",
                "midi": 57,
                "time": 1.999998,
                "velocity": 0.6771653543307087,
                "duration": 0.666666
            },
            {
                "name": "D4",
                "midi": 62,
                "time": 1.999998,
                "velocity": 0.6771653543307087,
                "duration": 0.666666
            },
            {
                "name": "D2",
                "midi": 38,
                "time": 1.999998,
                "velocity": 0.6771653543307087,
                "duration": 0.666666
            },
            {
                "name": "D4",
                "midi": 62,
                "time": 2.666664,
                "velocity": 0.8188976377952756,
                "duration": 0.6666660000000002
            },
            {
                "name": "D3",
                "midi": 50,
                "time": 2.666664,
                "velocity": 0.84251968503937,
                "duration": 0.6666660000000002
            },
            {
                "name": "A3",
                "midi": 57,
                "time": 2.666664,
                "velocity": 0.84251968503937,
                "duration": 0.6666660000000002
            },
            {
                "name": "C#4",
                "midi": 61,
                "time": 3.33333,
                "velocity": 0.7086614173228346,
                "duration": 0.6666660000000002
            },
            {
                "name": "C#3",
                "midi": 49,
                "time": 3.33333,
                "velocity": 0.7007874015748031,
                "duration": 0.6666660000000002
            },
            {
                "name": "F#3",
                "midi": 54,
                "time": 3.9999960000000003,
                "velocity": 0.7716535433070866,
                "duration": 1.3333320000000004
            },
            {
                "name": "B3",
                "midi": 59,
                "time": 3.9999960000000003,
                "velocity": 0.7716535433070866,
                "duration": 1.3333320000000004
            },
            {
                "name": "D4",
                "midi": 62,
                "time": 3.9999960000000003,
                "velocity": 0.7716535433070866,
                "duration": 1.3333320000000004
            },
            {
                "name": "B2",
                "midi": 47,
                "time": 3.9999960000000003,
                "velocity": 0.7559055118110236,
                "duration": 0.6666660000000002
            },
            {
                "name": "F#3",
                "midi": 54,
                "time": 4.6666620000000005,
                "velocity": 0.7637795275590551,
                "duration": 0.6666660000000002
            },
            {
                "name": "F#3",
                "midi": 54,
                "time": 5.333328000000001,
                "velocity": 0.8503937007874016,
                "duration": 0.6666660000000002
            },
            {
                "name": "A#3",
                "midi": 58,
                "time": 5.333328000000001,
                "velocity": 0.8503937007874016,
                "duration": 0.6666660000000002
            },
            {
                "name": "F#4",
                "midi": 66,
                "time": 5.333328000000001,
                "velocity": 0.8503937007874016,
                "duration": 0.6666660000000002
            },
            {
                "name": "F#2",
                "midi": 42,
                "time": 5.333328000000001,
                "velocity": 0.7007874015748031,
                "duration": 0.6666660000000002
            },
            {
                "name": "F#3",
                "midi": 54,
                "time": 5.999994000000001,
                "velocity": 0.7401574803149606,
                "duration": 0.6666660000000002
            },
            {
                "name": "B3",
                "midi": 59,
                "time": 5.999994000000001,
                "velocity": 0.7401574803149606,
                "duration": 0.6666660000000002
            },
            {
                "name": "D4",
                "midi": 62,
                "time": 5.999994000000001,
                "velocity": 0.7401574803149606,
                "duration": 0.6666660000000002
            },
            {
                "name": "B2",
                "midi": 47,
                "time": 5.999994000000001,
                "velocity": 0.8267716535433071,
                "duration": 0.6666660000000002
            },
            {
                "name": "F#3",
                "midi": 54,
                "time": 6.666660000000001,
                "velocity": 0.7244094488188977,
                "duration": 0.6666660000000002
            },
            {
                "name": "B2",
                "midi": 47,
                "time": 6.666660000000001,
                "velocity": 0.8267716535433071,
                "duration": 0.6666660000000002
            },
            {
                "name": "G#3",
                "midi": 56,
                "time": 7.333326000000001,
                "velocity": 0.9763779527559056,
                "duration": 0.6666660000000002
            },
            {
                "name": "D4",
                "midi": 62,
                "time": 7.333326000000001,
                "velocity": 0.9763779527559056,
                "duration": 0.6666660000000002
            },
            {
                "name": "E4",
                "midi": 64,
                "time": 7.333326000000001,
                "velocity": 0.9763779527559056,
                "duration": 0.6666660000000002
            },
            {
                "name": "B2",
                "midi": 47,
                "time": 7.333326000000001,
                "velocity": 0.7795275590551181,
                "duration": 0.6666660000000002
            },
            {
                "name": "A3",
                "midi": 57,
                "time": 7.9999920000000015,
                "velocity": 0.8188976377952756,
                "duration": 1.3333319999999995
            },
            {
                "name": "C#4",
                "midi": 61,
                "time": 7.9999920000000015,
                "velocity": 0.8188976377952756,
                "duration": 1.3333319999999995
            },
            {
                "name": "E4",
                "midi": 64,
                "time": 7.9999920000000015,
                "velocity": 0.8188976377952756,
                "duration": 1.3333319999999995
            },
            {
                "name": "A2",
                "midi": 45,
                "time": 7.9999920000000015,
                "velocity": 0.7086614173228346,
                "duration": 0.6666660000000002
            },
            {
                "name": "C#3",
                "midi": 49,
                "time": 8.666658000000002,
                "velocity": 0.8188976377952756,
                "duration": 0.6666659999999993
            },
            {
                "name": "A3",
                "midi": 57,
                "time": 9.333324000000001,
                "velocity": 0.7007874015748031,
                "duration": 0.33333299999999966
            },
            {
                "name": "E3",
                "midi": 52,
                "time": 9.333324000000001,
                "velocity": 0.8188976377952756,
                "duration": 0.6666659999999993
            },
            {
                "name": "A3",
                "midi": 57,
                "time": 9.666657,
                "velocity": 0.7716535433070866,
                "duration": 0.33333299999999966
            },
            {
                "name": "F#3",
                "midi": 54,
                "time": 9.99999,
                "velocity": 0.8740157480314961,
                "duration": 1.3333319999999986
            },
            {
                "name": "A3",
                "midi": 57,
                "time": 9.99999,
                "velocity": 0.8740157480314961,
                "duration": 1.3333319999999986
            },
            {
                "name": "D4",
                "midi": 62,
                "time": 9.99999,
                "velocity": 0.8740157480314961,
                "duration": 1.3333319999999986
            },
            {
                "name": "D2",
                "midi": 38,
                "time": 9.99999,
                "velocity": 0.6535433070866141,
                "duration": 0.6666659999999993
            },
            {
                "name": "A2",
                "midi": 45,
                "time": 10.666656,
                "velocity": 0.84251968503937,
                "duration": 0.6666659999999993
            },
            {
                "name": "F#3",
                "midi": 54,
                "time": 11.333321999999999,
                "velocity": 0.8031496062992126,
                "duration": 0.6666659999999993
            },
            {
                "name": "B3",
                "midi": 59,
                "time": 11.333321999999999,
                "velocity": 0.8031496062992126,
                "duration": 0.6666659999999993
            },
            {
                "name": "D4",
                "midi": 62,
                "time": 11.333321999999999,
                "velocity": 0.8031496062992126,
                "duration": 0.6666659999999993
            },
            {
                "name": "B2",
                "midi": 47,
                "time": 11.333321999999999,
                "velocity": 0.8031496062992126,
                "duration": 0.6666659999999993
            },
            {
                "name": "A3",
                "midi": 57,
                "time": 11.999987999999998,
                "velocity": 0.7559055118110236,
                "duration": 1.3333319999999986
            },
            {
                "name": "C#4",
                "midi": 61,
                "time": 11.999987999999998,
                "velocity": 0.7559055118110236,
                "duration": 1.3333319999999986
            },
            {
                "name": "A2",
                "midi": 45,
                "time": 11.999987999999998,
                "velocity": 0.7007874015748031,
                "duration": 0.6666659999999993
            },
            {
                "name": "C#3",
                "midi": 49,
                "time": 12.666653999999998,
                "velocity": 0.8110236220472441,
                "duration": 0.6666659999999993
            },
            {
                "name": "G3",
                "midi": 55,
                "time": 13.333319999999997,
                "velocity": 0.7401574803149606,
                "duration": 0.6666659999999993
            },
            {
                "name": "B3",
                "midi": 59,
                "time": 13.333319999999997,
                "velocity": 0.7401574803149606,
                "duration": 0.6666659999999993
            },
            {
                "name": "E3",
                "midi": 52,
                "time": 13.333319999999997,
                "velocity": 0.7952755905511811,
                "duration": 0.6666659999999993
            },
            {
                "name": "F#3",
                "midi": 54,
                "time": 13.999985999999996,
                "velocity": 0.8503937007874016,
                "duration": 0.6666659999999993
            },
            {
                "name": "D4",
                "midi": 62,
                "time": 13.999985999999996,
                "velocity": 0.8503937007874016,
                "duration": 0.6666659999999993
            },
            {
                "name": "D2",
                "midi": 38,
                "time": 13.999985999999996,
                "velocity": 0.6771653543307087,
                "duration": 0.6666659999999993
            },
            {
                "name": "F#3",
                "midi": 54,
                "time": 14.666651999999996,
                "velocity": 0.7952755905511811,
                "duration": 0.6666659999999993
            },
            {
                "name": "D4",
                "midi": 62,
                "time": 14.666651999999996,
                "velocity": 0.7952755905511811,
                "duration": 0.6666659999999993
            },
            {
                "name": "D3",
                "midi": 50,
                "time": 14.666651999999996,
                "velocity": 0.8503937007874016,
                "duration": 0.6666659999999993
            },
            {
                "name": "F#3",
                "midi": 54,
                "time": 15.333317999999995,
                "velocity": 0.7165354330708661,
                "duration": 0.6666659999999993
            },
            {
                "name": "A3",
                "midi": 57,
                "time": 15.333317999999995,
                "velocity": 0.7165354330708661,
                "duration": 0.6666659999999993
            },
            {
                "name": "A2",
                "midi": 45,
                "time": 15.333317999999995,
                "velocity": 0.7244094488188977,
                "duration": 0.6666659999999993
            },
            {
                "name": "F#3",
                "midi": 54,
                "time": 15.999983999999994,
                "velocity": 0.7165354330708661,
                "duration": 0.6666659999999993
            },
            {
                "name": "F#2",
                "midi": 42,
                "time": 15.999983999999994,
                "velocity": 0.7322834645669292,
                "duration": 0.6666659999999993
            },
            {
                "name": "D3",
                "midi": 50,
                "time": 16.666649999999994,
                "velocity": 0.7086614173228346,
                "duration": 0.6666659999999993
            },
            {
                "name": "D2",
                "midi": 38,
                "time": 16.666649999999994,
                "velocity": 0.7244094488188977,
                "duration": 0.6666659999999993
            },
            {
                "name": "A3",
                "midi": 57,
                "time": 17.333315999999993,
                "velocity": 0.8188976377952756,
                "duration": 0.49999950000000126
            },
            {
                "name": "A2",
                "midi": 45,
                "time": 17.333315999999993,
                "velocity": 0.889763779527559,
                "duration": 0.6666660000000029
            },
            {
                "name": "F#3",
                "midi": 54,
                "time": 17.833315499999994,
                "velocity": 0.7559055118110236,
                "duration": 0.1666665000000016
            },
            {
                "name": "D3",
                "midi": 50,
                "time": 17.999981999999996,
                "velocity": 0.6929133858267716,
                "duration": 0.6666659999999993
            },
            {
                "name": "D2",
                "midi": 38,
                "time": 17.999981999999996,
                "velocity": 0.7086614173228346,
                "duration": 0.6666659999999993
            },
            {
                "name": "F#3",
                "midi": 54,
                "time": 18.666647999999995,
                "velocity": 0.8188976377952756,
                "duration": 0.6666659999999993
            },
            {
                "name": "D3",
                "midi": 50,
                "time": 18.666647999999995,
                "velocity": 0.8661417322834646,
                "duration": 0.6666659999999993
            },
            {
                "name": "F#3",
                "midi": 54,
                "time": 19.333313999999994,
                "velocity": 0.8110236220472441,
                "duration": 0.6666659999999993
            },
            {
                "name": "A3",
                "midi": 57,
                "time": 19.333313999999994,
                "velocity": 0.8110236220472441,
                "duration": 0.6666659999999993
            },
            {
                "name": "C#3",
                "midi": 49,
                "time": 19.333313999999994,
                "velocity": 0.8031496062992126,
                "duration": 0.6666659999999993
            },
            {
                "name": "F#3",
                "midi": 54,
                "time": 19.999979999999994,
                "velocity": 0.8740157480314961,
                "duration": 1.3333319999999986
            },
            {
                "name": "B3",
                "midi": 59,
                "time": 19.999979999999994,
                "velocity": 0.8740157480314961,
                "duration": 1.3333319999999986
            },
            {
                "name": "D4",
                "midi": 62,
                "time": 19.999979999999994,
                "velocity": 0.8740157480314961,
                "duration": 1.3333319999999986
            },
            {
                "name": "B2",
                "midi": 47,
                "time": 19.999979999999994,
                "velocity": 0.7480314960629921,
                "duration": 0.6666659999999993
            },
            {
                "name": "F#3",
                "midi": 54,
                "time": 20.666645999999993,
                "velocity": 0.8346456692913385,
                "duration": 0.6666659999999993
            },
            {
                "name": "F#3",
                "midi": 54,
                "time": 21.333311999999992,
                "velocity": 0.8976377952755905,
                "duration": 0.6666659999999993
            },
            {
                "name": "A#3",
                "midi": 58,
                "time": 21.333311999999992,
                "velocity": 0.8976377952755905,
                "duration": 0.6666659999999993
            },
            {
                "name": "F#4",
                "midi": 66,
                "time": 21.333311999999992,
                "velocity": 0.8976377952755905,
                "duration": 0.6666659999999993
            },
            {
                "name": "F#2",
                "midi": 42,
                "time": 21.333311999999992,
                "velocity": 0.6692913385826772,
                "duration": 0.6666659999999993
            },
            {
                "name": "F#3",
                "midi": 54,
                "time": 21.99997799999999,
                "velocity": 0.7244094488188977,
                "duration": 1.3333319999999986
            },
            {
                "name": "B3",
                "midi": 59,
                "time": 21.99997799999999,
                "velocity": 0.7244094488188977,
                "duration": 1.3333319999999986
            },
            {
                "name": "D4",
                "midi": 62,
                "time": 21.99997799999999,
                "velocity": 0.7244094488188977,
                "duration": 1.3333319999999986
            },
            {
                "name": "B2",
                "midi": 47,
                "time": 21.99997799999999,
                "velocity": 0.8267716535433071,
                "duration": 0.6666659999999993
            },
            {
                "name": "D3",
                "midi": 50,
                "time": 22.66664399999999,
                "velocity": 0.8110236220472441,
                "duration": 0.6666659999999993
            },
            {
                "name": "G#3",
                "midi": 56,
                "time": 23.33330999999999,
                "velocity": 0.8267716535433071,
                "duration": 0.6666659999999993
            },
            {
                "name": "D4",
                "midi": 62,
                "time": 23.33330999999999,
                "velocity": 0.8267716535433071,
                "duration": 0.6666659999999993
            },
            {
                "name": "E4",
                "midi": 64,
                "time": 23.33330999999999,
                "velocity": 0.8267716535433071,
                "duration": 0.6666659999999993
            },
            {
                "name": "B2",
                "midi": 47,
                "time": 23.33330999999999,
                "velocity": 0.7480314960629921,
                "duration": 0.6666659999999993
            },
            {
                "name": "A3",
                "midi": 57,
                "time": 23.99997599999999,
                "velocity": 0.7795275590551181,
                "duration": 1.3333319999999986
            },
            {
                "name": "C#4",
                "midi": 61,
                "time": 23.99997599999999,
                "velocity": 0.7795275590551181,
                "duration": 1.3333319999999986
            },
            {
                "name": "E4",
                "midi": 64,
                "time": 23.99997599999999,
                "velocity": 0.7795275590551181,
                "duration": 1.3333319999999986
            },
            {
                "name": "A2",
                "midi": 45,
                "time": 23.99997599999999,
                "velocity": 0.7480314960629921,
                "duration": 0.6666659999999993
            },
            {
                "name": "C#3",
                "midi": 49,
                "time": 24.66664199999999,
                "velocity": 0.7637795275590551,
                "duration": 0.6666659999999993
            },
            {
                "name": "A3",
                "midi": 57,
                "time": 25.333307999999988,
                "velocity": 0.6850393700787402,
                "duration": 0.6666659999999993
            },
            {
                "name": "E3",
                "midi": 52,
                "time": 25.333307999999988,
                "velocity": 0.8267716535433071,
                "duration": 0.6666659999999993
            },
            {
                "name": "F#4",
                "midi": 66,
                "time": 25.999973999999987,
                "velocity": 0.9133858267716536,
                "duration": 0.999998999999999
            },
            {
                "name": "D2",
                "midi": 38,
                "time": 25.999973999999987,
                "velocity": 0.6614173228346457,
                "duration": 0.6666659999999993
            },
            {
                "name": "A2",
                "midi": 45,
                "time": 26.666639999999987,
                "velocity": 0.8110236220472441,
                "duration": 0.6666659999999993
            },
            {
                "name": "E4",
                "midi": 64,
                "time": 26.999972999999986,
                "velocity": 0.7244094488188977,
                "duration": 0.33333299999999966
            },
            {
                "name": "D4",
                "midi": 62,
                "time": 27.333305999999986,
                "velocity": 0.7165354330708661,
                "duration": 0.6666659999999993
            },
            {
                "name": "B2",
                "midi": 47,
                "time": 27.333305999999986,
                "velocity": 0.8346456692913385,
                "duration": 0.6666659999999993
            },
            {
                "name": "A3",
                "midi": 57,
                "time": 27.999971999999985,
                "velocity": 0.7165354330708661,
                "duration": 1.3333319999999986
            },
            {
                "name": "C#4",
                "midi": 61,
                "time": 27.999971999999985,
                "velocity": 0.7165354330708661,
                "duration": 1.3333319999999986
            },
            {
                "name": "A2",
                "midi": 45,
                "time": 27.999971999999985,
                "velocity": 0.7480314960629921,
                "duration": 0.6666659999999993
            },
            {
                "name": "C#3",
                "midi": 49,
                "time": 28.666637999999985,
                "velocity": 0.8110236220472441,
                "duration": 0.6666659999999993
            },
            {
                "name": "G3",
                "midi": 55,
                "time": 29.333303999999984,
                "velocity": 0.7165354330708661,
                "duration": 0.6666659999999993
            },
            {
                "name": "B3",
                "midi": 59,
                "time": 29.333303999999984,
                "velocity": 0.7165354330708661,
                "duration": 0.6666659999999993
            },
            {
                "name": "E3",
                "midi": 52,
                "time": 29.333303999999984,
                "velocity": 0.8110236220472441,
                "duration": 0.6666659999999993
            },
            {
                "name": "F#3",
                "midi": 54,
                "time": 29.999969999999983,
                "velocity": 0.8503937007874016,
                "duration": 0.6666659999999993
            },
            {
                "name": "D4",
                "midi": 62,
                "time": 29.999969999999983,
                "velocity": 0.8503937007874016,
                "duration": 0.6666659999999993
            },
            {
                "name": "D2",
                "midi": 38,
                "time": 29.999969999999983,
                "velocity": 0.6456692913385826,
                "duration": 0.6666659999999993
            },
            {
                "name": "D4",
                "midi": 62,
                "time": 30.666635999999983,
                "velocity": 0.7795275590551181,
                "duration": 0.6666659999999993
            },
            {
                "name": "A2",
                "midi": 45,
                "time": 30.666635999999983,
                "velocity": 0.8110236220472441,
                "duration": 0.6666659999999993
            },
            {
                "name": "A3",
                "midi": 57,
                "time": 31.333301999999982,
                "velocity": 0.7637795275590551,
                "duration": 0.6666659999999993
            },
            {
                "name": "A2",
                "midi": 45,
                "time": 31.333301999999982,
                "velocity": 0.8110236220472441,
                "duration": 0.6666659999999993
            },
            {
                "name": "F#3",
                "midi": 54,
                "time": 31.99996799999998,
                "velocity": 0.7480314960629921,
                "duration": 0.6666659999999993
            },
            {
                "name": "F#2",
                "midi": 42,
                "time": 31.99996799999998,
                "velocity": 0.7637795275590551,
                "duration": 0.6666659999999993
            },
            {
                "name": "D3",
                "midi": 50,
                "time": 32.66663399999998,
                "velocity": 0.7322834645669292,
                "duration": 0.6666659999999993
            },
            {
                "name": "D2",
                "midi": 38,
                "time": 32.66663399999998,
                "velocity": 0.7637795275590551,
                "duration": 0.6666659999999993
            },
            {
                "name": "D3",
                "midi": 50,
                "time": 33.99996599999998,
                "velocity": 0.4251968503937008,
                "duration": 0.6666659999999993
            },
            {
                "name": "F#3",
                "midi": 54,
                "time": 34.66663199999998,
                "velocity": 0.3937007874015748,
                "duration": 0.6666659999999993
            },
            {
                "name": "A3",
                "midi": 57,
                "time": 34.66663199999998,
                "velocity": 0.3937007874015748,
                "duration": 0.6666659999999993
            },
            {
                "name": "D4",
                "midi": 62,
                "time": 34.66663199999998,
                "velocity": 0.3937007874015748,
                "duration": 0.6666659999999993
            },
            {
                "name": "F#3",
                "midi": 54,
                "time": 35.33329799999998,
                "velocity": 0.48031496062992124,
                "duration": 0.6666659999999993
            },
            {
                "name": "A3",
                "midi": 57,
                "time": 35.33329799999998,
                "velocity": 0.48031496062992124,
                "duration": 0.6666659999999993
            },
            {
                "name": "D4",
                "midi": 62,
                "time": 35.33329799999998,
                "velocity": 0.48031496062992124,
                "duration": 0.6666659999999993
            },
            {
                "name": "D3",
                "midi": 50,
                "time": 35.99996399999998,
                "velocity": 0.4330708661417323,
                "duration": 0.6666659999999993
            },
            {
                "name": "F#3",
                "midi": 54,
                "time": 36.66662999999998,
                "velocity": 0.4330708661417323,
                "duration": 0.6666659999999993
            },
            {
                "name": "A3",
                "midi": 57,
                "time": 36.66662999999998,
                "velocity": 0.4330708661417323,
                "duration": 0.6666659999999993
            },
            {
                "name": "D4",
                "midi": 62,
                "time": 36.66662999999998,
                "velocity": 0.4330708661417323,
                "duration": 0.6666659999999993
            },
            {
                "name": "F#3",
                "midi": 54,
                "time": 37.333295999999976,
                "velocity": 0.44881889763779526,
                "duration": 0.6666659999999993
            },
            {
                "name": "A3",
                "midi": 57,
                "time": 37.333295999999976,
                "velocity": 0.44881889763779526,
                "duration": 0.6666659999999993
            },
            {
                "name": "D4",
                "midi": 62,
                "time": 37.333295999999976,
                "velocity": 0.44881889763779526,
                "duration": 0.6666659999999993
            },
            {
                "name": "C#3",
                "midi": 49,
                "time": 37.999961999999975,
                "velocity": 0.4015748031496063,
                "duration": 0.6666659999999993
            },
            {
                "name": "E3",
                "midi": 52,
                "time": 38.666627999999974,
                "velocity": 0.41732283464566927,
                "duration": 0.6666659999999993
            },
            {
                "name": "A3",
                "midi": 57,
                "time": 38.666627999999974,
                "velocity": 0.41732283464566927,
                "duration": 0.6666659999999993
            },
            {
                "name": "C#4",
                "midi": 61,
                "time": 38.666627999999974,
                "velocity": 0.41732283464566927,
                "duration": 0.6666659999999993
            },
            {
                "name": "E3",
                "midi": 52,
                "time": 39.333293999999974,
                "velocity": 0.48031496062992124,
                "duration": 0.6666659999999993
            },
            {
                "name": "A3",
                "midi": 57,
                "time": 39.333293999999974,
                "velocity": 0.48031496062992124,
                "duration": 0.6666659999999993
            },
            {
                "name": "C#4",
                "midi": 61,
                "time": 39.333293999999974,
                "velocity": 0.48031496062992124,
                "duration": 0.6666659999999993
            },
            {
                "name": "A2",
                "midi": 45,
                "time": 39.99995999999997,
                "velocity": 0.4330708661417323,
                "duration": 0.6666659999999993
            },
            {
                "name": "E3",
                "midi": 52,
                "time": 40.66662599999997,
                "velocity": 0.4330708661417323,
                "duration": 0.6666659999999993
            },
            {
                "name": "A3",
                "midi": 57,
                "time": 40.66662599999997,
                "velocity": 0.4330708661417323,
                "duration": 0.6666659999999993
            },
            {
                "name": "C#4",
                "midi": 61,
                "time": 40.66662599999997,
                "velocity": 0.4330708661417323,
                "duration": 0.6666659999999993
            },
            {
                "name": "E3",
                "midi": 52,
                "time": 41.33329199999997,
                "velocity": 0.47244094488188976,
                "duration": 0.6666659999999993
            },
            {
                "name": "A3",
                "midi": 57,
                "time": 41.33329199999997,
                "velocity": 0.47244094488188976,
                "duration": 0.6666659999999993
            },
            {
                "name": "C#4",
                "midi": 61,
                "time": 41.33329199999997,
                "velocity": 0.47244094488188976,
                "duration": 0.6666659999999993
            },
            {
                "name": "F#3",
                "midi": 54,
                "time": 41.99995799999997,
                "velocity": 0.5275590551181102,
                "duration": 1.3333319999999986
            },
            {
                "name": "A3",
                "midi": 57,
                "time": 41.99995799999997,
                "velocity": 0.5275590551181102,
                "duration": 1.3333319999999986
            },
            {
                "name": "D4",
                "midi": 62,
                "time": 41.99995799999997,
                "velocity": 0.5275590551181102,
                "duration": 1.3333319999999986
            },
            {
                "name": "D2",
                "midi": 38,
                "time": 41.99995799999997,
                "velocity": 0.4330708661417323,
                "duration": 0.6666659999999993
            },
            {
                "name": "D3",
                "midi": 50,
                "time": 42.66662399999997,
                "velocity": 0.5275590551181102,
                "duration": 0.6666659999999993
            },
            {
                "name": "D4",
                "midi": 62,
                "time": 43.33328999999997,
                "velocity": 0.47244094488188976,
                "duration": 0.6666659999999993
            },
            {
                "name": "B2",
                "midi": 47,
                "time": 43.33328999999997,
                "velocity": 0.4645669291338583,
                "duration": 0.6666659999999993
            },
            {
                "name": "E3",
                "midi": 52,
                "time": 43.99995599999997,
                "velocity": 0.47244094488188976,
                "duration": 1.3333319999999986
            },
            {
                "name": "A3",
                "midi": 57,
                "time": 43.99995599999997,
                "velocity": 0.47244094488188976,
                "duration": 1.3333319999999986
            },
            {
                "name": "C#4",
                "midi": 61,
                "time": 43.99995599999997,
                "velocity": 0.47244094488188976,
                "duration": 1.3333319999999986
            },
            {
                "name": "A2",
                "midi": 45,
                "time": 43.99995599999997,
                "velocity": 0.4409448818897638,
                "duration": 0.6666659999999993
            },
            {
                "name": "G2",
                "midi": 43,
                "time": 44.66662199999997,
                "velocity": 0.5275590551181102,
                "duration": 0.6666659999999993
            },
            {
                "name": "G3",
                "midi": 55,
                "time": 45.33328799999997,
                "velocity": 0.5275590551181102,
                "duration": 0.6666659999999993
            },
            {
                "name": "B3",
                "midi": 59,
                "time": 45.33328799999997,
                "velocity": 0.5275590551181102,
                "duration": 0.6666659999999993
            },
            {
                "name": "E2",
                "midi": 40,
                "time": 45.33328799999997,
                "velocity": 0.5354330708661418,
                "duration": 0.6666659999999993
            },
            {
                "name": "F#3",
                "midi": 54,
                "time": 45.99995399999997,
                "velocity": 0.6141732283464567,
                "duration": 0.6666659999999993
            },
            {
                "name": "D4",
                "midi": 62,
                "time": 45.99995399999997,
                "velocity": 0.6141732283464567,
                "duration": 0.6666659999999993
            },
            {
                "name": "D2",
                "midi": 38,
                "time": 45.99995399999997,
                "velocity": 0.6062992125984252,
                "duration": 0.6666659999999993
            },
            {
                "name": "F#3",
                "midi": 54,
                "time": 46.666619999999966,
                "velocity": 0.5826771653543307,
                "duration": 0.6666659999999993
            },
            {
                "name": "A2",
                "midi": 45,
                "time": 46.666619999999966,
                "velocity": 0.6614173228346457,
                "duration": 0.6666659999999993
            },
            {
                "name": "B2",
                "midi": 47,
                "time": 47.333285999999966,
                "velocity": 0.7086614173228346,
                "duration": 0.6666659999999993
            },
            {
                "name": "G#3",
                "midi": 56,
                "time": 47.333285999999966,
                "velocity": 0.7086614173228346,
                "duration": 0.6666659999999993
            },
            {
                "name": "E3",
                "midi": 52,
                "time": 47.333285999999966,
                "velocity": 0.7322834645669292,
                "duration": 0.6666659999999993
            },
            {
                "name": "C#3",
                "midi": 49,
                "time": 47.999951999999965,
                "velocity": 0.7007874015748031,
                "duration": 1.3333319999999986
            },
            {
                "name": "E3",
                "midi": 52,
                "time": 47.999951999999965,
                "velocity": 0.7007874015748031,
                "duration": 1.3333319999999986
            },
            {
                "name": "A3",
                "midi": 57,
                "time": 47.999951999999965,
                "velocity": 0.7007874015748031,
                "duration": 1.3333319999999986
            },
            {
                "name": "A2",
                "midi": 45,
                "time": 47.999951999999965,
                "velocity": 0.6456692913385826,
                "duration": 0.6666659999999993
            },
            {
                "name": "E2",
                "midi": 40,
                "time": 48.666617999999964,
                "velocity": 0.6850393700787402,
                "duration": 0.6666659999999993
            },
            {
                "name": "A3",
                "midi": 57,
                "time": 49.33328399999996,
                "velocity": 0.8031496062992126,
                "duration": 0.6666659999999993
            },
            {
                "name": "A2",
                "midi": 45,
                "time": 49.33328399999996,
                "velocity": 0.8267716535433071,
                "duration": 0.6666659999999993
            },
            {
                "name": "F#3",
                "midi": 54,
                "time": 49.99994999999996,
                "velocity": 0.8740157480314961,
                "duration": 0.6666659999999993
            },
            {
                "name": "D4",
                "midi": 62,
                "time": 49.99994999999996,
                "velocity": 0.8740157480314961,
                "duration": 0.6666659999999993
            },
            {
                "name": "D3",
                "midi": 50,
                "time": 49.99994999999996,
                "velocity": 0.8661417322834646,
                "duration": 0.6666659999999993
            },
            {
                "name": "F#3",
                "midi": 54,
                "time": 50.66661599999996,
                "velocity": 0.7401574803149606,
                "duration": 0.6666659999999993
            },
            {
                "name": "D4",
                "midi": 62,
                "time": 50.66661599999996,
                "velocity": 0.7401574803149606,
                "duration": 0.6666659999999993
            },
            {
                "name": "F#2",
                "midi": 42,
                "time": 50.66661599999996,
                "velocity": 0.7007874015748031,
                "duration": 0.6666659999999993
            },
            {
                "name": "D4",
                "midi": 62,
                "time": 51.33328199999996,
                "velocity": 0.7716535433070866,
                "duration": 0.3333330000000032
            },
            {
                "name": "A2",
                "midi": 45,
                "time": 51.33328199999996,
                "velocity": 0.8267716535433071,
                "duration": 0.6666660000000064
            },
            {
                "name": "C#4",
                "midi": 61,
                "time": 51.666614999999965,
                "velocity": 0.7322834645669292,
                "duration": 0.3333330000000032
            },
            {
                "name": "G3",
                "midi": 55,
                "time": 51.99994799999997,
                "velocity": 0.7244094488188977,
                "duration": 0.6666659999999993
            },
            {
                "name": "B3",
                "midi": 59,
                "time": 51.99994799999997,
                "velocity": 0.7244094488188977,
                "duration": 0.6666659999999993
            },
            {
                "name": "G2",
                "midi": 43,
                "time": 51.99994799999997,
                "velocity": 0.7637795275590551,
                "duration": 0.6666659999999993
            },
            {
                "name": "G3",
                "midi": 55,
                "time": 52.66661399999997,
                "velocity": 0.7637795275590551,
                "duration": 0.6666659999999993
            },
            {
                "name": "B3",
                "midi": 59,
                "time": 52.66661399999997,
                "velocity": 0.7637795275590551,
                "duration": 0.6666659999999993
            },
            {
                "name": "E2",
                "midi": 40,
                "time": 52.66661399999997,
                "velocity": 0.7244094488188977,
                "duration": 0.6666659999999993
            },
            {
                "name": "G3",
                "midi": 55,
                "time": 53.33327999999997,
                "velocity": 0.7637795275590551,
                "duration": 0.6666659999999993
            },
            {
                "name": "B3",
                "midi": 59,
                "time": 53.33327999999997,
                "velocity": 0.7637795275590551,
                "duration": 0.6666659999999993
            },
            {
                "name": "G2",
                "midi": 43,
                "time": 53.33327999999997,
                "velocity": 0.7952755905511811,
                "duration": 0.6666659999999993
            },
            {
                "name": "G3",
                "midi": 55,
                "time": 53.999945999999966,
                "velocity": 0.8582677165354331,
                "duration": 0.6666659999999993
            },
            {
                "name": "B3",
                "midi": 59,
                "time": 53.999945999999966,
                "velocity": 0.8582677165354331,
                "duration": 0.6666659999999993
            },
            {
                "name": "E4",
                "midi": 64,
                "time": 53.999945999999966,
                "velocity": 0.8582677165354331,
                "duration": 0.6666659999999993
            },
            {
                "name": "B2",
                "midi": 47,
                "time": 53.999945999999966,
                "velocity": 0.8346456692913385,
                "duration": 0.6666659999999993
            },
            {
                "name": "B3",
                "midi": 59,
                "time": 54.666611999999965,
                "velocity": 1,
                "duration": 0.3333330000000032
            },
            {
                "name": "E4",
                "midi": 64,
                "time": 54.666611999999965,
                "velocity": 1,
                "duration": 0.3333330000000032
            },
            {
                "name": "G4",
                "midi": 67,
                "time": 54.666611999999965,
                "velocity": 1,
                "duration": 0.3333330000000032
            },
            {
                "name": "E2",
                "midi": 40,
                "time": 54.666611999999965,
                "velocity": 0.7244094488188977,
                "duration": 0.6666660000000064
            },
            {
                "name": "F#4",
                "midi": 66,
                "time": 54.99994499999997,
                "velocity": 0.889763779527559,
                "duration": 0.3333330000000032
            },
            {
                "name": "B3",
                "midi": 59,
                "time": 55.33327799999997,
                "velocity": 0.8818897637795275,
                "duration": 0.3333330000000032
            },
            {
                "name": "E4",
                "midi": 64,
                "time": 55.33327799999997,
                "velocity": 0.8818897637795275,
                "duration": 0.3333330000000032
            },
            {
                "name": "G2",
                "midi": 43,
                "time": 55.33327799999997,
                "velocity": 0.7716535433070866,
                "duration": 0.6666660000000064
            },
            {
                "name": "D4",
                "midi": 62,
                "time": 55.666610999999975,
                "velocity": 0.8582677165354331,
                "duration": 0.3333330000000032
            },
            {
                "name": "D4",
                "midi": 62,
                "time": 55.99994399999998,
                "velocity": 0.7952755905511811,
                "duration": 0.679860431249999
            },
            {
                "name": "A2",
                "midi": 45,
                "time": 55.99994399999998,
                "velocity": 0.8110236220472441,
                "duration": 0.6666659999999993
            },
            {
                "name": "C#4",
                "midi": 61,
                "time": 56.66660999999998,
                "velocity": 0.7007874015748031,
                "duration": 0.6326382562499973
            },
            {
                "name": "C#3",
                "midi": 49,
                "time": 56.66660999999998,
                "velocity": 0.8188976377952756,
                "duration": 0.6666659999999993
            },
            {
                "name": "E3",
                "midi": 52,
                "time": 56.66660999999998,
                "velocity": 0.8188976377952756,
                "duration": 0.6666659999999993
            },
            {
                "name": "A3",
                "midi": 57,
                "time": 57.33327599999998,
                "velocity": 0.7086614173228346,
                "duration": 0.3333330000000032
            },
            {
                "name": "C#3",
                "midi": 49,
                "time": 57.33327599999998,
                "velocity": 0.7874015748031497,
                "duration": 0.6666660000000064
            },
            {
                "name": "E3",
                "midi": 52,
                "time": 57.33327599999998,
                "velocity": 0.7874015748031497,
                "duration": 0.6666660000000064
            },
            {
                "name": "A3",
                "midi": 57,
                "time": 57.66660899999998,
                "velocity": 0.8031496062992126,
                "duration": 0.3333330000000032
            },
            {
                "name": "F#3",
                "midi": 54,
                "time": 57.99994199999998,
                "velocity": 0.889763779527559,
                "duration": 0.9999990000000025
            },
            {
                "name": "A3",
                "midi": 57,
                "time": 57.99994199999998,
                "velocity": 0.889763779527559,
                "duration": 0.9999990000000025
            },
            {
                "name": "D4",
                "midi": 62,
                "time": 57.99994199999998,
                "velocity": 0.889763779527559,
                "duration": 0.9999990000000025
            },
            {
                "name": "D3",
                "midi": 50,
                "time": 57.99994199999998,
                "velocity": 0.7559055118110236,
                "duration": 0.6666659999999993
            },
            {
                "name": "C#3",
                "midi": 49,
                "time": 58.66660799999998,
                "velocity": 0.7480314960629921,
                "duration": 0.6666660000000064
            },
            {
                "name": "E4",
                "midi": 64,
                "time": 58.999940999999986,
                "velocity": 1,
                "duration": 0.3333330000000032
            },
            {
                "name": "A3",
                "midi": 57,
                "time": 59.33327399999999,
                "velocity": 0.9921259842519685,
                "duration": 0.3333330000000032
            },
            {
                "name": "D4",
                "midi": 62,
                "time": 59.33327399999999,
                "velocity": 0.9921259842519685,
                "duration": 0.3333330000000032
            },
            {
                "name": "F#4",
                "midi": 66,
                "time": 59.33327399999999,
                "velocity": 0.9921259842519685,
                "duration": 0.3333330000000032
            },
            {
                "name": "B2",
                "midi": 47,
                "time": 59.33327399999999,
                "velocity": 0.7401574803149606,
                "duration": 0.6666660000000064
            },
            {
                "name": "G4",
                "midi": 67,
                "time": 59.66660699999999,
                "velocity": 0.9606299212598425,
                "duration": 0.3333330000000032
            },
            {
                "name": "D4",
                "midi": 62,
                "time": 59.999939999999995,
                "velocity": 0.8818897637795275,
                "duration": 1.3333319999999986
            },
            {
                "name": "F#4",
                "midi": 66,
                "time": 59.999939999999995,
                "velocity": 0.8818897637795275,
                "duration": 1.3333319999999986
            },
            {
                "name": "A4",
                "midi": 69,
                "time": 59.999939999999995,
                "velocity": 0.8818897637795275,
                "duration": 1.3333319999999986
            },
            {
                "name": "A2",
                "midi": 45,
                "time": 59.999939999999995,
                "velocity": 0.7716535433070866,
                "duration": 0.6666659999999993
            },
            {
                "name": "D3",
                "midi": 50,
                "time": 60.666605999999994,
                "velocity": 0.8740157480314961,
                "duration": 0.6666659999999993
            },
            {
                "name": "F#3",
                "midi": 54,
                "time": 60.666605999999994,
                "velocity": 0.8740157480314961,
                "duration": 0.6666659999999993
            },
            {
                "name": "F#3",
                "midi": 54,
                "time": 61.333271999999994,
                "velocity": 0.6456692913385826,
                "duration": 0.33888855000000007
            },
            {
                "name": "B3",
                "midi": 59,
                "time": 61.333271999999994,
                "velocity": 0.6456692913385826,
                "duration": 0.33888855000000007
            },
            {
                "name": "D4",
                "midi": 62,
                "time": 61.333271999999994,
                "velocity": 0.6456692913385826,
                "duration": 0.33888855000000007
            },
            {
                "name": "B2",
                "midi": 47,
                "time": 61.333271999999994,
                "velocity": 0.6850393700787402,
                "duration": 0.6666659999999993
            },
            {
                "name": "D3",
                "midi": 50,
                "time": 61.333271999999994,
                "velocity": 0.6850393700787402,
                "duration": 0.6666659999999993
            },
            {
                "name": "E4",
                "midi": 64,
                "time": 61.666605,
                "velocity": 0.6771653543307087,
                "duration": 0.3152774624999992
            },
            {
                "name": "A3",
                "midi": 57,
                "time": 61.99993799999999,
                "velocity": 0.8188976377952756,
                "duration": 0.9999990000000025
            },
            {
                "name": "D4",
                "midi": 62,
                "time": 61.99993799999999,
                "velocity": 0.8188976377952756,
                "duration": 0.9999990000000025
            },
            {
                "name": "F#4",
                "midi": 66,
                "time": 61.99993799999999,
                "velocity": 0.8188976377952756,
                "duration": 0.9999990000000025
            },
            {
                "name": "A2",
                "midi": 45,
                "time": 61.99993799999999,
                "velocity": 0.8110236220472441,
                "duration": 0.6666659999999993
            },
            {
                "name": "D3",
                "midi": 50,
                "time": 61.99993799999999,
                "velocity": 0.8110236220472441,
                "duration": 0.6666659999999993
            },
            {
                "name": "D3",
                "midi": 50,
                "time": 62.66660399999999,
                "velocity": 0.8267716535433071,
                "duration": 0.6666660000000064
            },
            {
                "name": "F#3",
                "midi": 54,
                "time": 62.66660399999999,
                "velocity": 0.8267716535433071,
                "duration": 0.6666660000000064
            },
            {
                "name": "G4",
                "midi": 67,
                "time": 62.999936999999996,
                "velocity": 0.8110236220472441,
                "duration": 0.3333330000000032
            },
            {
                "name": "G3",
                "midi": 55,
                "time": 63.33327,
                "velocity": 0.7086614173228346,
                "duration": 0.6666659999999993
            },
            {
                "name": "C#4",
                "midi": 61,
                "time": 63.33327,
                "velocity": 0.7086614173228346,
                "duration": 0.6666659999999993
            },
            {
                "name": "E4",
                "midi": 64,
                "time": 63.33327,
                "velocity": 0.7086614173228346,
                "duration": 0.6666659999999993
            },
            {
                "name": "A2",
                "midi": 45,
                "time": 63.33327,
                "velocity": 0.6850393700787402,
                "duration": 0.6666659999999993
            },
            {
                "name": "F#3",
                "midi": 54,
                "time": 63.999936,
                "velocity": 0.7244094488188977,
                "duration": 1.9999980000000122
            },
            {
                "name": "A3",
                "midi": 57,
                "time": 63.999936,
                "velocity": 0.7244094488188977,
                "duration": 1.9999980000000122
            },
            {
                "name": "D4",
                "midi": 62,
                "time": 63.999936,
                "velocity": 0.7244094488188977,
                "duration": 1.9999980000000122
            },
            {
                "name": "D3",
                "midi": 50,
                "time": 63.999936,
                "velocity": 0.8267716535433071,
                "duration": 0.6666659999999993
            },
            {
                "name": "D2",
                "midi": 38,
                "time": 64.666602,
                "velocity": 0.6929133858267716,
                "duration": 0.6666660000000064
            }
        ],
        "controlChanges": {
            "7": [
                {
                    "number": 7,
                    "time": 1.333332,
                    "value": 0.7874015748031497
                },
                {
                    "number": 7,
                    "time": 1.333332,
                    "value": 0.7874015748031497
                }
            ],
            "10": [
                {
                    "number": 10,
                    "time": 1.333332,
                    "value": 0.4015748031496063
                },
                {
                    "number": 10,
                    "time": 1.333332,
                    "value": 0.4015748031496063
                }
            ],
            "64": [
                {
                    "number": 64,
                    "time": 1.333332,
                    "value": 0
                },
                {
                    "number": 64,
                    "time": 1.333332,
                    "value": 0
                }
            ],
            "91": [
                {
                    "number": 91,
                    "time": 1.333332,
                    "value": 0.3779527559055118
                },
                {
                    "number": 91,
                    "time": 1.333332,
                    "value": 0.3779527559055118
                }
            ],
            "121": [
                {
                    "number": 121,
                    "time": 1.333332,
                    "value": 0
                },
                {
                    "number": 121,
                    "time": 1.333332,
                    "value": 0
                }
            ]
        }
    }
]}*/
