{
  "header": {
    "PPQ": 1920,
    "bpm": 112.82012711067655,
    "timeSignature": [
      4,
      4
    ],
    "name": "Superbowl_50"
  },
  "startTime": 0,
  "duration": 148.26172136458337,
  "tracks": [
    {
      "startTime": 0,
      "duration": 0,
      "length": 0,
      "id": 0,
      "name": "Superbowl_50"
    },
    {
      "startTime": 2.6546681666666663,
      "duration": 148.26172136458337,
      "length": 227,
      "id": 1,
      "name": "Superbowl_50",
      "channelNumber": 0,
      "isPercussion": false,
      "notes": [
        {
          "name": "C1",
          "midi": 24,
          "time": 2.6546681666666663,
          "velocity": 0.5826771653543307,
          "duration": 3.639089145833333
        },
        {
          "name": "B0",
          "midi": 23,
          "time": 6.2937573124999995,
          "velocity": 0.2755905511811024,
          "duration": 3.5493445208333325
        },
        {
          "name": "B3",
          "midi": 59,
          "time": 9.843101833333332,
          "velocity": 0.5039370078740157,
          "duration": 0.21882177083333332
        },
        {
          "name": "C#4",
          "midi": 61,
          "time": 10.061923604166665,
          "velocity": 0.44881889763779526,
          "duration": 0.3451290208333333
        },
        {
          "name": "A#3",
          "midi": 58,
          "time": 10.407052624999999,
          "velocity": 0.4645669291338583,
          "duration": 0.3141061875000002
        },
        {
          "name": "F#3",
          "midi": 54,
          "time": 10.721158812499999,
          "velocity": 0.5905511811023622,
          "duration": 1.1855154166666662
        },
        {
          "name": "G#3",
          "midi": 56,
          "time": 11.906674229166665,
          "velocity": 0.4566929133858268,
          "duration": 0.31576812499999996
        },
        {
          "name": "A#3",
          "midi": 58,
          "time": 12.222442354166665,
          "velocity": 0.4409448818897638,
          "duration": 0.5838940416666674
        },
        {
          "name": "C#4",
          "midi": 61,
          "time": 12.806336395833332,
          "velocity": 0.6535433070866141,
          "duration": 1.0819213125000005
        },
        {
          "name": "F#4",
          "midi": 66,
          "time": 13.890750614583332,
          "velocity": 0.5275590551181102,
          "duration": 2.4807187083333346
        },
        {
          "name": "A#4",
          "midi": 70,
          "time": 16.371469322916667,
          "velocity": 0.6456692913385826,
          "duration": 0.5830630729166657
        },
        {
          "name": "G#4",
          "midi": 68,
          "time": 16.956471322916666,
          "velocity": 0.4251968503937008,
          "duration": 0.1249223020833341
        },
        {
          "name": "F#4",
          "midi": 66,
          "time": 17.083332552083334,
          "velocity": 0.7322834645669292,
          "duration": 0.8503580208333332
        },
        {
          "name": "G#2",
          "midi": 44,
          "time": 17.933690572916667,
          "velocity": 0.44881889763779526,
          "duration": 0.17284150000000054
        },
        {
          "name": "A#3",
          "midi": 58,
          "time": 18.106532072916668,
          "velocity": 0.4409448818897638,
          "duration": 0.45509388541666596
        },
        {
          "name": "F#2",
          "midi": 42,
          "time": 18.561625958333334,
          "velocity": 0.3543307086614173,
          "duration": 0.137663822916668
        },
        {
          "name": "C4",
          "midi": 60,
          "time": 18.699289781250002,
          "velocity": 0.44881889763779526,
          "duration": 0.09583839583333287
        },
        {
          "name": "C3",
          "midi": 48,
          "time": 18.795128177083335,
          "velocity": 0.5354330708661418,
          "duration": 0.6320902291666677
        },
        {
          "name": "C#3",
          "midi": 49,
          "time": 19.427218406250002,
          "velocity": 0.4330708661417323,
          "duration": 0.1479124375000005
        },
        {
          "name": "C3",
          "midi": 48,
          "time": 19.575130843750003,
          "velocity": 0.47244094488188976,
          "duration": 0.1786582812500015
        },
        {
          "name": "C4",
          "midi": 60,
          "time": 19.753789125000004,
          "velocity": 0.47244094488188976,
          "duration": 0.12326036458333434
        },
        {
          "name": "C#3",
          "midi": 49,
          "time": 19.87704948958334,
          "velocity": 0.4251968503937008,
          "duration": 0.3310025520833335
        },
        {
          "name": "C#3",
          "midi": 49,
          "time": 20.208052041666672,
          "velocity": 0.3228346456692913,
          "duration": 0.38640046875000067
        },
        {
          "name": "C4",
          "midi": 60,
          "time": 20.594452510416673,
          "velocity": 0.1968503937007874,
          "duration": 0.1299081145833334
        },
        {
          "name": "C#1",
          "midi": 25,
          "time": 20.724360625000006,
          "velocity": 0.2125984251968504,
          "duration": 1.0866301354166659
        },
        {
          "name": "C#4",
          "midi": 61,
          "time": 21.81320667708334,
          "velocity": 0.44881889763779526,
          "duration": 0.15206728125000168
        },
        {
          "name": "B0",
          "midi": 23,
          "time": 21.96527395833334,
          "velocity": 0.5354330708661418,
          "duration": 0.1437575937499993
        },
        {
          "name": "B1",
          "midi": 35,
          "time": 22.10903155208334,
          "velocity": 0.6456692913385826,
          "duration": 0.3055195104166657
        },
        {
          "name": "C#4",
          "midi": 61,
          "time": 22.414551062500006,
          "velocity": 0.5039370078740157,
          "duration": 0.4850087604166653
        },
        {
          "name": "C3",
          "midi": 48,
          "time": 22.89955982291667,
          "velocity": 0.6377952755905512,
          "duration": 0.11882853124999926
        },
        {
          "name": "A#4",
          "midi": 70,
          "time": 23.01838835416667,
          "velocity": 0.6220472440944882,
          "duration": 1.0328941562499985
        },
        {
          "name": "G#4",
          "midi": 68,
          "time": 24.05128251041667,
          "velocity": 0.7007874015748031,
          "duration": 0.6307052812500018
        },
        {
          "name": "F#4",
          "midi": 66,
          "time": 24.68198779166667,
          "velocity": 0.6692913385826772,
          "duration": 0.1564991145833332
        },
        {
          "name": "F#4",
          "midi": 66,
          "time": 24.838486906250004,
          "velocity": 0.7007874015748031,
          "duration": 0.8401094062500007
        },
        {
          "name": "E4",
          "midi": 64,
          "time": 25.678596312500005,
          "velocity": 0.6929133858267716,
          "duration": 0.1753344062499984
        },
        {
          "name": "F4",
          "midi": 65,
          "time": 25.853930718750004,
          "velocity": 0.8031496062992126,
          "duration": 0.22713145833333215
        },
        {
          "name": "C#3",
          "midi": 49,
          "time": 26.081062177083336,
          "velocity": 0.5590551181102362,
          "duration": 0.19832454166666835
        },
        {
          "name": "C#3",
          "midi": 49,
          "time": 26.279386718750004,
          "velocity": 0.4330708661417323,
          "duration": 0.12326036458333434
        },
        {
          "name": "C#3",
          "midi": 49,
          "time": 26.40264708333334,
          "velocity": 0.4094488188976378,
          "duration": 0.11384271874999996
        },
        {
          "name": "C#3",
          "midi": 49,
          "time": 26.51648980208334,
          "velocity": 0.28346456692913385,
          "duration": 0.21355896875000013
        },
        {
          "name": "C#3",
          "midi": 49,
          "time": 26.73004877083334,
          "velocity": 0.2283464566929134,
          "duration": 0.20912713541666506
        },
        {
          "name": "C#3",
          "midi": 49,
          "time": 26.939175906250004,
          "velocity": 0.2047244094488189,
          "duration": 0.5863869479166652
        },
        {
          "name": "C#4",
          "midi": 61,
          "time": 27.52556285416667,
          "velocity": 0.7559055118110236,
          "duration": 0.17671935416666784
        },
        {
          "name": "D#4",
          "midi": 63,
          "time": 27.702282208333337,
          "velocity": 0.7874015748031497,
          "duration": 0.4902715624999985
        },
        {
          "name": "F#4",
          "midi": 66,
          "time": 28.194769687500003,
          "velocity": 0.5669291338582677,
          "duration": 0.24347384374999947
        },
        {
          "name": "F#4",
          "midi": 66,
          "time": 28.438243531250002,
          "velocity": 0.7795275590551181,
          "duration": 1.7151195000000001
        },
        {
          "name": "C#3",
          "midi": 49,
          "time": 30.15557894791667,
          "velocity": 0.5433070866141733,
          "duration": 0.1249223020833341
        },
        {
          "name": "C3",
          "midi": 48,
          "time": 30.280501250000004,
          "velocity": 0.7716535433070866,
          "duration": 0.1656397708333337
        },
        {
          "name": "C#4",
          "midi": 61,
          "time": 30.446141020833338,
          "velocity": 0.6535433070866141,
          "duration": 0.7647682395833328
        },
        {
          "name": "A#3",
          "midi": 58,
          "time": 31.213402166666672,
          "velocity": 0.41732283464566927,
          "duration": 0.5645047708333344
        },
        {
          "name": "D#3",
          "midi": 51,
          "time": 31.777906937500006,
          "velocity": 0.29133858267716534,
          "duration": 0.1833671041666669
        },
        {
          "name": "F#3",
          "midi": 54,
          "time": 31.961274041666673,
          "velocity": 0.3228346456692913,
          "duration": 0.17644236458333395
        },
        {
          "name": "F2",
          "midi": 41,
          "time": 32.13771640625001,
          "velocity": 0.3858267716535433,
          "duration": 0.18198215625000103
        },
        {
          "name": "F3",
          "midi": 53,
          "time": 32.31969856250001,
          "velocity": 0.23622047244094488,
          "duration": 1.9912781145833307
        },
        {
          "name": "A#3",
          "midi": 58,
          "time": 34.31097667708334,
          "velocity": 0.5669291338582677,
          "duration": 0.26674096874999975
        },
        {
          "name": "C#4",
          "midi": 61,
          "time": 34.57771764583334,
          "velocity": 0.6220472440944882,
          "duration": 0.5235103125000009
        },
        {
          "name": "A#3",
          "midi": 58,
          "time": 35.10122795833334,
          "velocity": 0.5590551181102362,
          "duration": 0.4160383541666661
        },
        {
          "name": "F2",
          "midi": 41,
          "time": 35.51975921875,
          "velocity": 0.5275590551181102,
          "duration": 0.8384474687499974
        },
        {
          "name": "F#1",
          "midi": 30,
          "time": 36.3582066875,
          "velocity": 0.6614173228346457,
          "duration": 0.5387447395833362
        },
        {
          "name": "G#3",
          "midi": 56,
          "time": 36.89695142708334,
          "velocity": 0.7874015748031497,
          "duration": 0.33986621874999656
        },
        {
          "name": "A#3",
          "midi": 58,
          "time": 37.236817645833334,
          "velocity": 0.5433070866141733,
          "duration": 0.6531414374999969
        },
        {
          "name": "C#3",
          "midi": 49,
          "time": 37.88995908333333,
          "velocity": 0.8110236220472441,
          "duration": 1.1295635208333366
        },
        {
          "name": "C#4",
          "midi": 61,
          "time": 39.01952260416667,
          "velocity": 0.8346456692913385,
          "duration": 0.5376367812500007
        },
        {
          "name": "F#4",
          "midi": 66,
          "time": 39.55715938541667,
          "velocity": 0.8582677165354331,
          "duration": 1.4132008541666679
        },
        {
          "name": "D#1",
          "midi": 27,
          "time": 40.970360239583336,
          "velocity": 0.6220472440944882,
          "duration": 0.866700406249997
        },
        {
          "name": "E4",
          "midi": 64,
          "time": 41.86198970833333,
          "velocity": 0.8267716535433071,
          "duration": 0.23765706249999852
        },
        {
          "name": "A4",
          "midi": 69,
          "time": 42.09964677083333,
          "velocity": 0.8267716535433071,
          "duration": 0.18198215625000103
        },
        {
          "name": "A#4",
          "midi": 70,
          "time": 42.28162892708333,
          "velocity": 0.8503937007874016,
          "duration": 0.8658694375000024
        },
        {
          "name": "G#4",
          "midi": 68,
          "time": 43.15054525,
          "velocity": 0.5984251968503937,
          "duration": 0.140987697916664
        },
        {
          "name": "F#4",
          "midi": 66,
          "time": 43.291532947916664,
          "velocity": 0.84251968503937,
          "duration": 0.24070394791666416
        },
        {
          "name": "F#4",
          "midi": 66,
          "time": 43.53223689583333,
          "velocity": 0.8740157480314961,
          "duration": 0.9497972812499995
        },
        {
          "name": "D#2",
          "midi": 39,
          "time": 44.48203417708333,
          "velocity": 0.8110236220472441,
          "duration": 0.45952571875000103
        },
        {
          "name": "A#3",
          "midi": 58,
          "time": 44.94155989583333,
          "velocity": 0.8110236220472441,
          "duration": 0.3664572187499999
        },
        {
          "name": "D#2",
          "midi": 39,
          "time": 45.30801711458333,
          "velocity": 0.7874015748031497,
          "duration": 0.46506551041666455
        },
        {
          "name": "G#1",
          "midi": 32,
          "time": 45.773082624999994,
          "velocity": 0.84251968503937,
          "duration": 0.9165585312499971
        },
        {
          "name": "F#2",
          "midi": 42,
          "time": 46.68964115624999,
          "velocity": 0.7716535433070866,
          "duration": 0.27117280208333483
        },
        {
          "name": "C4",
          "midi": 60,
          "time": 46.960813958333326,
          "velocity": 0.84251968503937,
          "duration": 0.17810430208333372
        },
        {
          "name": "C#3",
          "midi": 49,
          "time": 47.13891826041666,
          "velocity": 0.8582677165354331,
          "duration": 0.24264287500000137
        },
        {
          "name": "D4",
          "midi": 62,
          "time": 47.38156113541666,
          "velocity": 0.8188976377952756,
          "duration": 0.23654910416667008
        },
        {
          "name": "D3",
          "midi": 50,
          "time": 47.61811023958333,
          "velocity": 0.8110236220472441,
          "duration": 0.21328197916666625
        },
        {
          "name": "D3",
          "midi": 50,
          "time": 47.83139221875,
          "velocity": 0.6141732283464567,
          "duration": 0.2199297291666653
        },
        {
          "name": "C#1",
          "midi": 25,
          "time": 48.05132194791666,
          "velocity": 0.48031496062992124,
          "duration": 1.2278948229166673
        },
        {
          "name": "A#3",
          "midi": 58,
          "time": 49.28531054166666,
          "velocity": 0.8267716535433071,
          "duration": 0.24264287500000137
        },
        {
          "name": "C#4",
          "midi": 61,
          "time": 49.52795341666666,
          "velocity": 0.8267716535433071,
          "duration": 0.4398594583333306
        },
        {
          "name": "C#4",
          "midi": 61,
          "time": 49.96781287499999,
          "velocity": 0.7952755905511811,
          "duration": 0.5808471562500017
        },
        {
          "name": "A#4",
          "midi": 70,
          "time": 50.548660031249995,
          "velocity": 0.8582677165354331,
          "duration": 1.5203958229166687
        },
        {
          "name": "G#4",
          "midi": 68,
          "time": 52.06905585416666,
          "velocity": 0.7795275590551181,
          "duration": 0.5204634270833353
        },
        {
          "name": "G#2",
          "midi": 44,
          "time": 52.58951928125,
          "velocity": 0.8582677165354331,
          "duration": 0.13129306249999928
        },
        {
          "name": "F#2",
          "midi": 42,
          "time": 52.72081234375,
          "velocity": 0.8267716535433071,
          "duration": 0.5570260520833301
        },
        {
          "name": "F#3",
          "midi": 54,
          "time": 53.27783839583333,
          "velocity": 0.8031496062992126,
          "duration": 0.20469530208332998
        },
        {
          "name": "G#4",
          "midi": 68,
          "time": 53.48253369791666,
          "velocity": 0.6692913385826772,
          "duration": 0.3415281562499999
        },
        {
          "name": "E4",
          "midi": 64,
          "time": 53.82406185416666,
          "velocity": 0.7952755905511811,
          "duration": 0.9949465833333306
        },
        {
          "name": "C#3",
          "midi": 49,
          "time": 54.81900843749999,
          "velocity": 0.6220472440944882,
          "duration": 0.3210309270833349
        },
        {
          "name": "C#2",
          "midi": 37,
          "time": 55.14003936458332,
          "velocity": 0.5196850393700787,
          "duration": 0.3129982291666664
        },
        {
          "name": "C#2",
          "midi": 37,
          "time": 55.45303759374999,
          "velocity": 0.48031496062992124,
          "duration": 0.3783677708333357
        },
        {
          "name": "C#2",
          "midi": 37,
          "time": 55.831405364583325,
          "velocity": 0.33858267716535434,
          "duration": 0.41188351041666493
        },
        {
          "name": "C#2",
          "midi": 37,
          "time": 56.24328887499999,
          "velocity": 0.30708661417322836,
          "duration": 0.25926224999999903
        },
        {
          "name": "C#2",
          "midi": 37,
          "time": 56.50255112499999,
          "velocity": 0.23622047244094488,
          "duration": 0.8356775729166657
        },
        {
          "name": "C#4",
          "midi": 61,
          "time": 57.34127558333332,
          "velocity": 0.7952755905511811,
          "duration": 0.3653492604166644
        },
        {
          "name": "D#4",
          "midi": 63,
          "time": 57.706624843749985,
          "velocity": 0.8031496062992126,
          "duration": 0.8420483333333308
        },
        {
          "name": "F4",
          "midi": 65,
          "time": 58.548673177083316,
          "velocity": 0.7244094488188977,
          "duration": 0.30607348958333347
        },
        {
          "name": "E4",
          "midi": 64,
          "time": 58.85474666666665,
          "velocity": 0.8188976377952756,
          "duration": 0.21328197916666625
        },
        {
          "name": "F#4",
          "midi": 66,
          "time": 59.068028645833316,
          "velocity": 0.889763779527559,
          "duration": 1.6599985729166633
        },
        {
          "name": "G#4",
          "midi": 68,
          "time": 60.72802721874998,
          "velocity": 0.8976377952755905,
          "duration": 0.22297661458333096
        },
        {
          "name": "B2",
          "midi": 47,
          "time": 60.95100383333331,
          "velocity": 0.84251968503937,
          "duration": 0.48140789583333543
        },
        {
          "name": "F#4",
          "midi": 66,
          "time": 61.432411729166645,
          "velocity": 0.7874015748031497,
          "duration": 0.31244424999999865
        },
        {
          "name": "C#3",
          "midi": 49,
          "time": 61.744855979166644,
          "velocity": 0.6535433070866141,
          "duration": 0.27671259374999835
        },
        {
          "name": "C#4",
          "midi": 61,
          "time": 62.02406147916664,
          "velocity": 0.7637795275590551,
          "duration": 0.13849479166666612
        },
        {
          "name": "C#3",
          "midi": 49,
          "time": 62.162556270833306,
          "velocity": 0.7874015748031497,
          "duration": 0.2542764375000033
        },
        {
          "name": "C#4",
          "midi": 61,
          "time": 62.41683270833331,
          "velocity": 0.7559055118110236,
          "duration": 0.15179029166666425
        },
        {
          "name": "D#3",
          "midi": 51,
          "time": 62.568622999999974,
          "velocity": 0.7795275590551181,
          "duration": 0.4240710520833346
        },
        {
          "name": "A#3",
          "midi": 58,
          "time": 62.99269405208331,
          "velocity": 0.7244094488188977,
          "duration": 0.3487298854166667
        },
        {
          "name": "A#2",
          "midi": 46,
          "time": 63.341423937499975,
          "velocity": 0.7401574803149606,
          "duration": 0.3218618958333366
        },
        {
          "name": "G#3",
          "midi": 56,
          "time": 63.66328583333331,
          "velocity": 0.6614173228346457,
          "duration": 0.11134981250000209
        },
        {
          "name": "F#2",
          "midi": 42,
          "time": 63.774635645833314,
          "velocity": 0.6771653543307087,
          "duration": 0.4794689687499982
        },
        {
          "name": "F#3",
          "midi": 54,
          "time": 64.25410461458331,
          "velocity": 0.4251968503937008,
          "duration": 2.9297188229166693
        },
        {
          "name": "A#4",
          "midi": 70,
          "time": 67.18631634374998,
          "velocity": 0.8582677165354331,
          "duration": 2.130049895833338
        },
        {
          "name": "B4",
          "midi": 71,
          "time": 69.31636623958332,
          "velocity": 0.8346456692913385,
          "duration": 0.7517497291666615
        },
        {
          "name": "C4",
          "midi": 60,
          "time": 70.06811596874998,
          "velocity": 0.7952755905511811,
          "duration": 0.22048370833333308
        },
        {
          "name": "C#5",
          "midi": 73,
          "time": 70.28859967708331,
          "velocity": 0.84251968503937,
          "duration": 0.8960613020833392
        },
        {
          "name": "C#5",
          "midi": 73,
          "time": 71.18466097916665,
          "velocity": 0.8110236220472441,
          "duration": 0.1288001562499943
        },
        {
          "name": "C#5",
          "midi": 73,
          "time": 71.31346113541665,
          "velocity": 0.8110236220472441,
          "duration": 1.7511281458333343
        },
        {
          "name": "B4",
          "midi": 71,
          "time": 73.06625121874998,
          "velocity": 0.8110236220472441,
          "duration": 0.2833603437500045
        },
        {
          "name": "G#4",
          "midi": 68,
          "time": 73.34961156249999,
          "velocity": 0.8110236220472441,
          "duration": 0.7066004270833304
        },
        {
          "name": "G#4",
          "midi": 68,
          "time": 74.05621198958332,
          "velocity": 0.8188976377952756,
          "duration": 0.41963921875000665
        },
        {
          "name": "A#4",
          "midi": 70,
          "time": 74.47585120833332,
          "velocity": 0.8582677165354331,
          "duration": 0.6924739583333377
        },
        {
          "name": "B3",
          "midi": 59,
          "time": 75.16832516666666,
          "velocity": 0.8976377952755905,
          "duration": 0.3213079166666688
        },
        {
          "name": "B4",
          "midi": 71,
          "time": 75.48963308333333,
          "velocity": 0.8503937007874016,
          "duration": 0.37975271874999805
        },
        {
          "name": "A#4",
          "midi": 70,
          "time": 75.86938580208333,
          "velocity": 0.889763779527559,
          "duration": 0.14320361458332798
        },
        {
          "name": "E3",
          "midi": 52,
          "time": 76.01258941666666,
          "velocity": 0.905511811023622,
          "duration": 0.12021347916666514
        },
        {
          "name": "B4",
          "midi": 71,
          "time": 76.13280289583332,
          "velocity": 0.8346456692913385,
          "duration": 1.071672697916668
        },
        {
          "name": "E4",
          "midi": 64,
          "time": 77.20696849999999,
          "velocity": 0.7322834645669292,
          "duration": 0.154560187499996
        },
        {
          "name": "C3",
          "midi": 48,
          "time": 77.36152868749998,
          "velocity": 0.905511811023622,
          "duration": 0.2952708958333403
        },
        {
          "name": "C#4",
          "midi": 61,
          "time": 77.65679958333332,
          "velocity": 0.8346456692913385,
          "duration": 0.23350221875000443
        },
        {
          "name": "F#4",
          "midi": 66,
          "time": 77.89030180208333,
          "velocity": 0.7637795275590551,
          "duration": 0.13018510416667084
        },
        {
          "name": "C#3",
          "midi": 49,
          "time": 78.02048690625,
          "velocity": 0.8740157480314961,
          "duration": 0.13350897916666327
        },
        {
          "name": "D#2",
          "midi": 39,
          "time": 78.15399588541666,
          "velocity": 0.8661417322834646,
          "duration": 0.5927577083333375
        },
        {
          "name": "D#2",
          "midi": 39,
          "time": 78.74675359375,
          "velocity": 0.6377952755905512,
          "duration": 0.20469530208333708
        },
        {
          "name": "A#4",
          "midi": 70,
          "time": 78.95144889583334,
          "velocity": 0.7401574803149606,
          "duration": 0.0972233437500023
        },
        {
          "name": "G#4",
          "midi": 68,
          "time": 79.04867223958334,
          "velocity": 0.8110236220472441,
          "duration": 0.21189703125000392
        },
        {
          "name": "G#3",
          "midi": 56,
          "time": 79.26056927083334,
          "velocity": 0.7952755905511811,
          "duration": 0.12963112500000307
        },
        {
          "name": "F#3",
          "midi": 54,
          "time": 79.39020039583335,
          "velocity": 0.8503937007874016,
          "duration": 0.5309890312500016
        },
        {
          "name": "F#4",
          "midi": 66,
          "time": 79.92118942708335,
          "velocity": 0.8110236220472441,
          "duration": 0.15760707291666165
        },
        {
          "name": "F#4",
          "midi": 66,
          "time": 80.07879650000001,
          "velocity": 0.84251968503937,
          "duration": 0.17117956250000077
        },
        {
          "name": "F#3",
          "midi": 54,
          "time": 80.24997606250001,
          "velocity": 0.7795275590551181,
          "duration": 0.10497905208333691
        },
        {
          "name": "D#4",
          "midi": 63,
          "time": 80.35495511458335,
          "velocity": 0.8188976377952756,
          "duration": 0.3052425208333318
        },
        {
          "name": "F4",
          "midi": 65,
          "time": 80.66019763541668,
          "velocity": 0.8661417322834646,
          "duration": 0.14181866666666565
        },
        {
          "name": "D#4",
          "midi": 63,
          "time": 80.80201630208335,
          "velocity": 0.8188976377952756,
          "duration": 0.4362585937499972
        },
        {
          "name": "C#3",
          "midi": 49,
          "time": 81.23827489583334,
          "velocity": 0.7716535433070866,
          "duration": 0.2858532500000024
        },
        {
          "name": "C#4",
          "midi": 61,
          "time": 81.52412814583334,
          "velocity": 0.6614173228346457,
          "duration": 0.28668421874999694
        },
        {
          "name": "C#3",
          "midi": 49,
          "time": 81.81081236458334,
          "velocity": 0.49606299212598426,
          "duration": 0.33820428125000035
        },
        {
          "name": "C#2",
          "midi": 37,
          "time": 82.14901664583334,
          "velocity": 0.3937007874015748,
          "duration": 0.2872381979166647
        },
        {
          "name": "A3",
          "midi": 57,
          "time": 82.43874775,
          "velocity": 0.6456692913385826,
          "duration": 0.11411970833333385
        },
        {
          "name": "C#4",
          "midi": 61,
          "time": 82.55286745833334,
          "velocity": 0.8503937007874016,
          "duration": 0.10996486458333266
        },
        {
          "name": "D#4",
          "midi": 63,
          "time": 82.66283232291667,
          "velocity": 0.84251968503937,
          "duration": 4.7631128750000045
        },
        {
          "name": "C#5",
          "midi": 73,
          "time": 87.42594519791668,
          "velocity": 0.8661417322834646,
          "duration": 0.26646397916667297
        },
        {
          "name": "C#4",
          "midi": 61,
          "time": 87.69240917708335,
          "velocity": 0.889763779527559,
          "duration": 0.298040791666665
        },
        {
          "name": "C#4",
          "midi": 61,
          "time": 87.99044996875001,
          "velocity": 0.8661417322834646,
          "duration": 0.15926901041666497
        },
        {
          "name": "C#5",
          "midi": 73,
          "time": 88.14971897916668,
          "velocity": 0.8582677165354331,
          "duration": 0.17201053124999532
        },
        {
          "name": "C#5",
          "midi": 73,
          "time": 88.32172951041667,
          "velocity": 0.8661417322834646,
          "duration": 0.27034183333333317
        },
        {
          "name": "C#4",
          "midi": 61,
          "time": 88.59207134375,
          "velocity": 0.8661417322834646,
          "duration": 0.16203890625000383
        },
        {
          "name": "C#5",
          "midi": 73,
          "time": 88.75411025000001,
          "velocity": 0.8582677165354331,
          "duration": 1.2943723229166721
        },
        {
          "name": "C#4",
          "midi": 61,
          "time": 90.04848257291668,
          "velocity": 0.8031496062992126,
          "duration": 0.8190581979166609
        },
        {
          "name": "B4",
          "midi": 71,
          "time": 90.86754077083334,
          "velocity": 0.7559055118110236,
          "duration": 0.16730170833332636
        },
        {
          "name": "D#5",
          "midi": 75,
          "time": 91.03484247916667,
          "velocity": 0.84251968503937,
          "duration": 0.4204701875000012
        },
        {
          "name": "C#5",
          "midi": 73,
          "time": 91.45531266666667,
          "velocity": 0.8267716535433071,
          "duration": 0.22159166666666863
        },
        {
          "name": "A#4",
          "midi": 70,
          "time": 91.67690433333334,
          "velocity": 0.8267716535433071,
          "duration": 0.3647952812499966
        },
        {
          "name": "A4",
          "midi": 69,
          "time": 92.04169961458334,
          "velocity": 0.8188976377952756,
          "duration": 0.11411970833333385
        },
        {
          "name": "F#4",
          "midi": 66,
          "time": 92.15581932291667,
          "velocity": 0.7637795275590551,
          "duration": 0.13627887500000213
        },
        {
          "name": "D#4",
          "midi": 63,
          "time": 92.29209819791667,
          "velocity": 0.7637795275590551,
          "duration": 0.7996689270833315
        },
        {
          "name": "F#4",
          "midi": 66,
          "time": 93.091767125,
          "velocity": 0.5905511811023622,
          "duration": 0.36590323958333215
        },
        {
          "name": "F#4",
          "midi": 66,
          "time": 93.45767036458334,
          "velocity": 0.8661417322834646,
          "duration": 0.17921226041666216
        },
        {
          "name": "F#3",
          "midi": 54,
          "time": 93.636882625,
          "velocity": 0.937007874015748,
          "duration": 0.2811444270833334
        },
        {
          "name": "F3",
          "midi": 53,
          "time": 93.91802705208333,
          "velocity": 0.8818897637795275,
          "duration": 0.30025670833333606
        },
        {
          "name": "F#3",
          "midi": 54,
          "time": 94.21828376041667,
          "velocity": 0.7480314960629921,
          "duration": 0.43515063541666166
        },
        {
          "name": "C#5",
          "midi": 73,
          "time": 94.6556503125,
          "velocity": 0.8188976377952756,
          "duration": 0.4559248541666676
        },
        {
          "name": "C5",
          "midi": 72,
          "time": 95.11379108333334,
          "velocity": 0.6535433070866141,
          "duration": 0.4894405937500039
        },
        {
          "name": "F#3",
          "midi": 54,
          "time": 95.60323167708334,
          "velocity": 0.8582677165354331,
          "duration": 0.4656194895833323
        },
        {
          "name": "E2",
          "midi": 40,
          "time": 96.06885116666668,
          "velocity": 0.8503937007874016,
          "duration": 0.46534250000000554
        },
        {
          "name": "B1",
          "midi": 35,
          "time": 96.53419366666668,
          "velocity": 0.905511811023622,
          "duration": 0.30828940624999746
        },
        {
          "name": "B1",
          "midi": 35,
          "time": 96.84248307291668,
          "velocity": 0.8818897637795275,
          "duration": 0.5766923125000005
        },
        {
          "name": "B1",
          "midi": 35,
          "time": 97.41917538541668,
          "velocity": 0.8110236220472441,
          "duration": 0.21660585416667288
        },
        {
          "name": "E3",
          "midi": 52,
          "time": 97.63578123958335,
          "velocity": 0.889763779527559,
          "duration": 0.6099310624999958
        },
        {
          "name": "B1",
          "midi": 35,
          "time": 98.24571230208335,
          "velocity": 0.7165354330708661,
          "duration": 0.1429266250000012
        },
        {
          "name": "D#4",
          "midi": 63,
          "time": 98.38863892708335,
          "velocity": 0.7952755905511811,
          "duration": 0.20275637500000698
        },
        {
          "name": "D#4",
          "midi": 63,
          "time": 98.59139530208336,
          "velocity": 0.7637795275590551,
          "duration": 1.4143088124999963
        },
        {
          "name": "G#4",
          "midi": 68,
          "time": 100.00570411458335,
          "velocity": 0.8503937007874016,
          "duration": 0.5243412812500026
        },
        {
          "name": "A#4",
          "midi": 70,
          "time": 100.53004539583335,
          "velocity": 0.8346456692913385,
          "duration": 0.4935954375000051
        },
        {
          "name": "A#2",
          "midi": 46,
          "time": 101.02364083333336,
          "velocity": 0.8740157480314961,
          "duration": 0.9387176979166725
        },
        {
          "name": "B2",
          "midi": 47,
          "time": 101.96235853125003,
          "velocity": 0.8110236220472441,
          "duration": 0.19389270833333683
        },
        {
          "name": "G#4",
          "midi": 68,
          "time": 102.15625123958337,
          "velocity": 0.8188976377952756,
          "duration": 1.3209633229166684
        },
        {
          "name": "F#4",
          "midi": 66,
          "time": 103.47721456250004,
          "velocity": 0.8188976377952756,
          "duration": 1.8256383437500006
        },
        {
          "name": "C#3",
          "midi": 49,
          "time": 105.30285290625004,
          "velocity": 0.6614173228346457,
          "duration": 0.1747804270833342
        },
        {
          "name": "E4",
          "midi": 64,
          "time": 105.47763333333337,
          "velocity": 0.7952755905511811,
          "duration": 0.42351707291666685
        },
        {
          "name": "D#4",
          "midi": 63,
          "time": 105.90115040625004,
          "velocity": 0.6929133858267716,
          "duration": 0.2537224583333284
        },
        {
          "name": "A#2",
          "midi": 46,
          "time": 106.15487286458337,
          "velocity": 0.5669291338582677,
          "duration": 0.3911092916666661
        },
        {
          "name": "F#2",
          "midi": 42,
          "time": 106.54598215625003,
          "velocity": 0.5433070866141733,
          "duration": 0.5827860833333318
        },
        {
          "name": "G2",
          "midi": 43,
          "time": 107.12876823958337,
          "velocity": 0.5039370078740157,
          "duration": 0.37559787499999686
        },
        {
          "name": "G2",
          "midi": 43,
          "time": 107.50436611458336,
          "velocity": 0.4566929133858268,
          "duration": 1.4641669374999964
        },
        {
          "name": "B5",
          "midi": 83,
          "time": 108.96853305208336,
          "velocity": 0.5905511811023622,
          "duration": 4.190575406250005
        },
        {
          "name": "C#4",
          "midi": 61,
          "time": 113.15910845833336,
          "velocity": 0.7716535433070866,
          "duration": 0.5043980312500054
        },
        {
          "name": "C4",
          "midi": 60,
          "time": 113.66350648958337,
          "velocity": 0.7952755905511811,
          "duration": 0.3487298854166596
        },
        {
          "name": "B2",
          "midi": 47,
          "time": 114.01223637500003,
          "velocity": 0.8740157480314961,
          "duration": 0.7215578645833318
        },
        {
          "name": "F#4",
          "midi": 66,
          "time": 114.73379423958336,
          "velocity": 0.8740157480314961,
          "duration": 0.4875016666666596
        },
        {
          "name": "G#4",
          "midi": 68,
          "time": 115.22129590625002,
          "velocity": 0.8582677165354331,
          "duration": 0.2263004895833376
        },
        {
          "name": "G#2",
          "midi": 44,
          "time": 115.44759639583336,
          "velocity": 0.7244094488188977,
          "duration": 0.1905688333333302
        },
        {
          "name": "G#2",
          "midi": 44,
          "time": 115.63816522916669,
          "velocity": 0.984251968503937,
          "duration": 0.11218078125000375
        },
        {
          "name": "A#4",
          "midi": 70,
          "time": 115.75034601041669,
          "velocity": 0.8661417322834646,
          "duration": 0.11578164583333717
        },
        {
          "name": "A#3",
          "midi": 58,
          "time": 115.86612765625003,
          "velocity": 0.8031496062992126,
          "duration": 0.23876502083332696
        },
        {
          "name": "B4",
          "midi": 71,
          "time": 116.10489267708336,
          "velocity": 0.8031496062992126,
          "duration": 0.38556950000000256
        },
        {
          "name": "E3",
          "midi": 52,
          "time": 116.49046217708336,
          "velocity": 0.6377952755905512,
          "duration": 0.10165517708333027
        },
        {
          "name": "C#5",
          "midi": 73,
          "time": 116.59211735416669,
          "velocity": 0.7952755905511811,
          "duration": 0.37338195833334
        },
        {
          "name": "C#5",
          "midi": 73,
          "time": 116.96549931250003,
          "velocity": 0.8346456692913385,
          "duration": 1.7827049583333263
        },
        {
          "name": "C#5",
          "midi": 73,
          "time": 118.74820427083336,
          "velocity": 0.8188976377952756,
          "duration": 2.388758166666662
        },
        {
          "name": "A4",
          "midi": 69,
          "time": 121.13696243750002,
          "velocity": 0.8503937007874016,
          "duration": 0.21189703125000392
        },
        {
          "name": "A#4",
          "midi": 70,
          "time": 121.34885946875002,
          "velocity": 0.8582677165354331,
          "duration": 3.257951479166664
        },
        {
          "name": "C#5",
          "midi": 73,
          "time": 124.60681094791668,
          "velocity": 0.8110236220472441,
          "duration": 0.25455342708333717
        },
        {
          "name": "D#4",
          "midi": 63,
          "time": 124.86136437500002,
          "velocity": 0.8110236220472441,
          "duration": 0.4501080729166631
        },
        {
          "name": "A4",
          "midi": 69,
          "time": 125.31147244791669,
          "velocity": 0.8503937007874016,
          "duration": 0.31881501041667093
        },
        {
          "name": "C#3",
          "midi": 49,
          "time": 125.63028745833336,
          "velocity": 0.8740157480314961,
          "duration": 1.569699968750001
        },
        {
          "name": "A4",
          "midi": 69,
          "time": 127.19998742708336,
          "velocity": 0.8740157480314961,
          "duration": 0.24901363541667365
        },
        {
          "name": "G#4",
          "midi": 68,
          "time": 127.44900106250003,
          "velocity": 0.7874015748031497,
          "duration": 0.4406904270833394
        },
        {
          "name": "C4",
          "midi": 60,
          "time": 127.88969148958337,
          "velocity": 0.7480314960629921,
          "duration": 0.17007160416666522
        },
        {
          "name": "C#4",
          "midi": 61,
          "time": 128.05976309375004,
          "velocity": 0.5354330708661418,
          "duration": 2.8510537812499877
        },
        {
          "name": "D4",
          "midi": 62,
          "time": 130.91081687500002,
          "velocity": 0.8188976377952756,
          "duration": 0.6703147916666694
        },
        {
          "name": "B2",
          "midi": 47,
          "time": 131.5811316666667,
          "velocity": 0.8582677165354331,
          "duration": 0.30219563541666616
        },
        {
          "name": "F#4",
          "midi": 66,
          "time": 131.88332730208336,
          "velocity": 0.8818897637795275,
          "duration": 16.378394062500007
        }
      ]
    }
  ]
}